<svg width="257" height="53" viewBox="0 0 257 53" fill="none" xmlns="http://www.w3.org/2000/svg">
<mask id="path-1-outside-1_94_35" maskUnits="userSpaceOnUse" x="0" y="0" width="257" height="53" fill="black">
<rect fill="white" width="257" height="53"/>
<path d="M241.685 40.4091C239.321 40.4091 237.235 39.812 235.425 38.6179C233.615 37.4115 232.2 35.7126 231.178 33.5213C230.156 31.3177 229.645 28.714 229.645 25.7102C229.645 22.7311 230.156 20.1458 231.178 17.9545C232.2 15.7633 233.622 14.0705 235.444 12.8764C237.265 11.6823 239.371 11.0852 241.759 11.0852C243.605 11.0852 245.064 11.393 246.135 12.0085C247.219 12.6117 248.043 13.3011 248.61 14.0767C249.188 14.84 249.638 15.4678 249.958 15.9602H250.327V2H254.685V39.8182H250.475V35.4602H249.958C249.638 35.9773 249.182 36.6297 248.591 37.4176C248 38.1932 247.157 38.8887 246.061 39.5043C244.966 40.1075 243.507 40.4091 241.685 40.4091ZM242.276 36.4943C244.024 36.4943 245.501 36.0388 246.708 35.1278C247.914 34.2045 248.831 32.9304 249.459 31.3054C250.087 29.6681 250.401 27.7784 250.401 25.6364C250.401 23.5189 250.093 21.6662 249.478 20.0781C248.862 18.4777 247.951 17.2344 246.745 16.348C245.538 15.4493 244.049 15 242.276 15C240.429 15 238.89 15.474 237.659 16.4219C236.441 17.3575 235.524 18.6316 234.908 20.2443C234.305 21.8447 234.003 23.642 234.003 25.6364C234.003 27.6553 234.311 29.4896 234.926 31.1392C235.554 32.7765 236.478 34.0814 237.696 35.054C238.927 36.0142 240.454 36.4943 242.276 36.4943Z"/>
<path d="M217.867 40.3239C215.134 40.3239 212.776 39.7206 210.794 38.5142C208.825 37.2955 207.304 35.5966 206.233 33.4176C205.175 31.2263 204.645 28.678 204.645 25.7727C204.645 22.8674 205.175 20.3068 206.233 18.0909C207.304 15.8627 208.794 14.1269 210.702 12.8835C212.623 11.6278 214.863 11 217.424 11C218.901 11 220.36 11.2462 221.8 11.7386C223.24 12.2311 224.551 13.0312 225.733 14.1392C226.915 15.2348 227.857 16.6875 228.559 18.4972C229.26 20.3068 229.611 22.535 229.611 25.1818V27.0284H207.748V23.2614H225.179C225.179 21.661 224.859 20.233 224.219 18.9773C223.591 17.7216 222.693 16.7306 221.523 16.0043C220.366 15.2779 218.999 14.9148 217.424 14.9148C215.688 14.9148 214.186 15.3456 212.918 16.2074C211.662 17.0568 210.696 18.1648 210.019 19.5312C209.342 20.8977 209.003 22.3627 209.003 23.9261V26.4375C209.003 28.5795 209.373 30.3954 210.111 31.8849C210.862 33.3622 211.902 34.4886 213.232 35.2642C214.561 36.0275 216.106 36.4091 217.867 36.4091C219.012 36.4091 220.046 36.2491 220.969 35.929C221.905 35.5966 222.711 35.1042 223.388 34.4517C224.065 33.7869 224.588 32.9621 224.958 31.9773L229.168 33.1591C228.725 34.5871 227.98 35.8428 226.934 36.9261C225.887 37.9972 224.595 38.8343 223.056 39.4375C221.517 40.0284 219.787 40.3239 217.867 40.3239Z"/>
<path d="M192.867 40.3239C190.134 40.3239 187.776 39.7206 185.794 38.5142C183.825 37.2955 182.304 35.5966 181.233 33.4176C180.175 31.2263 179.645 28.678 179.645 25.7727C179.645 22.8674 180.175 20.3068 181.233 18.0909C182.304 15.8627 183.794 14.1269 185.702 12.8835C187.623 11.6278 189.863 11 192.424 11C193.901 11 195.36 11.2462 196.8 11.7386C198.24 12.2311 199.551 13.0312 200.733 14.1392C201.915 15.2348 202.857 16.6875 203.559 18.4972C204.26 20.3068 204.611 22.535 204.611 25.1818V27.0284H182.748V23.2614H200.179C200.179 21.661 199.859 20.233 199.219 18.9773C198.591 17.7216 197.693 16.7306 196.523 16.0043C195.366 15.2779 193.999 14.9148 192.424 14.9148C190.688 14.9148 189.186 15.3456 187.918 16.2074C186.662 17.0568 185.696 18.1648 185.019 19.5312C184.342 20.8977 184.003 22.3627 184.003 23.9261V26.4375C184.003 28.5795 184.373 30.3954 185.111 31.8849C185.862 33.3622 186.902 34.4886 188.232 35.2642C189.561 36.0275 191.106 36.4091 192.867 36.4091C194.012 36.4091 195.046 36.2491 195.969 35.929C196.905 35.5966 197.711 35.1042 198.388 34.4517C199.065 33.7869 199.588 32.9621 199.958 31.9773L204.168 33.1591C203.725 34.5871 202.98 35.8428 201.934 36.9261C200.887 37.9972 199.595 38.8343 198.056 39.4375C196.517 40.0284 194.787 40.3239 192.867 40.3239Z"/>
<path d="M154.645 50.3693V11.3693H158.855V15.875H159.373C159.693 15.3826 160.136 14.7547 160.702 13.9915C161.281 13.2159 162.105 12.5265 163.176 11.9233C164.26 11.3078 165.725 11 167.571 11C169.96 11 172.065 11.5971 173.887 12.7912C175.709 13.9853 177.131 15.678 178.152 17.8693C179.174 20.0606 179.685 22.6458 179.685 25.625C179.685 28.6288 179.174 31.2325 178.152 33.4361C177.131 35.6274 175.715 37.3262 173.905 38.5327C172.096 39.7268 170.009 40.3239 167.645 40.3239C165.823 40.3239 164.364 40.0223 163.269 39.419C162.173 38.8035 161.33 38.108 160.739 37.3324C160.148 36.5445 159.693 35.892 159.373 35.375H159.003V50.3693H154.645ZM158.929 25.5511C158.929 27.6932 159.243 29.5829 159.871 31.2202C160.499 32.8452 161.416 34.1193 162.623 35.0426C163.829 35.9536 165.306 36.4091 167.054 36.4091C168.876 36.4091 170.397 35.929 171.615 34.9688C172.846 33.9962 173.77 32.6913 174.385 31.054C175.013 29.4044 175.327 27.5701 175.327 25.5511C175.327 23.5568 175.019 21.7595 174.404 20.1591C173.801 18.5464 172.883 17.2723 171.652 16.3366C170.434 15.3887 168.901 14.9148 167.054 14.9148C165.282 14.9148 163.792 15.3641 162.586 16.2628C161.379 17.1491 160.468 18.3925 159.853 19.9929C159.237 21.581 158.929 23.4337 158.929 25.5511Z"/>
<path d="M149.952 11.9716C149.73 10.1004 148.832 8.64773 147.256 7.61364C145.68 6.57955 143.748 6.0625 141.458 6.0625C139.783 6.0625 138.319 6.33333 137.063 6.875C135.819 7.41667 134.847 8.16146 134.145 9.10938C133.456 10.0573 133.111 11.1345 133.111 12.3409C133.111 13.3504 133.351 14.2183 133.831 14.9446C134.324 15.6586 134.952 16.2557 135.715 16.7358C136.478 17.2036 137.278 17.5914 138.115 17.8991C138.953 18.1946 139.722 18.4347 140.424 18.6193L144.265 19.6534C145.249 19.9119 146.345 20.2689 147.551 20.7244C148.77 21.1799 149.934 21.8016 151.042 22.5895C152.162 23.3651 153.085 24.3622 153.811 25.581C154.538 26.7997 154.901 28.2955 154.901 30.0682C154.901 32.1117 154.365 33.9583 153.294 35.608C152.236 37.2576 150.685 38.5687 148.641 39.5412C146.61 40.5137 144.141 41 141.236 41C138.528 41 136.183 40.563 134.201 39.6889C132.231 38.8149 130.68 37.5961 129.547 36.0327C128.427 34.4692 127.793 32.6534 127.645 30.5852H132.372C132.496 32.0133 132.976 33.1951 133.813 34.1307C134.662 35.054 135.733 35.7434 137.026 36.1989C138.331 36.642 139.734 36.8636 141.236 36.8636C142.984 36.8636 144.554 36.5805 145.945 36.0142C147.336 35.4356 148.438 34.6354 149.25 33.6136C150.063 32.5795 150.469 31.3731 150.469 29.9943C150.469 28.7386 150.118 27.7169 149.417 26.929C148.715 26.1411 147.792 25.5009 146.647 25.0085C145.502 24.5161 144.265 24.0852 142.935 23.7159L138.282 22.3864C135.327 21.5369 132.988 20.3243 131.265 18.7486C129.541 17.1728 128.679 15.1108 128.679 12.5625C128.679 10.4451 129.252 8.59848 130.397 7.02273C131.554 5.43466 133.105 4.2036 135.05 3.32955C137.007 2.44318 139.193 2 141.605 2C144.043 2 146.21 2.43703 148.105 3.31108C150.001 4.17282 151.503 5.35464 152.611 6.85653C153.731 8.35843 154.322 10.0634 154.384 11.9716H149.952Z"/>
<path d="M114.321 40.3977C112.524 40.3977 110.893 40.0592 109.428 39.3821C107.963 38.6927 106.8 37.7017 105.938 36.4091C105.076 35.1042 104.645 33.5284 104.645 31.6818C104.645 30.0568 104.965 28.7396 105.605 27.7301C106.246 26.7083 107.101 25.9081 108.172 25.3295C109.243 24.7509 110.425 24.3201 111.718 24.0369C113.023 23.7415 114.334 23.5076 115.651 23.3352C117.374 23.1136 118.772 22.9474 119.843 22.8366C120.926 22.7135 121.714 22.5104 122.206 22.2273C122.711 21.9441 122.963 21.4517 122.963 20.75V20.6023C122.963 18.7803 122.465 17.3646 121.468 16.3551C120.483 15.3456 118.987 14.8409 116.98 14.8409C114.9 14.8409 113.269 15.2964 112.087 16.2074C110.905 17.1184 110.074 18.0909 109.594 19.125L105.458 17.6477C106.196 15.9242 107.181 14.5824 108.412 13.6222C109.656 12.6496 111.01 11.9725 112.475 11.5909C113.952 11.197 115.405 11 116.833 11C117.744 11 118.79 11.1108 119.972 11.3324C121.166 11.5417 122.317 11.9787 123.425 12.6435C124.545 13.3082 125.475 14.3116 126.213 15.6534C126.952 16.9953 127.321 18.7926 127.321 21.0455V39.733H122.963V35.892H122.742C122.446 36.5076 121.954 37.1662 121.265 37.8679C120.575 38.5696 119.658 39.1667 118.513 39.6591C117.368 40.1515 115.971 40.3977 114.321 40.3977ZM114.986 36.483C116.71 36.483 118.162 36.1444 119.344 35.4673C120.538 34.7902 121.437 33.9162 122.04 32.8452C122.656 31.7741 122.963 30.6477 122.963 29.4659V25.4773C122.779 25.6989 122.373 25.902 121.745 26.0866C121.129 26.259 120.415 26.4129 119.603 26.5483C118.802 26.6714 118.021 26.7822 117.257 26.8807C116.507 26.9669 115.897 27.0407 115.429 27.1023C114.297 27.25 113.238 27.4901 112.253 27.8224C111.281 28.1425 110.493 28.6288 109.89 29.2812C109.299 29.9214 109.003 30.7955 109.003 31.9034C109.003 33.4176 109.563 34.5625 110.684 35.3381C111.816 36.1013 113.25 36.483 114.986 36.483Z"/>
<path d="M104.344 11.7955V15.4886H89.6452V11.7955H104.344ZM93.9293 5H98.2873V32.0341C98.2873 33.2652 98.4658 34.1884 98.8228 34.804C99.1921 35.4072 99.6599 35.8134 100.226 36.0227C100.805 36.2197 101.414 36.3182 102.054 36.3182C102.534 36.3182 102.928 36.2936 103.236 36.2443C103.544 36.1828 103.79 36.1335 103.975 36.0966L104.861 40.0114C104.566 40.1222 104.153 40.233 103.624 40.3438C103.095 40.4669 102.424 40.5284 101.611 40.5284C100.38 40.5284 99.1736 40.2637 97.9918 39.7344C96.8223 39.205 95.8498 38.3987 95.0742 37.3153C94.311 36.232 93.9293 34.8655 93.9293 33.2159V5Z"/>
<path d="M76.3214 40.3977C74.524 40.3977 72.8929 40.0592 71.4279 39.3821C69.9629 38.6927 68.7996 37.7017 67.9379 36.4091C67.0761 35.1042 66.6452 33.5284 66.6452 31.6818C66.6452 30.0568 66.9653 28.7396 67.6055 27.7301C68.2456 26.7083 69.1012 25.9081 70.1722 25.3295C71.2432 24.7509 72.4251 24.3201 73.7177 24.0369C75.0226 23.7415 76.3337 23.5076 77.6509 23.3352C79.3744 23.1136 80.7717 22.9474 81.8427 22.8366C82.926 22.7135 83.7139 22.5104 84.2063 22.2273C84.711 21.9441 84.9634 21.4517 84.9634 20.75V20.6023C84.9634 18.7803 84.4648 17.3646 83.4677 16.3551C82.4828 15.3456 80.9871 14.8409 78.9805 14.8409C76.9 14.8409 75.2688 15.2964 74.087 16.2074C72.9052 17.1184 72.0742 18.0909 71.5941 19.125L67.4577 17.6477C68.1964 15.9242 69.1812 14.5824 70.4123 13.6222C71.6556 12.6496 73.0098 11.9725 74.4748 11.5909C75.9521 11.197 77.4047 11 78.8327 11C79.7437 11 80.7901 11.1108 81.9719 11.3324C83.1661 11.5417 84.3171 11.9787 85.4251 12.6435C86.5453 13.3082 87.4748 14.3116 88.2134 15.6534C88.952 16.9953 89.3214 18.7926 89.3214 21.0455V39.733H84.9634V35.892H84.7418C84.4464 36.5076 83.954 37.1662 83.2646 37.8679C82.5752 38.5696 81.658 39.1667 80.5131 39.6591C79.3682 40.1515 77.971 40.3977 76.3214 40.3977ZM76.9861 36.483C78.7096 36.483 80.1623 36.1444 81.3441 35.4673C82.5382 34.7902 83.4369 33.9162 84.0401 32.8452C84.6556 31.7741 84.9634 30.6477 84.9634 29.4659V25.4773C84.7788 25.6989 84.3725 25.902 83.7447 26.0866C83.1291 26.259 82.4151 26.4129 81.6026 26.5483C80.8024 26.6714 80.0207 26.7822 79.2574 26.8807C78.5065 26.9669 77.8971 27.0407 77.4293 27.1023C76.2967 27.25 75.238 27.4901 74.2532 27.8224C73.2807 28.1425 72.4928 28.6288 71.8895 29.2812C71.2986 29.9214 71.0032 30.7955 71.0032 31.9034C71.0032 33.4176 71.5633 34.5625 72.6836 35.3381C73.8162 36.1013 75.2503 36.483 76.9861 36.483Z"/>
<path d="M45.8953 39.8182H34.2248V27.0519V20.2857V13.7443V2H46.4123C50.0809 2 53.2201 2.7571 55.8299 4.27131C58.4398 5.7732 60.4403 7.93371 61.8314 10.7528C63.2225 13.5597 63.918 16.9205 63.918 20.8352C63.918 24.7746 63.2163 28.1662 61.8129 31.0099C60.4095 33.8414 58.3659 36.0204 55.6822 37.5469C52.9985 39.0611 49.7362 39.8182 45.8953 39.8182ZM38.8044 35.7557H45.5998C48.7267 35.7557 51.3181 35.1525 53.374 33.946C55.4298 32.7396 56.9625 31.0223 57.972 28.794C58.9815 26.5658 59.4862 23.9129 59.4862 20.8352C59.4862 17.7822 58.9876 15.1539 57.9905 12.9503C56.9933 10.7344 55.5037 9.03551 53.5217 7.85369C51.5397 6.65956 49.0714 6.0625 46.1169 6.0625H38.8044V35.7557Z"/>
</mask>
<path d="M241.685 40.4091C239.321 40.4091 237.235 39.812 235.425 38.6179C233.615 37.4115 232.2 35.7126 231.178 33.5213C230.156 31.3177 229.645 28.714 229.645 25.7102C229.645 22.7311 230.156 20.1458 231.178 17.9545C232.2 15.7633 233.622 14.0705 235.444 12.8764C237.265 11.6823 239.371 11.0852 241.759 11.0852C243.605 11.0852 245.064 11.393 246.135 12.0085C247.219 12.6117 248.043 13.3011 248.61 14.0767C249.188 14.84 249.638 15.4678 249.958 15.9602H250.327V2H254.685V39.8182H250.475V35.4602H249.958C249.638 35.9773 249.182 36.6297 248.591 37.4176C248 38.1932 247.157 38.8887 246.061 39.5043C244.966 40.1075 243.507 40.4091 241.685 40.4091ZM242.276 36.4943C244.024 36.4943 245.501 36.0388 246.708 35.1278C247.914 34.2045 248.831 32.9304 249.459 31.3054C250.087 29.6681 250.401 27.7784 250.401 25.6364C250.401 23.5189 250.093 21.6662 249.478 20.0781C248.862 18.4777 247.951 17.2344 246.745 16.348C245.538 15.4493 244.049 15 242.276 15C240.429 15 238.89 15.474 237.659 16.4219C236.441 17.3575 235.524 18.6316 234.908 20.2443C234.305 21.8447 234.003 23.642 234.003 25.6364C234.003 27.6553 234.311 29.4896 234.926 31.1392C235.554 32.7765 236.478 34.0814 237.696 35.054C238.927 36.0142 240.454 36.4943 242.276 36.4943Z" fill="url(#paint0_linear_94_35)"/>
<path d="M217.867 40.3239C215.134 40.3239 212.776 39.7206 210.794 38.5142C208.825 37.2955 207.304 35.5966 206.233 33.4176C205.175 31.2263 204.645 28.678 204.645 25.7727C204.645 22.8674 205.175 20.3068 206.233 18.0909C207.304 15.8627 208.794 14.1269 210.702 12.8835C212.623 11.6278 214.863 11 217.424 11C218.901 11 220.36 11.2462 221.8 11.7386C223.24 12.2311 224.551 13.0312 225.733 14.1392C226.915 15.2348 227.857 16.6875 228.559 18.4972C229.26 20.3068 229.611 22.535 229.611 25.1818V27.0284H207.748V23.2614H225.179C225.179 21.661 224.859 20.233 224.219 18.9773C223.591 17.7216 222.693 16.7306 221.523 16.0043C220.366 15.2779 218.999 14.9148 217.424 14.9148C215.688 14.9148 214.186 15.3456 212.918 16.2074C211.662 17.0568 210.696 18.1648 210.019 19.5312C209.342 20.8977 209.003 22.3627 209.003 23.9261V26.4375C209.003 28.5795 209.373 30.3954 210.111 31.8849C210.862 33.3622 211.902 34.4886 213.232 35.2642C214.561 36.0275 216.106 36.4091 217.867 36.4091C219.012 36.4091 220.046 36.2491 220.969 35.929C221.905 35.5966 222.711 35.1042 223.388 34.4517C224.065 33.7869 224.588 32.9621 224.958 31.9773L229.168 33.1591C228.725 34.5871 227.98 35.8428 226.934 36.9261C225.887 37.9972 224.595 38.8343 223.056 39.4375C221.517 40.0284 219.787 40.3239 217.867 40.3239Z" fill="url(#paint1_linear_94_35)"/>
<path d="M192.867 40.3239C190.134 40.3239 187.776 39.7206 185.794 38.5142C183.825 37.2955 182.304 35.5966 181.233 33.4176C180.175 31.2263 179.645 28.678 179.645 25.7727C179.645 22.8674 180.175 20.3068 181.233 18.0909C182.304 15.8627 183.794 14.1269 185.702 12.8835C187.623 11.6278 189.863 11 192.424 11C193.901 11 195.36 11.2462 196.8 11.7386C198.24 12.2311 199.551 13.0312 200.733 14.1392C201.915 15.2348 202.857 16.6875 203.559 18.4972C204.26 20.3068 204.611 22.535 204.611 25.1818V27.0284H182.748V23.2614H200.179C200.179 21.661 199.859 20.233 199.219 18.9773C198.591 17.7216 197.693 16.7306 196.523 16.0043C195.366 15.2779 193.999 14.9148 192.424 14.9148C190.688 14.9148 189.186 15.3456 187.918 16.2074C186.662 17.0568 185.696 18.1648 185.019 19.5312C184.342 20.8977 184.003 22.3627 184.003 23.9261V26.4375C184.003 28.5795 184.373 30.3954 185.111 31.8849C185.862 33.3622 186.902 34.4886 188.232 35.2642C189.561 36.0275 191.106 36.4091 192.867 36.4091C194.012 36.4091 195.046 36.2491 195.969 35.929C196.905 35.5966 197.711 35.1042 198.388 34.4517C199.065 33.7869 199.588 32.9621 199.958 31.9773L204.168 33.1591C203.725 34.5871 202.98 35.8428 201.934 36.9261C200.887 37.9972 199.595 38.8343 198.056 39.4375C196.517 40.0284 194.787 40.3239 192.867 40.3239Z" fill="url(#paint2_linear_94_35)"/>
<path d="M154.645 50.3693V11.3693H158.855V15.875H159.373C159.693 15.3826 160.136 14.7547 160.702 13.9915C161.281 13.2159 162.105 12.5265 163.176 11.9233C164.26 11.3078 165.725 11 167.571 11C169.96 11 172.065 11.5971 173.887 12.7912C175.709 13.9853 177.131 15.678 178.152 17.8693C179.174 20.0606 179.685 22.6458 179.685 25.625C179.685 28.6288 179.174 31.2325 178.152 33.4361C177.131 35.6274 175.715 37.3262 173.905 38.5327C172.096 39.7268 170.009 40.3239 167.645 40.3239C165.823 40.3239 164.364 40.0223 163.269 39.419C162.173 38.8035 161.33 38.108 160.739 37.3324C160.148 36.5445 159.693 35.892 159.373 35.375H159.003V50.3693H154.645ZM158.929 25.5511C158.929 27.6932 159.243 29.5829 159.871 31.2202C160.499 32.8452 161.416 34.1193 162.623 35.0426C163.829 35.9536 165.306 36.4091 167.054 36.4091C168.876 36.4091 170.397 35.929 171.615 34.9688C172.846 33.9962 173.77 32.6913 174.385 31.054C175.013 29.4044 175.327 27.5701 175.327 25.5511C175.327 23.5568 175.019 21.7595 174.404 20.1591C173.801 18.5464 172.883 17.2723 171.652 16.3366C170.434 15.3887 168.901 14.9148 167.054 14.9148C165.282 14.9148 163.792 15.3641 162.586 16.2628C161.379 17.1491 160.468 18.3925 159.853 19.9929C159.237 21.581 158.929 23.4337 158.929 25.5511Z" fill="url(#paint3_linear_94_35)"/>
<path d="M149.952 11.9716C149.73 10.1004 148.832 8.64773 147.256 7.61364C145.68 6.57955 143.748 6.0625 141.458 6.0625C139.783 6.0625 138.319 6.33333 137.063 6.875C135.819 7.41667 134.847 8.16146 134.145 9.10938C133.456 10.0573 133.111 11.1345 133.111 12.3409C133.111 13.3504 133.351 14.2183 133.831 14.9446C134.324 15.6586 134.952 16.2557 135.715 16.7358C136.478 17.2036 137.278 17.5914 138.115 17.8991C138.953 18.1946 139.722 18.4347 140.424 18.6193L144.265 19.6534C145.249 19.9119 146.345 20.2689 147.551 20.7244C148.77 21.1799 149.934 21.8016 151.042 22.5895C152.162 23.3651 153.085 24.3622 153.811 25.581C154.538 26.7997 154.901 28.2955 154.901 30.0682C154.901 32.1117 154.365 33.9583 153.294 35.608C152.236 37.2576 150.685 38.5687 148.641 39.5412C146.61 40.5137 144.141 41 141.236 41C138.528 41 136.183 40.563 134.201 39.6889C132.231 38.8149 130.68 37.5961 129.547 36.0327C128.427 34.4692 127.793 32.6534 127.645 30.5852H132.372C132.496 32.0133 132.976 33.1951 133.813 34.1307C134.662 35.054 135.733 35.7434 137.026 36.1989C138.331 36.642 139.734 36.8636 141.236 36.8636C142.984 36.8636 144.554 36.5805 145.945 36.0142C147.336 35.4356 148.438 34.6354 149.25 33.6136C150.063 32.5795 150.469 31.3731 150.469 29.9943C150.469 28.7386 150.118 27.7169 149.417 26.929C148.715 26.1411 147.792 25.5009 146.647 25.0085C145.502 24.5161 144.265 24.0852 142.935 23.7159L138.282 22.3864C135.327 21.5369 132.988 20.3243 131.265 18.7486C129.541 17.1728 128.679 15.1108 128.679 12.5625C128.679 10.4451 129.252 8.59848 130.397 7.02273C131.554 5.43466 133.105 4.2036 135.05 3.32955C137.007 2.44318 139.193 2 141.605 2C144.043 2 146.21 2.43703 148.105 3.31108C150.001 4.17282 151.503 5.35464 152.611 6.85653C153.731 8.35843 154.322 10.0634 154.384 11.9716H149.952Z" fill="url(#paint4_linear_94_35)"/>
<path d="M114.321 40.3977C112.524 40.3977 110.893 40.0592 109.428 39.3821C107.963 38.6927 106.8 37.7017 105.938 36.4091C105.076 35.1042 104.645 33.5284 104.645 31.6818C104.645 30.0568 104.965 28.7396 105.605 27.7301C106.246 26.7083 107.101 25.9081 108.172 25.3295C109.243 24.7509 110.425 24.3201 111.718 24.0369C113.023 23.7415 114.334 23.5076 115.651 23.3352C117.374 23.1136 118.772 22.9474 119.843 22.8366C120.926 22.7135 121.714 22.5104 122.206 22.2273C122.711 21.9441 122.963 21.4517 122.963 20.75V20.6023C122.963 18.7803 122.465 17.3646 121.468 16.3551C120.483 15.3456 118.987 14.8409 116.98 14.8409C114.9 14.8409 113.269 15.2964 112.087 16.2074C110.905 17.1184 110.074 18.0909 109.594 19.125L105.458 17.6477C106.196 15.9242 107.181 14.5824 108.412 13.6222C109.656 12.6496 111.01 11.9725 112.475 11.5909C113.952 11.197 115.405 11 116.833 11C117.744 11 118.79 11.1108 119.972 11.3324C121.166 11.5417 122.317 11.9787 123.425 12.6435C124.545 13.3082 125.475 14.3116 126.213 15.6534C126.952 16.9953 127.321 18.7926 127.321 21.0455V39.733H122.963V35.892H122.742C122.446 36.5076 121.954 37.1662 121.265 37.8679C120.575 38.5696 119.658 39.1667 118.513 39.6591C117.368 40.1515 115.971 40.3977 114.321 40.3977ZM114.986 36.483C116.71 36.483 118.162 36.1444 119.344 35.4673C120.538 34.7902 121.437 33.9162 122.04 32.8452C122.656 31.7741 122.963 30.6477 122.963 29.4659V25.4773C122.779 25.6989 122.373 25.902 121.745 26.0866C121.129 26.259 120.415 26.4129 119.603 26.5483C118.802 26.6714 118.021 26.7822 117.257 26.8807C116.507 26.9669 115.897 27.0407 115.429 27.1023C114.297 27.25 113.238 27.4901 112.253 27.8224C111.281 28.1425 110.493 28.6288 109.89 29.2812C109.299 29.9214 109.003 30.7955 109.003 31.9034C109.003 33.4176 109.563 34.5625 110.684 35.3381C111.816 36.1013 113.25 36.483 114.986 36.483Z" fill="url(#paint5_linear_94_35)"/>
<path d="M104.344 11.7955V15.4886H89.6452V11.7955H104.344ZM93.9293 5H98.2873V32.0341C98.2873 33.2652 98.4658 34.1884 98.8228 34.804C99.1921 35.4072 99.6599 35.8134 100.226 36.0227C100.805 36.2197 101.414 36.3182 102.054 36.3182C102.534 36.3182 102.928 36.2936 103.236 36.2443C103.544 36.1828 103.79 36.1335 103.975 36.0966L104.861 40.0114C104.566 40.1222 104.153 40.233 103.624 40.3438C103.095 40.4669 102.424 40.5284 101.611 40.5284C100.38 40.5284 99.1736 40.2637 97.9918 39.7344C96.8223 39.205 95.8498 38.3987 95.0742 37.3153C94.311 36.232 93.9293 34.8655 93.9293 33.2159V5Z" fill="url(#paint6_linear_94_35)"/>
<path d="M76.3214 40.3977C74.524 40.3977 72.8929 40.0592 71.4279 39.3821C69.9629 38.6927 68.7996 37.7017 67.9379 36.4091C67.0761 35.1042 66.6452 33.5284 66.6452 31.6818C66.6452 30.0568 66.9653 28.7396 67.6055 27.7301C68.2456 26.7083 69.1012 25.9081 70.1722 25.3295C71.2432 24.7509 72.4251 24.3201 73.7177 24.0369C75.0226 23.7415 76.3337 23.5076 77.6509 23.3352C79.3744 23.1136 80.7717 22.9474 81.8427 22.8366C82.926 22.7135 83.7139 22.5104 84.2063 22.2273C84.711 21.9441 84.9634 21.4517 84.9634 20.75V20.6023C84.9634 18.7803 84.4648 17.3646 83.4677 16.3551C82.4828 15.3456 80.9871 14.8409 78.9805 14.8409C76.9 14.8409 75.2688 15.2964 74.087 16.2074C72.9052 17.1184 72.0742 18.0909 71.5941 19.125L67.4577 17.6477C68.1964 15.9242 69.1812 14.5824 70.4123 13.6222C71.6556 12.6496 73.0098 11.9725 74.4748 11.5909C75.9521 11.197 77.4047 11 78.8327 11C79.7437 11 80.7901 11.1108 81.9719 11.3324C83.1661 11.5417 84.3171 11.9787 85.4251 12.6435C86.5453 13.3082 87.4748 14.3116 88.2134 15.6534C88.952 16.9953 89.3214 18.7926 89.3214 21.0455V39.733H84.9634V35.892H84.7418C84.4464 36.5076 83.954 37.1662 83.2646 37.8679C82.5752 38.5696 81.658 39.1667 80.5131 39.6591C79.3682 40.1515 77.971 40.3977 76.3214 40.3977ZM76.9861 36.483C78.7096 36.483 80.1623 36.1444 81.3441 35.4673C82.5382 34.7902 83.4369 33.9162 84.0401 32.8452C84.6556 31.7741 84.9634 30.6477 84.9634 29.4659V25.4773C84.7788 25.6989 84.3725 25.902 83.7447 26.0866C83.1291 26.259 82.4151 26.4129 81.6026 26.5483C80.8024 26.6714 80.0207 26.7822 79.2574 26.8807C78.5065 26.9669 77.8971 27.0407 77.4293 27.1023C76.2967 27.25 75.238 27.4901 74.2532 27.8224C73.2807 28.1425 72.4928 28.6288 71.8895 29.2812C71.2986 29.9214 71.0032 30.7955 71.0032 31.9034C71.0032 33.4176 71.5633 34.5625 72.6836 35.3381C73.8162 36.1013 75.2503 36.483 76.9861 36.483Z" fill="url(#paint7_linear_94_35)"/>
<path d="M45.8953 39.8182H34.2248V27.0519V20.2857V13.7443V2H46.4123C50.0809 2 53.2201 2.7571 55.8299 4.27131C58.4398 5.7732 60.4403 7.93371 61.8314 10.7528C63.2225 13.5597 63.918 16.9205 63.918 20.8352C63.918 24.7746 63.2163 28.1662 61.8129 31.0099C60.4095 33.8414 58.3659 36.0204 55.6822 37.5469C52.9985 39.0611 49.7362 39.8182 45.8953 39.8182ZM38.8044 35.7557H45.5998C48.7267 35.7557 51.3181 35.1525 53.374 33.946C55.4298 32.7396 56.9625 31.0223 57.972 28.794C58.9815 26.5658 59.4862 23.9129 59.4862 20.8352C59.4862 17.7822 58.9876 15.1539 57.9905 12.9503C56.9933 10.7344 55.5037 9.03551 53.5217 7.85369C51.5397 6.65956 49.0714 6.0625 46.1169 6.0625H38.8044V35.7557Z" fill="#94241E"/>
<path d="M34.2248 12.7443H13.3491V14.7443H34.2248V12.7443ZM34.2248 19.2857H7.64383V21.2857H34.2248V19.2857ZM34.2248 26.0519H0V28.0519H34.2248V26.0519ZM235.425 38.6179L234.316 40.282L234.324 40.2872L235.425 38.6179ZM231.178 33.5213L229.363 34.3626L229.365 34.3665L231.178 33.5213ZM231.178 17.9545L229.365 17.1093L229.365 17.1093L231.178 17.9545ZM235.444 12.8764L234.347 11.2037L234.347 11.2037L235.444 12.8764ZM246.135 12.0085L245.139 13.7426L245.15 13.7493L245.162 13.7559L246.135 12.0085ZM248.61 14.0767L246.994 15.2561L247.005 15.2706L247.016 15.2849L248.61 14.0767ZM249.958 15.9602L248.281 17.0502L248.872 17.9602H249.958V15.9602ZM250.327 15.9602V17.9602H252.327V15.9602H250.327ZM250.327 2V0H248.327V2H250.327ZM254.685 2H256.685V0H254.685V2ZM254.685 39.8182V41.8182H256.685V39.8182H254.685ZM250.475 39.8182H248.475V41.8182H250.475V39.8182ZM250.475 35.4602H252.475V33.4602H250.475V35.4602ZM249.958 35.4602V33.4602H248.844L248.257 34.4075L249.958 35.4602ZM248.591 37.4176L250.182 38.6297L250.187 38.6237L250.191 38.6176L248.591 37.4176ZM246.061 39.5043L247.026 41.2563L247.034 41.2521L247.041 41.2479L246.061 39.5043ZM246.708 35.1278L247.913 36.724L247.923 36.7161L246.708 35.1278ZM249.459 31.3054L251.325 32.0262L251.327 32.0215L249.459 31.3054ZM249.478 20.0781L247.611 20.7961L247.613 20.8009L249.478 20.0781ZM246.745 16.348L245.55 17.952L245.561 17.9598L246.745 16.348ZM237.659 16.4219L238.877 18.0083L238.88 18.0065L237.659 16.4219ZM234.908 20.2443L233.039 19.5311L233.037 19.5389L234.908 20.2443ZM234.926 31.1392L233.053 31.8384L233.056 31.8468L233.059 31.8553L234.926 31.1392ZM237.696 35.054L236.449 36.6173L236.458 36.6242L236.466 36.631L237.696 35.054ZM210.794 38.5142L209.742 40.215L209.748 40.2188L209.754 40.2226L210.794 38.5142ZM206.233 33.4176L204.432 34.2877L204.438 34.2998L206.233 33.4176ZM206.233 18.0909L204.431 17.2245L204.429 17.2287L206.233 18.0909ZM210.702 12.8835L211.794 14.5592L211.797 14.5575L210.702 12.8835ZM221.8 11.7386L222.447 9.84618L222.447 9.84618L221.8 11.7386ZM225.733 14.1392L224.365 15.5983L224.374 15.6059L225.733 14.1392ZM228.559 18.4972L230.423 17.7741L230.423 17.7741L228.559 18.4972ZM229.611 27.0284V29.0284H231.611V27.0284H229.611ZM207.748 27.0284H205.748V29.0284H207.748V27.0284ZM207.748 23.2614V21.2614H205.748V23.2614H207.748ZM225.179 23.2614V25.2614H227.179V23.2614H225.179ZM224.219 18.9773L222.43 19.8717L222.434 19.8787L222.437 19.8856L224.219 18.9773ZM221.523 16.0043L220.46 17.6982L220.468 17.7033L221.523 16.0043ZM212.918 16.2074L214.039 17.864L214.042 17.8615L212.918 16.2074ZM210.019 19.5312L208.227 18.6433L208.227 18.6433L210.019 19.5312ZM210.111 31.8849L208.319 32.7734L208.324 32.7824L208.328 32.7912L210.111 31.8849ZM213.232 35.2642L212.224 36.9918L212.236 36.9987L213.232 35.2642ZM220.969 35.929L221.624 37.8187L221.631 37.8161L221.639 37.8136L220.969 35.929ZM223.388 34.4517L224.776 35.8919L224.783 35.8854L224.789 35.8788L223.388 34.4517ZM224.958 31.9773L225.498 30.0517L223.73 29.5553L223.085 31.275L224.958 31.9773ZM229.168 33.1591L231.078 33.7519L231.687 31.789L229.708 31.2335L229.168 33.1591ZM226.934 36.9261L228.364 38.3238L228.372 38.3156L226.934 36.9261ZM223.056 39.4375L223.773 41.3046L223.786 41.2995L223.056 39.4375ZM185.794 38.5142L184.742 40.215L184.748 40.2188L184.754 40.2226L185.794 38.5142ZM181.233 33.4176L179.432 34.2877L179.438 34.2998L181.233 33.4176ZM181.233 18.0909L179.431 17.2245L179.429 17.2287L181.233 18.0909ZM185.702 12.8835L186.794 14.5592L186.797 14.5575L185.702 12.8835ZM196.8 11.7386L197.447 9.84618L197.447 9.84618L196.8 11.7386ZM200.733 14.1392L199.365 15.5983L199.374 15.6059L200.733 14.1392ZM203.559 18.4972L205.423 17.7741L205.423 17.7741L203.559 18.4972ZM204.611 27.0284V29.0284H206.611V27.0284H204.611ZM182.748 27.0284H180.748V29.0284H182.748V27.0284ZM182.748 23.2614V21.2614H180.748V23.2614H182.748ZM200.179 23.2614V25.2614H202.179V23.2614H200.179ZM199.219 18.9773L197.43 19.8717L197.434 19.8787L197.437 19.8856L199.219 18.9773ZM196.523 16.0043L195.46 17.6982L195.468 17.7033L196.523 16.0043ZM187.918 16.2074L189.039 17.864L189.042 17.8615L187.918 16.2074ZM185.019 19.5312L183.227 18.6433L183.227 18.6433L185.019 19.5312ZM185.111 31.8849L183.319 32.7734L183.324 32.7824L183.328 32.7912L185.111 31.8849ZM188.232 35.2642L187.224 36.9918L187.236 36.9987L188.232 35.2642ZM195.969 35.929L196.624 37.8187L196.631 37.8161L196.639 37.8136L195.969 35.929ZM198.388 34.4517L199.776 35.8919L199.783 35.8854L199.789 35.8788L198.388 34.4517ZM199.958 31.9773L200.498 30.0517L198.73 29.5553L198.085 31.275L199.958 31.9773ZM204.168 33.1591L206.078 33.7519L206.687 31.789L204.708 31.2335L204.168 33.1591ZM201.934 36.9261L203.364 38.3238L203.372 38.3156L201.934 36.9261ZM198.056 39.4375L198.773 41.3046L198.786 41.2995L198.056 39.4375ZM154.645 50.3693H152.645V52.3693H154.645V50.3693ZM154.645 11.3693V9.36932H152.645V11.3693H154.645ZM158.855 11.3693H160.855V9.36932H158.855V11.3693ZM158.855 15.875H156.855V17.875H158.855V15.875ZM159.373 15.875V17.875H160.458L161.049 16.965L159.373 15.875ZM160.702 13.9915L159.099 12.7955L159.096 12.7998L160.702 13.9915ZM163.176 11.9233L164.158 13.6659L164.165 13.6622L163.176 11.9233ZM173.887 12.7912L174.983 11.1184L174.983 11.1184L173.887 12.7912ZM178.152 17.8693L179.965 17.0241L179.965 17.0241L178.152 17.8693ZM178.152 33.4361L179.965 34.2813L179.967 34.2774L178.152 33.4361ZM173.905 38.5327L175.007 40.202L175.015 40.1968L173.905 38.5327ZM163.269 39.419L162.289 41.1627L162.297 41.1669L162.304 41.1711L163.269 39.419ZM160.739 37.3324L159.139 38.5324L159.144 38.5384L159.148 38.5445L160.739 37.3324ZM159.373 35.375L161.073 34.3223L160.487 33.375H159.373V35.375ZM159.003 35.375V33.375H157.003V35.375H159.003ZM159.003 50.3693V52.3693H161.003V50.3693H159.003ZM159.871 31.2202L158.004 31.9362L158.005 31.941L159.871 31.2202ZM162.623 35.0426L161.407 36.6309L161.417 36.6387L162.623 35.0426ZM171.615 34.9688L172.853 36.5397L172.855 36.5381L171.615 34.9688ZM174.385 31.054L172.516 30.3426L172.513 30.3502L174.385 31.054ZM174.404 20.1591L172.531 20.8598L172.534 20.8684L172.537 20.877L174.404 20.1591ZM171.652 16.3366L170.424 17.9153L170.433 17.9222L170.442 17.929L171.652 16.3366ZM162.586 16.2628L163.77 17.8746L163.78 17.8667L162.586 16.2628ZM159.853 19.9929L161.717 20.7157L161.719 20.7109L159.853 19.9929ZM149.952 11.9716L147.966 12.2068L148.175 13.9716H149.952V11.9716ZM147.256 7.61364L146.159 9.28573L146.159 9.28573L147.256 7.61364ZM137.063 6.875L136.271 5.03857L136.264 5.04144L137.063 6.875ZM134.145 9.10938L132.538 7.91942L132.533 7.92621L132.528 7.93303L134.145 9.10938ZM133.831 14.9446L132.163 16.0475L132.174 16.0639L132.185 16.0801L133.831 14.9446ZM135.715 16.7358L134.65 18.4287L134.66 18.4349L134.67 18.441L135.715 16.7358ZM138.115 17.8991L137.425 19.7763L137.437 19.7808L137.45 19.7851L138.115 17.8991ZM140.424 18.6193L140.944 16.6881L140.933 16.6852L140.424 18.6193ZM144.265 19.6534L143.745 21.5847L143.757 21.5879L144.265 19.6534ZM147.551 20.7244L146.845 22.5955L146.851 22.5979L147.551 20.7244ZM151.042 22.5895L149.883 24.2194L149.893 24.2267L149.903 24.2339L151.042 22.5895ZM153.811 25.581L155.529 24.5571L155.529 24.5571L153.811 25.581ZM153.294 35.608L151.617 34.5188L151.611 34.5277L153.294 35.608ZM148.641 39.5412L147.782 37.7353L147.777 37.7373L148.641 39.5412ZM134.201 39.6889L133.389 41.517L133.394 41.5189L134.201 39.6889ZM129.547 36.0327L127.921 37.1976L127.928 37.206L129.547 36.0327ZM127.645 30.5852V28.5852H125.497L125.65 30.7277L127.645 30.5852ZM132.372 30.5852L134.365 30.4135L134.208 28.5852H132.372V30.5852ZM133.813 34.1307L132.322 35.4643L132.332 35.4746L132.341 35.4848L133.813 34.1307ZM137.026 36.1989L136.361 38.0852L136.372 38.089L136.383 38.0926L137.026 36.1989ZM145.945 36.0142L146.699 37.8666L146.706 37.8637L146.713 37.8608L145.945 36.0142ZM149.25 33.6136L150.816 34.8584L150.823 34.8493L149.25 33.6136ZM149.417 26.929L150.91 25.5988L150.91 25.5988L149.417 26.929ZM146.647 25.0085L145.856 26.8458L145.856 26.8458L146.647 25.0085ZM142.935 23.7159L142.386 25.639L142.393 25.641L142.4 25.6429L142.935 23.7159ZM138.282 22.3864L137.729 24.3085L137.732 24.3094L138.282 22.3864ZM131.265 18.7486L129.915 20.2246L129.915 20.2246L131.265 18.7486ZM130.397 7.02273L128.78 5.8449L128.779 5.84714L130.397 7.02273ZM135.05 3.32955L135.87 5.15383L135.875 5.15145L135.05 3.32955ZM148.105 3.31108L147.268 5.12737L147.278 5.13181L148.105 3.31108ZM152.611 6.85653L151.002 8.04385L151.008 8.05233L152.611 6.85653ZM154.384 11.9716V13.9716H156.449L156.383 11.9071L154.384 11.9716ZM109.428 39.3821L108.576 41.1918L108.589 41.1976L109.428 39.3821ZM105.938 36.4091L104.269 37.5112L104.274 37.5185L105.938 36.4091ZM105.605 27.7301L107.295 28.8012L107.3 28.7919L105.605 27.7301ZM111.718 24.0369L112.146 25.9907L112.159 25.9876L111.718 24.0369ZM115.651 23.3352L115.396 21.3515L115.391 21.3521L115.651 23.3352ZM119.843 22.8366L120.048 24.826L120.058 24.825L120.069 24.8239L119.843 22.8366ZM122.206 22.2273L121.228 20.483L121.219 20.4882L121.209 20.4935L122.206 22.2273ZM121.468 16.3551L120.036 17.7518L120.045 17.7606L121.468 16.3551ZM112.087 16.2074L113.308 17.7914L113.308 17.7914L112.087 16.2074ZM109.594 19.125L108.921 21.0085L110.64 21.6222L111.408 19.9672L109.594 19.125ZM105.458 17.6477L103.619 16.8599L102.781 18.8156L104.785 19.5312L105.458 17.6477ZM108.412 13.6222L109.642 15.1992L109.644 15.1975L108.412 13.6222ZM112.475 11.5909L112.979 13.5263L112.99 13.5234L112.475 11.5909ZM119.972 11.3324L119.603 13.2981L119.615 13.3003L119.627 13.3024L119.972 11.3324ZM123.425 12.6435L122.396 14.3585L122.404 14.3634L123.425 12.6435ZM126.213 15.6534L124.461 16.6179L124.461 16.6179L126.213 15.6534ZM127.321 39.733V41.733H129.321V39.733H127.321ZM122.963 39.733H120.963V41.733H122.963V39.733ZM122.963 35.892H124.963V33.892H122.963V35.892ZM122.742 35.892V33.892H121.483L120.939 35.0266L122.742 35.892ZM121.265 37.8679L122.691 39.2695L122.691 39.2695L121.265 37.8679ZM118.513 39.6591L117.723 37.8218L117.723 37.8218L118.513 39.6591ZM119.344 35.4673L118.358 33.7275L118.35 33.732L119.344 35.4673ZM122.04 32.8452L120.306 31.8486L120.302 31.8561L120.298 31.8637L122.04 32.8452ZM122.963 25.4773H124.963V19.9531L121.427 24.1969L122.963 25.4773ZM121.745 26.0866L122.284 28.0126L122.296 28.0091L122.309 28.0054L121.745 26.0866ZM119.603 26.5483L119.907 28.525L119.919 28.5231L119.931 28.5211L119.603 26.5483ZM117.257 26.8807L117.485 28.8676L117.499 28.866L117.513 28.8642L117.257 26.8807ZM115.429 27.1023L115.688 29.0855L115.69 29.0852L115.429 27.1023ZM112.253 27.8224L112.878 29.7222L112.886 29.7198L112.893 29.7174L112.253 27.8224ZM109.89 29.2812L108.421 27.9235L108.42 27.9247L109.89 29.2812ZM110.684 35.3381L109.545 36.9825L109.555 36.9896L109.566 36.9966L110.684 35.3381ZM104.344 11.7955H106.344V9.79545H104.344V11.7955ZM104.344 15.4886V17.4886H106.344V15.4886H104.344ZM89.6452 15.4886H87.6452V17.4886H89.6452V15.4886ZM89.6452 11.7955V9.79545H87.6452V11.7955H89.6452ZM93.9293 5V3H91.9293V5H93.9293ZM98.2873 5H100.287V3H98.2873V5ZM98.8228 34.804L97.0927 35.8074L97.1047 35.828L97.1171 35.8483L98.8228 34.804ZM100.226 36.0227L99.5329 37.8987L99.5572 37.9077L99.5817 37.916L100.226 36.0227ZM103.236 36.2443L103.552 38.2192L103.59 38.2131L103.628 38.2055L103.236 36.2443ZM103.975 36.0966L105.925 35.6549L105.495 33.753L103.583 34.1354L103.975 36.0966ZM104.861 40.0114L105.563 41.884L107.197 41.2714L106.812 39.5697L104.861 40.0114ZM103.624 40.3438L103.214 38.3862L103.192 38.3907L103.171 38.3957L103.624 40.3438ZM97.9918 39.7344L97.1671 41.5564L97.1743 41.5596L97.9918 39.7344ZM95.0742 37.3153L93.4392 38.4672L93.4436 38.4734L93.448 38.4796L95.0742 37.3153ZM71.4279 39.3821L70.5763 41.1918L70.5888 41.1976L71.4279 39.3821ZM67.9379 36.4091L66.2689 37.5112L66.2738 37.5185L67.9379 36.4091ZM67.6055 27.7301L69.2945 28.8012L69.3003 28.7919L67.6055 27.7301ZM73.7177 24.0369L74.1456 25.9907L74.1593 25.9876L73.7177 24.0369ZM77.6509 23.3352L77.3959 21.3515L77.3914 21.3521L77.6509 23.3352ZM81.8427 22.8366L82.0485 24.826L82.0585 24.825L82.0685 24.8239L81.8427 22.8366ZM84.2063 22.2273L83.2278 20.483L83.2186 20.4882L83.2094 20.4935L84.2063 22.2273ZM83.4677 16.3551L82.0361 17.7518L82.0448 17.7606L83.4677 16.3551ZM74.087 16.2074L75.308 17.7914L75.308 17.7914L74.087 16.2074ZM71.5941 19.125L70.9214 21.0085L72.6398 21.6222L73.4081 19.9672L71.5941 19.125ZM67.4577 17.6477L65.6194 16.8599L64.7813 18.8156L66.7851 19.5312L67.4577 17.6477ZM70.4123 13.6222L71.6423 15.1992L71.6445 15.1975L70.4123 13.6222ZM74.4748 11.5909L74.979 13.5263L74.9901 13.5234L74.4748 11.5909ZM81.9719 11.3324L81.6034 13.2981L81.615 13.3003L81.6267 13.3024L81.9719 11.3324ZM85.4251 12.6435L84.3961 14.3585L84.4044 14.3634L85.4251 12.6435ZM88.2134 15.6534L86.4613 16.6179L86.4613 16.6179L88.2134 15.6534ZM89.3214 39.733V41.733H91.3214V39.733H89.3214ZM84.9634 39.733H82.9634V41.733H84.9634V39.733ZM84.9634 35.892H86.9634V33.892H84.9634V35.892ZM84.7418 35.892V33.892H83.4834L82.9388 35.0266L84.7418 35.892ZM83.2646 37.8679L84.6912 39.2695L84.6912 39.2695L83.2646 37.8679ZM80.5131 39.6591L79.7229 37.8218L79.7229 37.8218L80.5131 39.6591ZM81.3441 35.4673L80.3576 33.7275L80.3499 33.732L81.3441 35.4673ZM84.0401 32.8452L82.3061 31.8486L82.3018 31.8561L82.2975 31.8637L84.0401 32.8452ZM84.9634 25.4773H86.9634V19.9531L83.427 24.1969L84.9634 25.4773ZM83.7447 26.0866L84.2839 28.0126L84.2965 28.0091L84.309 28.0054L83.7447 26.0866ZM81.6026 26.5483L81.9067 28.525L81.9191 28.5231L81.9314 28.5211L81.6026 26.5483ZM79.2574 26.8807L79.4855 28.8676L79.4994 28.866L79.5134 28.8642L79.2574 26.8807ZM77.4293 27.1023L77.688 29.0855L77.6902 29.0852L77.4293 27.1023ZM74.2532 27.8224L74.8784 29.7222L74.8856 29.7198L74.8927 29.7174L74.2532 27.8224ZM71.8895 29.2812L70.421 27.9235L70.4199 27.9247L71.8895 29.2812ZM72.6836 35.3381L71.5452 36.9825L71.5555 36.9896L71.5659 36.9966L72.6836 35.3381ZM34.2248 39.8182H32.2248V41.8182H34.2248V39.8182ZM34.2248 2V0C33.1202 0 32.2248 0.895431 32.2248 2L34.2248 2ZM55.8299 4.27131L54.8262 6.00124L54.8324 6.00477L55.8299 4.27131ZM61.8314 10.7528L60.0378 11.6379L60.0394 11.641L61.8314 10.7528ZM61.8129 31.0099L63.6049 31.8981L63.6064 31.895L61.8129 31.0099ZM55.6822 37.5469L56.665 39.2888L56.6711 39.2853L55.6822 37.5469ZM38.8044 35.7557H36.8044V37.7557H38.8044V35.7557ZM57.9905 12.9503L56.1666 13.771L56.1683 13.7748L57.9905 12.9503ZM53.5217 7.85369L52.4896 9.56682L52.4974 9.5715L53.5217 7.85369ZM38.8044 6.0625V4.0625H36.8044V6.0625H38.8044ZM241.685 38.4091C239.676 38.4091 237.98 37.9076 236.527 36.9486L234.324 40.2872C236.49 41.7165 238.967 42.4091 241.685 42.4091V38.4091ZM236.534 36.9538C235.063 35.9729 233.875 34.5733 232.991 32.6761L229.365 34.3665C230.524 36.8519 232.168 38.85 234.316 40.282L236.534 36.9538ZM232.992 32.68C232.118 30.7948 231.645 28.4905 231.645 25.7102H227.645C227.645 28.9375 228.194 31.8407 229.363 34.3626L232.992 32.68ZM231.645 25.7102C231.645 22.9569 232.117 20.6723 232.991 18.7998L229.365 17.1093C228.195 19.6194 227.645 22.5053 227.645 25.7102H231.645ZM232.991 18.7998C233.873 16.9074 235.062 15.5175 236.54 14.5492L234.347 11.2037C232.181 12.6236 230.526 14.6192 229.365 17.1093L232.991 18.7998ZM236.54 14.5492C238.005 13.589 239.721 13.0852 241.759 13.0852V9.08523C239.02 9.08523 236.526 9.77559 234.347 11.2037L236.54 14.5492ZM241.759 13.0852C243.416 13.0852 244.485 13.3668 245.139 13.7426L247.132 10.2745C245.644 9.41921 243.795 9.08523 241.759 9.08523V13.0852ZM245.162 13.7559C246.064 14.2578 246.641 14.7716 246.994 15.2561L250.225 12.8973C249.446 11.8306 248.374 10.9657 247.108 10.2611L245.162 13.7559ZM247.016 15.2849C247.581 16.0304 247.998 16.6153 248.281 17.0502L251.635 14.8703C251.277 14.3204 250.796 13.6495 250.204 12.8685L247.016 15.2849ZM249.958 17.9602H250.327V13.9602H249.958V17.9602ZM252.327 15.9602V2H248.327V15.9602H252.327ZM250.327 4H254.685V0H250.327V4ZM252.685 2V39.8182H256.685V2H252.685ZM254.685 37.8182H250.475V41.8182H254.685V37.8182ZM252.475 39.8182V35.4602H248.475V39.8182H252.475ZM250.475 33.4602H249.958V37.4602H250.475V33.4602ZM248.257 34.4075C247.982 34.8529 247.565 35.4521 246.991 36.2176L250.191 38.6176C250.799 37.8074 251.294 37.1017 251.658 36.5129L248.257 34.4075ZM247 36.2055C246.615 36.7111 246.005 37.2417 245.082 37.7606L247.041 41.2479C248.309 40.5358 249.386 39.6752 250.182 38.6297L247 36.2055ZM245.097 37.7522C244.401 38.1353 243.313 38.4091 241.685 38.4091V42.4091C243.701 42.4091 245.53 42.0797 247.026 41.2563L245.097 37.7522ZM242.276 38.4943C244.388 38.4943 246.307 37.9367 247.913 36.7239L245.503 33.5318C244.696 34.141 243.66 34.4943 242.276 34.4943V38.4943ZM247.923 36.7161C249.463 35.5377 250.584 33.9433 251.325 32.0262L247.594 30.5846C247.079 31.9175 246.365 32.8714 245.492 33.5396L247.923 36.7161ZM251.327 32.0215C252.059 30.1112 252.401 27.9706 252.401 25.6364H248.401C248.401 27.5862 248.115 29.225 247.592 30.5893L251.327 32.0215ZM252.401 25.6364C252.401 23.3297 252.066 21.2224 251.342 19.3553L247.613 20.8009C248.12 22.11 248.401 23.7082 248.401 25.6364H252.401ZM251.344 19.3602C250.612 17.4559 249.487 15.8807 247.929 14.7362L245.561 17.9598C246.416 18.5881 247.112 19.4996 247.611 20.7961L251.344 19.3602ZM247.939 14.7441C246.329 13.5446 244.4 13 242.276 13V17C243.698 17 244.747 17.3541 245.55 17.9519L247.939 14.7441ZM242.276 13C240.074 13 238.083 13.5718 236.439 14.8372L238.88 18.0065C239.698 17.3761 240.785 17 242.276 17V13ZM236.442 14.8354C234.894 16.0233 233.77 17.6166 233.039 19.5311L236.777 20.9575C237.277 19.6466 237.987 18.6917 238.877 18.0083L236.442 14.8354ZM233.037 19.5389C232.336 21.3988 232.003 23.4404 232.003 25.6364H236.003C236.003 23.8437 236.274 22.2906 236.779 20.9497L233.037 19.5389ZM232.003 25.6364C232.003 27.8595 232.342 29.9349 233.053 31.8384L236.8 30.44C236.279 29.0443 236.003 27.4511 236.003 25.6364H232.003ZM233.059 31.8553C233.798 33.7828 234.918 35.3959 236.449 36.6173L238.944 33.4907C238.037 32.767 237.31 31.7702 236.794 30.4231L233.059 31.8553ZM236.466 36.631C238.105 37.9095 240.086 38.4943 242.276 38.4943V34.4943C240.822 34.4943 239.749 34.1189 238.926 33.477L236.466 36.631ZM217.867 38.3239C215.435 38.3239 213.451 37.7899 211.834 36.8058L209.754 40.2226C212.102 41.6514 214.833 42.3239 217.867 42.3239V38.3239ZM211.847 36.8134C210.212 35.8021 208.942 34.3942 208.028 32.5354L204.438 34.2998C205.667 36.7989 207.437 38.7888 209.742 40.215L211.847 36.8134ZM208.034 32.5475C207.13 30.6752 206.645 28.4345 206.645 25.7727H202.645C202.645 28.9216 203.22 31.7775 204.432 34.2877L208.034 32.5475ZM206.645 25.7727C206.645 23.1117 207.129 20.8549 208.038 18.9531L204.429 17.2287C203.22 19.7587 202.645 22.6232 202.645 25.7727H206.645ZM208.036 18.9573C208.962 17.0296 210.218 15.5859 211.794 14.5592L209.61 11.2079C207.37 12.6679 205.646 14.6958 204.431 17.2245L208.036 18.9573ZM211.797 14.5575C213.355 13.5387 215.205 13 217.424 13V9C214.521 9 211.89 9.71697 209.608 11.2096L211.797 14.5575ZM217.424 13C218.674 13 219.915 13.2077 221.153 13.6311L222.447 9.84618C220.805 9.28474 219.128 9 217.424 9V13ZM221.153 13.6311C222.308 14.026 223.377 14.6716 224.365 15.5983L227.101 12.6801C225.726 11.3909 224.173 10.4361 222.447 9.84618L221.153 13.6311ZM224.374 15.6059C225.292 16.4572 226.08 17.6365 226.694 19.2202L230.423 17.7741C229.634 15.7385 228.538 14.0124 227.093 12.6725L224.374 15.6059ZM226.694 19.2202C227.28 20.7321 227.611 22.6983 227.611 25.1818H231.611C231.611 22.3718 231.24 19.8815 230.423 17.7741L226.694 19.2202ZM227.611 25.1818V27.0284H231.611V25.1818H227.611ZM229.611 25.0284H207.748V29.0284H229.611V25.0284ZM209.748 27.0284V23.2614H205.748V27.0284H209.748ZM207.748 25.2614H225.179V21.2614H207.748V25.2614ZM227.179 23.2614C227.179 21.3883 226.803 19.6419 226.001 18.0689L222.437 19.8856C222.916 20.824 223.179 21.9336 223.179 23.2614H227.179ZM226.008 18.0828C225.218 16.5032 224.068 15.2308 222.578 14.3053L220.468 17.7033C221.317 18.2304 221.964 18.94 222.43 19.8717L226.008 18.0828ZM222.586 14.3103C221.064 13.3549 219.317 12.9148 217.424 12.9148V16.9148C218.682 16.9148 219.668 17.201 220.46 17.6982L222.586 14.3103ZM217.424 12.9148C215.342 12.9148 213.436 13.4372 211.794 14.5532L214.042 17.8615C214.936 17.2541 216.034 16.9148 217.424 16.9148V12.9148ZM211.797 14.5508C210.253 15.5953 209.056 16.9688 208.227 18.6433L211.811 20.4192C212.335 19.3608 213.071 18.5184 214.039 17.864L211.797 14.5508ZM208.227 18.6433C207.409 20.2929 207.003 22.0627 207.003 23.9261H211.003C211.003 22.6627 211.274 21.5026 211.811 20.4192L208.227 18.6433ZM207.003 23.9261V26.4375H211.003V23.9261H207.003ZM207.003 26.4375C207.003 28.8019 207.41 30.9398 208.319 32.7734L211.903 30.9964C211.335 29.8509 211.003 28.3572 211.003 26.4375H207.003ZM208.328 32.7912C209.239 34.5836 210.537 36.0077 212.224 36.9918L214.24 33.5366C213.268 32.9696 212.485 32.1408 211.894 30.9786L208.328 32.7912ZM212.236 36.9987C213.911 37.9603 215.81 38.4091 217.867 38.4091V34.4091C216.403 34.4091 215.212 34.0946 214.228 33.5297L212.236 36.9987ZM217.867 38.4091C219.197 38.4091 220.458 38.2231 221.624 37.8187L220.314 34.0393C219.634 34.275 218.826 34.4091 217.867 34.4091V38.4091ZM221.639 37.8136C222.827 37.3913 223.882 36.7529 224.776 35.8919L222 33.0116C221.54 33.4554 220.982 33.8019 220.3 34.0444L221.639 37.8136ZM224.789 35.8788C225.696 34.9885 226.37 33.9076 226.83 32.6795L223.085 31.275C222.807 32.0166 222.434 32.5854 221.987 33.0246L224.789 35.8788ZM224.417 33.9028L228.627 35.0847L229.708 31.2335L225.498 30.0517L224.417 33.9028ZM227.258 32.5663C226.908 33.6933 226.326 34.6766 225.495 35.5367L228.372 38.3156C229.634 37.009 230.541 35.481 231.078 33.7519L227.258 32.5663ZM225.503 35.5285C224.674 36.3766 223.628 37.0648 222.326 37.5755L223.786 41.2995C225.561 40.6037 227.1 39.6177 228.364 38.3238L225.503 35.5285ZM222.339 37.5704C221.063 38.0602 219.582 38.3239 217.867 38.3239V42.3239C219.993 42.3239 221.971 41.9966 223.773 41.3046L222.339 37.5704ZM192.867 38.3239C190.435 38.3239 188.451 37.7899 186.834 36.8058L184.754 40.2226C187.102 41.6514 189.833 42.3239 192.867 42.3239V38.3239ZM186.847 36.8134C185.212 35.8021 183.942 34.3942 183.028 32.5354L179.438 34.2998C180.667 36.7989 182.437 38.7888 184.742 40.215L186.847 36.8134ZM183.034 32.5475C182.13 30.6752 181.645 28.4345 181.645 25.7727H177.645C177.645 28.9216 178.22 31.7775 179.432 34.2877L183.034 32.5475ZM181.645 25.7727C181.645 23.1117 182.129 20.8549 183.038 18.9531L179.429 17.2287C178.22 19.7587 177.645 22.6232 177.645 25.7727H181.645ZM183.036 18.9573C183.962 17.0296 185.218 15.5859 186.794 14.5592L184.61 11.2079C182.37 12.6679 180.646 14.6958 179.431 17.2245L183.036 18.9573ZM186.797 14.5575C188.355 13.5387 190.205 13 192.424 13V9C189.521 9 186.89 9.71697 184.608 11.2096L186.797 14.5575ZM192.424 13C193.674 13 194.915 13.2077 196.153 13.6311L197.447 9.84618C195.805 9.28474 194.128 9 192.424 9V13ZM196.153 13.6311C197.308 14.026 198.377 14.6716 199.365 15.5983L202.101 12.6801C200.726 11.3909 199.173 10.4361 197.447 9.84618L196.153 13.6311ZM199.374 15.6059C200.292 16.4572 201.08 17.6365 201.694 19.2202L205.423 17.7741C204.634 15.7385 203.538 14.0124 202.093 12.6725L199.374 15.6059ZM201.694 19.2202C202.28 20.7321 202.611 22.6983 202.611 25.1818H206.611C206.611 22.3718 206.24 19.8815 205.423 17.7741L201.694 19.2202ZM202.611 25.1818V27.0284H206.611V25.1818H202.611ZM204.611 25.0284H182.748V29.0284H204.611V25.0284ZM184.748 27.0284V23.2614H180.748V27.0284H184.748ZM182.748 25.2614H200.179V21.2614H182.748V25.2614ZM202.179 23.2614C202.179 21.3883 201.803 19.6419 201.001 18.0689L197.437 19.8856C197.916 20.824 198.179 21.9336 198.179 23.2614H202.179ZM201.008 18.0828C200.218 16.5032 199.068 15.2308 197.578 14.3053L195.468 17.7033C196.317 18.2304 196.964 18.94 197.43 19.8717L201.008 18.0828ZM197.586 14.3103C196.064 13.3549 194.317 12.9148 192.424 12.9148V16.9148C193.682 16.9148 194.668 17.201 195.46 17.6982L197.586 14.3103ZM192.424 12.9148C190.342 12.9148 188.436 13.4372 186.794 14.5532L189.042 17.8615C189.936 17.2541 191.034 16.9148 192.424 16.9148V12.9148ZM186.797 14.5508C185.253 15.5953 184.056 16.9688 183.227 18.6433L186.811 20.4192C187.335 19.3608 188.071 18.5184 189.039 17.864L186.797 14.5508ZM183.227 18.6433C182.409 20.2929 182.003 22.0627 182.003 23.9261H186.003C186.003 22.6627 186.274 21.5026 186.811 20.4192L183.227 18.6433ZM182.003 23.9261V26.4375H186.003V23.9261H182.003ZM182.003 26.4375C182.003 28.8019 182.41 30.9398 183.319 32.7734L186.903 30.9964C186.335 29.8509 186.003 28.3572 186.003 26.4375H182.003ZM183.328 32.7912C184.239 34.5836 185.537 36.0077 187.224 36.9918L189.24 33.5366C188.268 32.9696 187.485 32.1408 186.894 30.9786L183.328 32.7912ZM187.236 36.9987C188.911 37.9603 190.81 38.4091 192.867 38.4091V34.4091C191.403 34.4091 190.212 34.0946 189.228 33.5297L187.236 36.9987ZM192.867 38.4091C194.197 38.4091 195.458 38.2231 196.624 37.8187L195.314 34.0393C194.634 34.275 193.826 34.4091 192.867 34.4091V38.4091ZM196.639 37.8136C197.827 37.3913 198.882 36.7529 199.776 35.8919L197 33.0116C196.54 33.4554 195.982 33.8019 195.3 34.0444L196.639 37.8136ZM199.789 35.8788C200.696 34.9885 201.37 33.9076 201.83 32.6795L198.085 31.275C197.807 32.0166 197.434 32.5854 196.987 33.0246L199.789 35.8788ZM199.417 33.9028L203.627 35.0847L204.708 31.2335L200.498 30.0517L199.417 33.9028ZM202.258 32.5663C201.908 33.6933 201.326 34.6766 200.495 35.5367L203.372 38.3156C204.634 37.009 205.541 35.481 206.078 33.7519L202.258 32.5663ZM200.503 35.5285C199.674 36.3766 198.628 37.0648 197.326 37.5755L198.786 41.2995C200.561 40.6037 202.1 39.6177 203.364 38.3238L200.503 35.5285ZM197.339 37.5704C196.063 38.0602 194.582 38.3239 192.867 38.3239V42.3239C194.993 42.3239 196.971 41.9966 198.773 41.3046L197.339 37.5704ZM156.645 50.3693V11.3693H152.645V50.3693H156.645ZM154.645 13.3693H158.855V9.36932H154.645V13.3693ZM156.855 11.3693V15.875H160.855V11.3693H156.855ZM158.855 17.875H159.373V13.875H158.855V17.875ZM161.049 16.965C161.338 16.5216 161.754 15.9308 162.308 15.1832L159.096 12.7998C158.518 13.5787 158.048 14.2435 157.696 14.785L161.049 16.965ZM162.305 15.1874C162.678 14.6872 163.267 14.1679 164.158 13.6659L162.195 10.1807C160.944 10.8851 159.883 11.7447 159.099 12.7955L162.305 15.1874ZM164.165 13.6622C164.836 13.2809 165.916 13 167.571 13V9C165.533 9 163.684 9.33467 162.188 10.1844L164.165 13.6622ZM167.571 13C169.609 13 171.325 13.5038 172.79 14.4639L174.983 11.1184C172.804 9.69036 170.31 9 167.571 9V13ZM172.79 14.4639C174.268 15.4323 175.457 16.8221 176.34 18.7145L179.965 17.0241C178.804 14.5339 177.15 12.5384 174.983 11.1184L172.79 14.4639ZM176.34 18.7145C177.213 20.587 177.685 22.8716 177.685 25.625H181.685C181.685 22.42 181.135 19.5342 179.965 17.0241L176.34 18.7145ZM177.685 25.625C177.685 28.4053 177.212 30.7095 176.338 32.5948L179.967 34.2774C181.136 31.7554 181.685 28.8523 181.685 25.625H177.685ZM176.34 32.5909C175.455 34.4881 174.267 35.8876 172.796 36.8686L175.015 40.1968C177.163 38.7648 178.806 36.7667 179.965 34.2813L176.34 32.5909ZM172.804 36.8633C171.35 37.8223 169.654 38.3239 167.645 38.3239V42.3239C170.364 42.3239 172.841 41.6312 175.007 40.202L172.804 36.8633ZM167.645 38.3239C166.017 38.3239 164.929 38.0501 164.233 37.667L162.304 41.1711C163.8 41.9945 165.63 42.3239 167.645 42.3239V38.3239ZM164.248 37.6754C163.325 37.1565 162.715 36.6259 162.33 36.1203L159.148 38.5445C159.945 39.59 161.022 40.4505 162.289 41.1627L164.248 37.6754ZM162.339 36.1324C161.765 35.3669 161.349 34.7677 161.073 34.3223L157.672 36.4277C158.036 37.0164 158.531 37.7221 159.139 38.5324L162.339 36.1324ZM159.373 33.375H159.003V37.375H159.373V33.375ZM157.003 35.375V50.3693H161.003V35.375H157.003ZM159.003 48.3693H154.645V52.3693H159.003V48.3693ZM156.929 25.5511C156.929 27.8854 157.271 30.026 158.004 31.9362L161.739 30.5041C161.215 29.1398 160.929 27.5009 160.929 25.5511H156.929ZM158.005 31.941C158.746 33.858 159.867 35.4525 161.407 36.6309L163.838 33.4544C162.965 32.7861 162.252 31.8323 161.737 30.4994L158.005 31.941ZM161.417 36.6387C163.023 37.8515 164.942 38.4091 167.054 38.4091V34.4091C165.67 34.4091 164.634 34.0557 163.828 33.4465L161.417 36.6387ZM167.054 38.4091C169.244 38.4091 171.223 37.8244 172.853 36.5397L170.378 33.3978C169.571 34.0335 168.509 34.4091 167.054 34.4091V38.4091ZM172.855 36.5381C174.404 35.3147 175.529 33.6955 176.257 31.7578L172.513 30.3502C172.011 31.687 171.289 32.6777 170.376 33.3994L172.855 36.5381ZM176.254 31.7654C176.98 29.8583 177.327 27.7786 177.327 25.5511H173.327C173.327 27.3615 173.046 28.9504 172.516 30.3426L176.254 31.7654ZM177.327 25.5511C177.327 23.3507 176.987 21.3047 176.27 19.4411L172.537 20.877C173.051 22.2142 173.327 23.7629 173.327 25.5511H177.327ZM176.277 19.4584C175.557 17.5333 174.428 15.9339 172.863 14.7443L170.442 17.929C171.339 18.6106 172.044 19.5595 172.531 20.8598L176.277 19.4584ZM172.88 14.7579C171.245 13.4864 169.256 12.9148 167.054 12.9148V16.9148C168.546 16.9148 169.622 17.2911 170.424 17.9153L172.88 14.7579ZM167.054 12.9148C164.93 12.9148 163.001 13.4593 161.391 14.6589L163.78 17.8667C164.583 17.2689 165.633 16.9148 167.054 16.9148V12.9148ZM161.401 14.651C159.844 15.7955 158.718 17.3707 157.986 19.2749L161.719 20.7109C162.218 19.4143 162.915 18.5028 163.77 17.8745L161.401 14.651ZM157.988 19.2701C157.264 21.1372 156.929 23.2445 156.929 25.5511H160.929C160.929 23.623 161.21 22.0248 161.717 20.7157L157.988 19.2701ZM151.938 11.7364C151.647 9.27826 150.423 7.2997 148.353 5.94154L146.159 9.28573C147.241 9.99576 147.814 10.9225 147.966 12.2068L151.938 11.7364ZM148.353 5.94154C146.387 4.65142 144.053 4.0625 141.458 4.0625V8.0625C143.442 8.0625 144.973 8.50768 146.159 9.28573L148.353 5.94154ZM141.458 4.0625C139.571 4.0625 137.826 4.36768 136.271 5.03858L137.855 8.71142C138.811 8.29899 139.996 8.0625 141.458 8.0625V4.0625ZM136.264 5.04144C134.748 5.7018 133.478 6.64987 132.538 7.91942L135.753 10.2993C136.216 9.67304 136.891 9.13154 137.862 8.70856L136.264 5.04144ZM132.528 7.93303C131.582 9.23336 131.111 10.725 131.111 12.3409H135.111C135.111 11.5439 135.33 10.8812 135.763 10.2857L132.528 7.93303ZM131.111 12.3409C131.111 13.6785 131.434 14.9443 132.163 16.0475L135.5 13.8417C135.269 13.4922 135.111 13.0223 135.111 12.3409H131.111ZM132.185 16.0801C132.837 17.0263 133.666 17.81 134.65 18.4287L136.78 15.0429C136.237 14.7014 135.81 14.2909 135.478 13.8091L132.185 16.0801ZM134.67 18.441C135.545 18.9774 136.464 19.4229 137.425 19.7763L138.806 16.022C138.093 15.7599 137.411 15.4298 136.76 15.0306L134.67 18.441ZM137.45 19.7851C138.328 20.0949 139.15 20.3522 139.915 20.5535L140.933 16.6852C140.294 16.5171 139.578 16.2943 138.781 16.0132L137.45 19.7851ZM139.904 20.5506L143.745 21.5846L144.785 17.7222L140.944 16.6881L139.904 20.5506ZM143.757 21.5879C144.659 21.8248 145.687 22.1585 146.845 22.5955L148.258 18.8533C147.003 18.3794 145.839 17.999 144.772 17.7189L143.757 21.5879ZM146.851 22.5979C147.9 22.9898 148.91 23.5278 149.883 24.2194L152.201 20.9596C150.957 20.0755 149.64 19.37 148.252 18.851L146.851 22.5979ZM149.903 24.2339C150.778 24.8397 151.507 25.6216 152.093 26.6049L155.529 24.5571C154.663 23.1028 153.545 21.8904 152.18 20.9451L149.903 24.2339ZM152.093 26.6048C152.594 27.4454 152.901 28.5668 152.901 30.0682H156.901C156.901 28.0241 156.481 26.154 155.529 24.5571L152.093 26.6048ZM152.901 30.0682C152.901 31.7411 152.469 33.2066 151.617 34.5189L154.972 36.6971C156.262 34.7101 156.901 32.4824 156.901 30.0682H152.901ZM151.611 34.5277C150.784 35.8173 149.541 36.8978 147.782 37.7353L149.5 41.3471C151.828 40.2395 153.688 38.6979 154.978 36.6882L151.611 34.5277ZM147.777 37.7373C146.082 38.5489 143.926 39 141.236 39V43C144.357 43 147.137 42.4785 149.505 41.3451L147.777 37.7373ZM141.236 39C138.738 39 136.68 38.5966 135.008 37.859L133.394 41.5189C135.685 42.5294 138.317 43 141.236 43V39ZM135.012 37.8608C133.326 37.1129 132.069 36.1049 131.167 34.8594L127.928 37.206C129.29 39.0874 131.136 40.5169 133.389 41.517L135.012 37.8608ZM131.173 34.8678C130.285 33.6279 129.764 32.1724 129.64 30.4427L125.65 30.7277C125.822 33.1344 126.569 35.3105 127.921 37.1976L131.173 34.8678ZM127.645 32.5852H132.372V28.5852H127.645V32.5852ZM130.38 30.757C130.535 32.5526 131.157 34.1613 132.322 35.4643L135.303 32.7971C134.795 32.2289 134.457 31.4739 134.365 30.4135L130.38 30.757ZM132.341 35.4848C133.432 36.6706 134.789 37.5312 136.361 38.0852L137.691 34.3126C136.677 33.9555 135.893 33.4374 135.285 32.7766L132.341 35.4848ZM136.383 38.0926C137.913 38.6122 139.535 38.8636 141.236 38.8636V34.8636C139.933 34.8636 138.749 34.6719 137.669 34.3051L136.383 38.0926ZM141.236 38.8636C143.201 38.8636 145.033 38.545 146.699 37.8666L145.191 34.1618C144.075 34.616 142.768 34.8636 141.236 34.8636V38.8636ZM146.713 37.8608C148.368 37.1725 149.762 36.1834 150.816 34.8584L147.685 32.3689C147.114 33.0875 146.304 33.6987 145.177 34.1676L146.713 37.8608ZM150.823 34.8493C151.926 33.4449 152.469 31.7979 152.469 29.9943H148.469C148.469 30.9483 148.199 31.7142 147.678 32.378L150.823 34.8493ZM152.469 29.9943C152.469 28.3465 151.998 26.8203 150.91 25.5988L147.923 28.2592C148.239 28.6134 148.469 29.1308 148.469 29.9943H152.469ZM150.91 25.5988C149.982 24.5564 148.802 23.7585 147.437 23.1713L145.856 26.8458C146.781 27.2434 147.448 27.7258 147.923 28.2592L150.91 25.5988ZM147.437 23.1713C146.201 22.6396 144.878 22.1798 143.47 21.7889L142.4 25.6429C143.651 25.9906 144.803 26.3925 145.856 26.8458L147.437 23.1713ZM143.484 21.7929L138.831 20.4633L137.732 24.3094L142.386 25.639L143.484 21.7929ZM138.834 20.4642C136.086 19.6741 134.05 18.585 132.614 17.2725L129.915 20.2246C131.926 22.0637 134.568 23.3997 137.729 24.3085L138.834 20.4642ZM132.614 17.2725C131.345 16.1126 130.679 14.6065 130.679 12.5625H126.679C126.679 15.6151 127.737 18.233 129.915 20.2246L132.614 17.2725ZM130.679 12.5625C130.679 10.8286 131.14 9.40226 132.015 8.19832L128.779 5.84714C127.364 7.79471 126.679 10.0615 126.679 12.5625H130.679ZM132.013 8.20056C132.948 6.91726 134.214 5.89784 135.87 5.15382L134.23 1.50527C131.996 2.50936 130.16 3.95206 128.78 5.8449L132.013 8.20056ZM135.875 5.15145C137.543 4.39613 139.442 4 141.605 4V0C138.943 0 136.472 0.490238 134.225 1.50764L135.875 5.15145ZM141.605 4C143.802 4 145.675 4.39298 147.268 5.12734L148.943 1.49482C146.744 0.481072 144.284 0 141.605 0V4ZM147.278 5.13181C148.9 5.86915 150.119 6.84694 151.002 8.04383L154.221 5.66924C152.888 3.86234 151.103 2.47649 148.933 1.49035L147.278 5.13181ZM151.008 8.05233C151.879 9.21988 152.336 10.5284 152.385 12.0361L156.383 11.9071C156.308 9.59853 155.584 7.49698 154.214 5.66074L151.008 8.05233ZM154.384 9.97159H149.952V13.9716H154.384V9.97159ZM114.321 38.3977C112.781 38.3977 111.44 38.109 110.267 37.5666L108.589 41.1976C110.345 42.0094 112.267 42.3977 114.321 42.3977V38.3977ZM110.28 37.5725C109.13 37.0313 108.253 36.2762 107.602 35.2997L104.274 37.5185C105.346 39.1272 106.796 40.3541 108.576 41.1917L110.28 37.5725ZM107.607 35.307C106.998 34.3845 106.645 33.2087 106.645 31.6818H102.645C102.645 33.8481 103.155 35.8238 104.269 37.5112L107.607 35.307ZM106.645 31.6818C106.645 30.3041 106.918 29.3946 107.294 28.8012L103.916 26.659C103.012 28.0846 102.645 29.8096 102.645 31.6818H106.645ZM107.3 28.7919C107.755 28.0661 108.353 27.5051 109.123 27.0892L107.222 23.5699C105.849 24.3112 104.736 25.3505 103.911 26.6683L107.3 28.7919ZM109.123 27.0892C110.016 26.6067 111.02 26.2372 112.146 25.9906L111.29 22.0833C109.83 22.4029 108.471 22.8952 107.222 23.5699L109.123 27.0892ZM112.159 25.9876C113.404 25.7056 114.655 25.4826 115.91 25.3183L115.391 21.3521C114.013 21.5325 112.641 21.7773 111.276 22.0863L112.159 25.9876ZM115.906 25.3189C117.622 25.0983 119.001 24.9344 120.048 24.826L119.637 20.8473C118.543 20.9605 117.127 21.129 115.396 21.3516L115.906 25.3189ZM120.069 24.8239C121.22 24.6931 122.344 24.455 123.203 23.9611L121.209 20.4935C121.084 20.5658 120.632 20.734 119.617 20.8494L120.069 24.8239ZM123.185 23.9716C124.465 23.2537 124.963 21.9932 124.963 20.75H120.963C120.963 20.8665 120.942 20.835 120.994 20.7334C121.021 20.6821 121.058 20.6279 121.106 20.5786C121.154 20.5298 121.199 20.4994 121.228 20.483L123.185 23.9716ZM124.963 20.75V20.6023H120.963V20.75H124.963ZM124.963 20.6023C124.963 18.4103 124.354 16.4315 122.891 14.9496L120.045 17.7606C120.575 18.2977 120.963 19.1503 120.963 20.6023H124.963ZM122.899 14.9585C121.403 13.4245 119.295 12.8409 116.98 12.8409V16.8409C118.679 16.8409 119.563 17.2668 120.036 17.7518L122.899 14.9585ZM116.98 12.8409C114.629 12.8409 112.512 13.3543 110.866 14.6234L113.308 17.7914C114.025 17.2385 115.171 16.8409 116.98 16.8409V12.8409ZM110.866 14.6234C109.506 15.672 108.431 16.8815 107.78 18.2828L111.408 19.9672C111.718 19.3003 112.305 18.5647 113.308 17.7914L110.866 14.6234ZM110.267 17.2415L106.13 15.7642L104.785 19.5312L108.921 21.0085L110.267 17.2415ZM107.296 18.4356C107.928 16.9601 108.726 15.9139 109.642 15.1992L107.182 12.0452C105.636 13.2509 104.464 14.8884 103.619 16.8599L107.296 18.4356ZM109.644 15.1975C110.682 14.3862 111.79 13.836 112.979 13.5263L111.971 9.6555C110.23 10.109 108.63 10.9131 107.18 12.0468L109.644 15.1975ZM112.99 13.5234C114.311 13.1711 115.591 13 116.833 13V9C115.219 9 113.593 9.22282 111.959 9.65844L112.99 13.5234ZM116.833 13C117.588 13 118.507 13.0926 119.603 13.2981L120.341 9.36664C119.073 9.12902 117.899 9 116.833 9V13ZM119.627 13.3024C120.564 13.4666 121.485 13.8115 122.396 14.3584L124.454 10.9285C123.15 10.1459 121.768 9.61676 120.317 9.36241L119.627 13.3024ZM122.404 14.3634C123.168 14.8163 123.864 15.5331 124.461 16.6179L127.966 14.689C127.085 13.09 125.923 11.8002 124.446 10.9235L122.404 14.3634ZM124.461 16.6179C124.979 17.5575 125.321 18.9823 125.321 21.0455H129.321C129.321 18.6029 128.926 16.433 127.966 14.689L124.461 16.6179ZM125.321 21.0455V39.733H129.321V21.0455H125.321ZM127.321 37.733H122.963V41.733H127.321V37.733ZM124.963 39.733V35.892H120.963V39.733H124.963ZM122.963 33.892H122.742V37.892H122.963V33.892ZM120.939 35.0266C120.77 35.3775 120.435 35.8584 119.838 36.4663L122.691 39.2695C123.473 38.474 124.122 37.6377 124.545 36.7575L120.939 35.0266ZM119.838 36.4663C119.372 36.9406 118.691 37.4056 117.723 37.8218L119.303 41.4964C120.625 40.9277 121.778 40.1986 122.691 39.2695L119.838 36.4663ZM117.723 37.8218C116.894 38.1782 115.783 38.3977 114.321 38.3977V42.3977C116.159 42.3977 117.842 42.1248 119.303 41.4964L117.723 37.8218ZM114.986 38.483C116.967 38.483 118.784 38.0934 120.338 37.2027L118.35 33.732C117.541 34.1954 116.452 34.483 114.986 34.483V38.483ZM120.331 37.2071C121.803 36.3722 122.981 35.2504 123.783 33.8266L120.298 31.8637C119.893 32.582 119.273 33.2083 118.358 33.7275L120.331 37.2071ZM123.774 33.8417C124.556 32.4818 124.963 31.0136 124.963 29.4659H120.963C120.963 30.2819 120.756 31.0665 120.306 31.8486L123.774 33.8417ZM124.963 29.4659V25.4773H120.963V29.4659H124.963ZM121.427 24.1969C121.513 24.094 121.587 24.037 121.616 24.016C121.647 23.9939 121.654 23.9926 121.626 24.007C121.598 24.0207 121.549 24.0431 121.472 24.072C121.395 24.1007 121.299 24.133 121.18 24.1679L122.309 28.0054C122.692 27.8929 123.071 27.7567 123.415 27.5847C123.738 27.4229 124.159 27.1671 124.5 26.7576L121.427 24.1969ZM121.205 24.1607C120.676 24.3091 120.034 24.4487 119.274 24.5755L119.931 28.5211C120.796 28.377 121.583 28.2089 122.284 28.0126L121.205 24.1607ZM119.299 24.5715C118.514 24.6923 117.748 24.8008 117.002 24.8971L117.513 28.8642C118.294 28.7636 119.091 28.6505 119.907 28.525L119.299 24.5715ZM117.029 24.8937C116.273 24.9805 115.652 25.0558 115.168 25.1194L115.69 29.0852C116.143 29.0257 116.74 28.9532 117.485 28.8676L117.029 24.8937ZM115.171 25.1191C113.921 25.2821 112.734 25.5494 111.614 25.9275L112.893 29.7174C113.742 29.4307 114.672 29.2179 115.688 29.0855L115.171 25.1191ZM111.628 25.9227C110.382 26.3326 109.288 26.986 108.421 27.9235L111.358 30.639C111.698 30.2716 112.179 29.9524 112.878 29.7222L111.628 25.9227ZM108.42 27.9247C107.403 29.0267 107.003 30.4344 107.003 31.9034H111.003C111.003 31.1565 111.195 30.8161 111.359 30.6378L108.42 27.9247ZM107.003 31.9034C107.003 33.9886 107.819 35.7872 109.545 36.9825L111.822 33.6937C111.308 33.3378 111.003 32.8466 111.003 31.9034H107.003ZM109.566 36.9966C111.108 38.0358 112.96 38.483 114.986 38.483V34.483C113.541 34.483 112.524 34.1668 111.801 33.6795L109.566 36.9966ZM102.344 11.7955V15.4886H106.344V11.7955H102.344ZM104.344 13.4886H89.6452V17.4886H104.344V13.4886ZM91.6452 15.4886V11.7955H87.6452V15.4886H91.6452ZM89.6452 13.7955H104.344V9.79545H89.6452V13.7955ZM93.9293 7H98.2873V3H93.9293V7ZM96.2873 5V32.0341H100.287V5H96.2873ZM96.2873 32.0341C96.2873 33.393 96.4728 34.7385 97.0927 35.8074L100.553 33.8005C100.459 33.6384 100.287 33.1373 100.287 32.0341H96.2873ZM97.1171 35.8483C97.679 36.766 98.4757 37.508 99.5329 37.8987L100.919 34.1467C100.844 34.1189 100.705 34.0484 100.528 33.7597L97.1171 35.8483ZM99.5817 37.916C100.377 38.1869 101.205 38.3182 102.054 38.3182V34.3182C101.623 34.3182 101.232 34.2524 100.871 34.1294L99.5817 37.916ZM102.054 38.3182C102.59 38.3182 103.1 38.2915 103.552 38.2192L102.92 34.2694C102.757 34.2956 102.479 34.3182 102.054 34.3182V38.3182ZM103.628 38.2055C103.936 38.1439 104.182 38.0947 104.367 38.0578L103.583 34.1354C103.398 34.1724 103.152 34.2216 102.844 34.2832L103.628 38.2055ZM102.024 36.5382L102.911 40.453L106.812 39.5697L105.925 35.6549L102.024 36.5382ZM104.159 38.1387C104.002 38.1974 103.704 38.2838 103.214 38.3862L104.034 42.3013C104.603 42.1822 105.129 42.0469 105.563 41.884L104.159 38.1387ZM103.171 38.3957C102.844 38.4718 102.338 38.5284 101.611 38.5284V42.5284C102.509 42.5284 103.345 42.4619 104.077 42.2918L103.171 38.3957ZM101.611 38.5284C100.676 38.5284 99.7477 38.3294 98.8094 37.9091L97.1743 41.5596C98.5996 42.1981 100.084 42.5284 101.611 42.5284V38.5284ZM98.8165 37.9123C97.9798 37.5336 97.2794 36.9598 96.7004 36.1511L93.448 38.4796C94.4202 39.8375 95.6648 40.8764 97.1671 41.5564L98.8165 37.9123ZM96.7092 36.1634C96.2361 35.4919 95.9293 34.555 95.9293 33.2159H91.9293C91.9293 35.1761 92.3858 36.9721 93.4392 38.4672L96.7092 36.1634ZM95.9293 33.2159V5H91.9293V33.2159H95.9293ZM76.3214 38.3977C74.7806 38.3977 73.4404 38.109 72.267 37.5666L70.5888 41.1976C72.3453 42.0094 74.2674 42.3977 76.3214 42.3977V38.3977ZM72.2795 37.5725C71.1295 37.0313 70.2529 36.2762 69.602 35.2997L66.2738 37.5185C67.3463 39.1272 68.7963 40.3541 70.5763 41.1917L72.2795 37.5725ZM69.6068 35.307C68.9976 34.3845 68.6452 33.2087 68.6452 31.6818H64.6452C64.6452 33.8481 65.1546 35.8238 66.2689 37.5112L69.6068 35.307ZM68.6452 31.6818C68.6452 30.3041 68.9182 29.3946 69.2945 28.8012L65.9164 26.659C65.0125 28.0846 64.6452 29.8096 64.6452 31.6818H68.6452ZM69.3003 28.7919C69.755 28.0661 70.353 27.5051 71.1228 27.0892L69.2216 23.5699C67.8494 24.3112 66.7362 25.3505 65.9106 26.6683L69.3003 28.7919ZM71.1228 27.0892C72.0159 26.6067 73.0197 26.2372 74.1456 25.9906L73.2897 22.0833C71.8304 22.4029 70.4706 22.8952 69.2216 23.5699L71.1228 27.0892ZM74.1593 25.9876C75.4045 25.7056 76.6548 25.4826 77.9104 25.3183L77.3914 21.3521C76.0126 21.5325 74.6407 21.7773 73.276 22.0863L74.1593 25.9876ZM77.906 25.3189C79.6216 25.0983 81.0007 24.9344 82.0485 24.826L81.6369 20.8473C80.5426 20.9605 79.1271 21.129 77.3959 21.3516L77.906 25.3189ZM82.0685 24.8239C83.2195 24.6931 84.3442 24.455 85.2033 23.9611L83.2094 20.4935C83.0835 20.5658 82.6325 20.734 81.6169 20.8494L82.0685 24.8239ZM85.1848 23.9716C86.4645 23.2537 86.9634 21.9932 86.9634 20.75H82.9634C82.9634 20.8665 82.9422 20.835 82.9943 20.7334C83.0205 20.6821 83.0582 20.6279 83.1064 20.5786C83.154 20.5298 83.1986 20.4994 83.2278 20.483L85.1848 23.9716ZM86.9634 20.75V20.6023H82.9634V20.75H86.9634ZM86.9634 20.6023C86.9634 18.4103 86.3544 16.4315 84.8905 14.9496L82.0448 17.7606C82.5753 18.2977 82.9634 19.1503 82.9634 20.6023H86.9634ZM84.8992 14.9585C83.4027 13.4245 81.2953 12.8409 78.9805 12.8409V16.8409C80.6789 16.8409 81.563 17.2668 82.0361 17.7518L84.8992 14.9585ZM78.9805 12.8409C76.629 12.8409 74.5124 13.3543 72.866 14.6234L75.308 17.7914C76.0252 17.2385 77.171 16.8409 78.9805 16.8409V12.8409ZM72.866 14.6234C71.5056 15.672 70.4307 16.8815 69.7801 18.2828L73.4081 19.9672C73.7177 19.3003 74.3048 18.5647 75.308 17.7914L72.866 14.6234ZM72.2668 17.2415L68.1304 15.7642L66.7851 19.5312L70.9214 21.0085L72.2668 17.2415ZM69.296 18.4356C69.9284 16.9601 70.726 15.9139 71.6423 15.1992L69.1822 12.0452C67.6364 13.2509 66.4644 14.8884 65.6194 16.8599L69.296 18.4356ZM71.6445 15.1975C72.6818 14.3862 73.7901 13.836 74.979 13.5263L73.9706 9.6555C72.2296 10.109 70.6295 10.9131 69.1801 12.0468L71.6445 15.1975ZM74.9901 13.5234C76.3111 13.1711 77.5905 13 78.8327 13V9C77.2189 9 75.593 9.22282 73.9595 9.65844L74.9901 13.5234ZM78.8327 13C79.5881 13 80.507 13.0926 81.6034 13.2981L82.3405 9.36664C81.0732 9.12902 79.8993 9 78.8327 9V13ZM81.6267 13.3024C82.5637 13.4666 83.4845 13.8115 84.3961 14.3584L86.4541 10.9285C85.1497 10.1459 83.7685 9.61676 82.3172 9.36241L81.6267 13.3024ZM84.4044 14.3634C85.1676 14.8163 85.8642 15.5331 86.4613 16.6179L89.9655 14.689C89.0853 13.09 87.923 11.8002 86.4457 10.9235L84.4044 14.3634ZM86.4613 16.6179C86.9786 17.5575 87.3214 18.9823 87.3214 21.0455H91.3214C91.3214 18.6029 90.9255 16.433 89.9655 14.689L86.4613 16.6179ZM87.3214 21.0455V39.733H91.3214V21.0455H87.3214ZM89.3214 37.733H84.9634V41.733H89.3214V37.733ZM86.9634 39.733V35.892H82.9634V39.733H86.9634ZM84.9634 33.892H84.7418V37.892H84.9634V33.892ZM82.9388 35.0266C82.7703 35.3775 82.4351 35.8584 81.8379 36.4663L84.6912 39.2695C85.4728 38.474 86.1224 37.6377 86.5449 36.7575L82.9388 35.0266ZM81.8379 36.4663C81.3718 36.9406 80.6905 37.4056 79.7229 37.8218L81.3034 41.4964C82.6255 40.9277 83.7785 40.1986 84.6912 39.2695L81.8379 36.4663ZM79.7229 37.8218C78.8944 38.1782 77.7827 38.3977 76.3214 38.3977V42.3977C78.1592 42.3977 79.8421 42.1248 81.3034 41.4964L79.7229 37.8218ZM76.9861 38.483C78.9674 38.483 80.7836 38.0934 82.3383 37.2027L80.3499 33.732C79.541 34.1954 78.4519 34.483 76.9861 34.483V38.483ZM82.3306 37.2071C83.8031 36.3722 84.9808 35.2504 85.7827 33.8266L82.2975 31.8637C81.8929 32.582 81.2734 33.2083 80.3576 33.7275L82.3306 37.2071ZM85.7741 33.8417C86.5557 32.4818 86.9634 31.0136 86.9634 29.4659H82.9634C82.9634 30.2819 82.7556 31.0665 82.3061 31.8486L85.7741 33.8417ZM86.9634 29.4659V25.4773H82.9634V29.4659H86.9634ZM83.427 24.1969C83.5127 24.094 83.5868 24.037 83.6161 24.016C83.6468 23.9939 83.6545 23.9926 83.6258 24.007C83.5984 24.0207 83.5489 24.0431 83.4717 24.072C83.3953 24.1007 83.299 24.133 83.1803 24.1679L84.309 28.0054C84.6915 27.8929 85.0705 27.7567 85.4147 27.5847C85.7383 27.4229 86.1586 27.1671 86.4999 26.7576L83.427 24.1969ZM83.2054 24.1607C82.6755 24.3091 82.0344 24.4487 81.2738 24.5755L81.9314 28.5211C82.7958 28.377 83.5827 28.2089 84.2839 28.0126L83.2054 24.1607ZM81.2985 24.5715C80.5135 24.6923 79.7479 24.8008 79.0015 24.8971L79.5134 28.8642C80.2935 28.7636 81.0913 28.6505 81.9067 28.525L81.2985 24.5715ZM79.0294 24.8937C78.2732 24.9805 77.6517 25.0558 77.1684 25.1194L77.6902 29.0852C78.1426 29.0257 78.7398 28.9532 79.4855 28.8676L79.0294 24.8937ZM77.1706 25.1191C75.9211 25.2821 74.7337 25.5494 73.6136 25.9275L74.8927 29.7174C75.7424 29.4307 76.6724 29.2179 77.688 29.0855L77.1706 25.1191ZM73.628 25.9227C72.3825 26.3326 71.2878 26.986 70.421 27.9235L73.3581 30.639C73.6978 30.2716 74.1788 29.9524 74.8784 29.7222L73.628 25.9227ZM70.4199 27.9247C69.4027 29.0267 69.0032 30.4345 69.0032 31.9034H73.0032C73.0032 31.1565 73.1946 30.8161 73.3592 30.6378L70.4199 27.9247ZM69.0032 31.9034C69.0032 33.9886 69.8188 35.7872 71.5452 36.9825L73.822 33.6937C73.3079 33.3378 73.0032 32.8466 73.0032 31.9034H69.0032ZM71.5659 36.9966C73.1079 38.0358 74.9597 38.483 76.9861 38.483V34.483C75.541 34.483 74.5244 34.1668 73.8013 33.6795L71.5659 36.9966ZM45.8953 37.8182H34.2248V41.8182H45.8953V37.8182ZM34.2248 4H46.4123V0H34.2248V4ZM46.4123 4C49.8043 4 52.5809 4.69847 54.8263 6.00123L56.8336 2.54139C53.8593 0.815731 50.3575 0 46.4123 0V4ZM54.8324 6.00477C57.0831 7.29997 58.814 9.15763 60.0378 11.6379L63.6249 9.86783C62.0666 6.70979 59.7965 4.24643 56.8275 2.53785L54.8324 6.00477ZM60.0394 11.641C61.2638 14.1115 61.918 17.1535 61.918 20.8352H65.918C65.918 16.6875 65.1811 13.0078 63.6234 9.86471L60.0394 11.641ZM61.918 20.8352C61.918 24.5404 61.2581 27.6149 60.0194 30.1248L63.6064 31.895C65.1745 28.7175 65.918 25.0089 65.918 20.8352H61.918ZM60.0209 30.1218C58.7901 32.605 57.0221 34.4839 54.6934 35.8084L56.6711 39.2853C59.7098 37.5569 62.0289 35.0777 63.6049 31.8981L60.0209 30.1218ZM54.6994 35.805C52.381 37.1131 49.4756 37.8182 45.8953 37.8182V41.8182C49.9968 41.8182 53.616 41.0091 56.665 39.2887L54.6994 35.805ZM38.8044 37.7557H45.5998V33.7557H38.8044V37.7557ZM45.5998 37.7557C48.9746 37.7557 51.942 37.1053 54.3862 35.671L52.3617 32.2211C50.6942 33.1997 48.4789 33.7557 45.5998 33.7557V37.7557ZM54.3862 35.671C56.8082 34.2497 58.6186 32.2133 59.7937 29.6194L56.1502 27.9687C55.3064 29.8312 54.0515 31.2295 52.3617 32.2211L54.3862 35.671ZM59.7937 29.6194C60.9469 27.074 61.4862 24.1264 61.4862 20.8352H57.4862C57.4862 23.6994 57.016 26.0576 56.1502 27.9687L59.7937 29.6194ZM61.4862 20.8352C61.4862 17.57 60.9535 14.647 59.8126 12.1257L56.1683 13.7748C57.0218 15.6608 57.4862 17.9944 57.4862 20.8352H61.4862ZM59.8143 12.1296C58.6583 9.56073 56.8994 7.5392 54.546 6.13589L52.4974 9.5715C54.108 10.5318 55.3283 11.908 56.1666 13.771L59.8143 12.1296ZM54.5538 6.14059C52.185 4.71344 49.336 4.0625 46.1169 4.0625V8.0625C48.8069 8.0625 50.8943 8.60569 52.4896 9.5668L54.5538 6.14059ZM46.1169 4.0625H38.8044V8.0625H46.1169V4.0625ZM36.8044 6.0625V35.7557H40.8044V6.0625H36.8044ZM36.2248 13.7443V2H32.2248V13.7443H36.2248ZM36.2248 20.2857V13.7443H32.2248V20.2857H36.2248ZM36.2248 39.8182V27.0519H32.2248V39.8182H36.2248ZM36.2248 27.0519V20.2857H32.2248V27.0519H36.2248Z" fill="#94241E" mask="url(#path-1-outside-1_94_35)"/>
<defs>
<linearGradient id="paint0_linear_94_35" x1="127.342" y1="2" x2="127.342" y2="50.3693" gradientUnits="userSpaceOnUse">
<stop stop-color="#343434"/>
<stop offset="1" stop-color="#94241E"/>
</linearGradient>
<linearGradient id="paint1_linear_94_35" x1="127.342" y1="2" x2="127.342" y2="50.3693" gradientUnits="userSpaceOnUse">
<stop stop-color="#343434"/>
<stop offset="1" stop-color="#94241E"/>
</linearGradient>
<linearGradient id="paint2_linear_94_35" x1="127.342" y1="2" x2="127.342" y2="50.3693" gradientUnits="userSpaceOnUse">
<stop stop-color="#343434"/>
<stop offset="1" stop-color="#94241E"/>
</linearGradient>
<linearGradient id="paint3_linear_94_35" x1="127.342" y1="2" x2="127.342" y2="50.3693" gradientUnits="userSpaceOnUse">
<stop stop-color="#343434"/>
<stop offset="1" stop-color="#94241E"/>
</linearGradient>
<linearGradient id="paint4_linear_94_35" x1="127.342" y1="2" x2="127.342" y2="50.3693" gradientUnits="userSpaceOnUse">
<stop stop-color="#343434"/>
<stop offset="1" stop-color="#94241E"/>
</linearGradient>
<linearGradient id="paint5_linear_94_35" x1="127.342" y1="2" x2="127.342" y2="50.3693" gradientUnits="userSpaceOnUse">
<stop stop-color="#343434"/>
<stop offset="1" stop-color="#94241E"/>
</linearGradient>
<linearGradient id="paint6_linear_94_35" x1="127.342" y1="2" x2="127.342" y2="50.3693" gradientUnits="userSpaceOnUse">
<stop stop-color="#343434"/>
<stop offset="1" stop-color="#94241E"/>
</linearGradient>
<linearGradient id="paint7_linear_94_35" x1="127.342" y1="2" x2="127.342" y2="50.3693" gradientUnits="userSpaceOnUse">
<stop stop-color="#343434"/>
<stop offset="1" stop-color="#94241E"/>
</linearGradient>
</defs>
</svg>
