<?xml version="1.0" encoding="UTF-8"?>
<svg version="1.1" xmlns="http://www.w3.org/2000/svg" width="621" height="674">
<path d="M0 0 C204.93 0 409.86 0 621 0 C621 222.42 621 444.84 621 674 C416.07 674 211.14 674 0 674 C0 451.58 0 229.16 0 0 Z " fill="#ED1C25" transform="translate(0,0)"/>
<path d="M0 0 C1.24201172 -0.01224609 2.48402344 -0.02449219 3.76367188 -0.03710938 C13.64003203 -0.05264639 23.3927624 0.57287982 32.6875 4.1875 C32.6875 4.8475 32.6875 5.5075 32.6875 6.1875 C33.55375 6.31125 34.42 6.435 35.3125 6.5625 C38.58263853 7.16808121 41.56006899 8.07056035 44.6875 9.1875 C44.6875 9.8475 44.6875 10.5075 44.6875 11.1875 C46.0178125 11.55875 46.0178125 11.55875 47.375 11.9375 C50.9239669 13.27673279 52.85010545 14.68789052 55.6875 17.1875 C56.27273438 17.6825 56.85796875 18.1775 57.4609375 18.6875 C59.56883665 20.48712931 61.63216158 22.32808413 63.6875 24.1875 C64.42484375 24.84621094 65.1621875 25.50492188 65.921875 26.18359375 C73.75481375 33.54385517 80.69241103 42.21387999 81.6875 53.1875 C82.3475 53.1875 83.0075 53.1875 83.6875 53.1875 C86.18601807 62.80816529 87.14319792 71.64596564 87.02368164 81.53100586 C86.99973986 83.64800213 87.00319607 85.76375866 87.00976562 87.88085938 C86.98350532 94.3493327 86.67212348 99.96612874 84.6875 106.1875 C84.36910156 107.31929688 84.05070313 108.45109375 83.72265625 109.6171875 C81.86391251 116.20117134 79.91776776 122.7197235 77.6875 129.1875 C77.0275 129.1875 76.3675 129.1875 75.6875 129.1875 C75.55609619 129.77176758 75.42469238 130.35603516 75.28930664 130.95800781 C74.7182946 133.07341632 73.9954142 134.8835355 73.05859375 136.859375 C72.74599609 137.52324219 72.43339844 138.18710938 72.11132812 138.87109375 C71.78583984 139.55300781 71.46035156 140.23492187 71.125 140.9375 C70.79564453 141.63488281 70.46628906 142.33226562 70.12695312 143.05078125 C69.31702288 144.7645467 68.50269362 146.47623194 67.6875 148.1875 C67.0275 148.1875 66.3675 148.1875 65.6875 148.1875 C65.419375 149.21875 65.15125 150.25 64.875 151.3125 C63.87751103 154.8360042 62.4213102 157.95630827 60.6875 161.1875 C60.0275 161.1875 59.3675 161.1875 58.6875 161.1875 C58.33171875 161.99960937 58.33171875 161.99960937 57.96875 162.828125 C56.34402243 165.82000137 54.3373123 168.29909399 52.1875 170.9375 C51.3934375 171.92234375 50.599375 172.9071875 49.78125 173.921875 C49.0903125 174.66953125 48.399375 175.4171875 47.6875 176.1875 C47.0275 176.1875 46.3675 176.1875 45.6875 176.1875 C45.44128906 176.75823242 45.19507813 177.32896484 44.94140625 177.91699219 C43.47851003 180.5659281 41.76104681 182.37298546 39.625 184.515625 C38.82835937 185.31484375 38.03171875 186.1140625 37.2109375 186.9375 C36.37820313 187.7625 35.54546875 188.5875 34.6875 189.4375 C33.85476563 190.27796875 33.02203125 191.1184375 32.1640625 191.984375 C31.36742187 192.7784375 30.57078125 193.5725 29.75 194.390625 C29.01910156 195.11926758 28.28820312 195.84791016 27.53515625 196.59863281 C25.6875 198.1875 25.6875 198.1875 23.6875 198.1875 C23.6875 198.8475 23.6875 199.5075 23.6875 200.1875 C22.2265625 201.6953125 22.2265625 201.6953125 20.3125 203.3125 C19.68601562 203.85132813 19.05953125 204.39015625 18.4140625 204.9453125 C16.6875 206.1875 16.6875 206.1875 14.6875 206.1875 C14.6875 206.8475 14.6875 207.5075 14.6875 208.1875 C12.74609375 209.73828125 12.74609375 209.73828125 10.125 211.5 C9.2175 212.11875 8.31 212.7375 7.375 213.375 C6.488125 213.973125 5.60125 214.57125 4.6875 215.1875 C0.01946568 218.06008432 0.01946568 218.06008432 -3.3125 222.1875 C-5.08984375 223.2578125 -5.08984375 223.2578125 -7.25 224.3125 C-8.31541016 224.84230469 -8.31541016 224.84230469 -9.40234375 225.3828125 C-11.3125 226.1875 -11.3125 226.1875 -13.3125 226.1875 C-13.3125 226.8475 -13.3125 227.5075 -13.3125 228.1875 C-14.22 228.620625 -15.1275 229.05375 -16.0625 229.5 C-19.24024872 231.03730836 -19.24024872 231.03730836 -21.5625 232.875 C-23.3125 234.1875 -23.3125 234.1875 -25.3125 234.1875 C-25.3125 234.8475 -25.3125 235.5075 -25.3125 236.1875 C-25.96476563 236.50203125 -26.61703125 236.8165625 -27.2890625 237.140625 C-32.21247137 239.55149778 -36.77646057 242.09474584 -41.3125 245.1875 C-45.14907227 247.33598047 -46.85283067 248.1875 -51.3125 248.1875 C-51.3125 248.8475 -51.3125 249.5075 -51.3125 250.1875 C-54.95416404 251.59540035 -58.62713029 252.89865004 -62.3125 254.1875 C-62.92335449 254.41195801 -63.53420898 254.63641602 -64.16357422 254.86767578 C-72.94111782 258.05162125 -81.0703934 259.65136527 -90.4375 259.6875 C-91.31390137 259.69362305 -92.19030273 259.69974609 -93.09326172 259.70605469 C-101.55155057 259.540174 -107.14014829 256.93900955 -113.3125 251.1875 C-116.3125 247.6875 -116.3125 247.6875 -116.3125 245.1875 C-116.9725 245.1875 -117.6325 245.1875 -118.3125 245.1875 C-121.2509489 238.64733027 -121.69145557 233.30571985 -121.5 226.1875 C-121.47969727 224.73923828 -121.47969727 224.73923828 -121.45898438 223.26171875 C-121.42395458 220.90304575 -121.37484084 218.54558229 -121.3125 216.1875 C-120.6525 216.1875 -119.9925 216.1875 -119.3125 216.1875 C-118.9825 212.8875 -118.6525 209.5875 -118.3125 206.1875 C-117.6525 206.1875 -116.9925 206.1875 -116.3125 206.1875 C-116.3125 205.1975 -116.3125 204.2075 -116.3125 203.1875 C-115.6525 203.1875 -114.9925 203.1875 -114.3125 203.1875 C-114.0340625 201.269375 -114.0340625 201.269375 -113.75 199.3125 C-111.78657822 190.50475583 -104.78680521 182.30307062 -98.3125 176.1875 C-97.6525 176.1875 -96.9925 176.1875 -96.3125 176.1875 C-95.9825 175.1975 -95.6525 174.2075 -95.3125 173.1875 C-91.86805556 170.1875 -91.86805556 170.1875 -89.3125 170.1875 C-89.3125 169.5275 -89.3125 168.8675 -89.3125 168.1875 C-88.04558493 167.51341692 -86.77379251 166.84849503 -85.5 166.1875 C-84.79230469 165.81625 -84.08460938 165.445 -83.35546875 165.0625 C-81.3125 164.1875 -81.3125 164.1875 -78.3125 164.1875 C-78.3125 163.5275 -78.3125 162.8675 -78.3125 162.1875 C-70.14302557 160.33216149 -61.73123446 159.90746089 -54.3125 164.1875 C-45.89915264 169.69862845 -45.89915264 169.69862845 -44.3125 174.1875 C-44.1171875 177.203125 -44.1171875 177.203125 -44.1875 180.4375 C-44.20554687 181.51515625 -44.22359375 182.5928125 -44.2421875 183.703125 C-44.26539063 184.52296875 -44.28859375 185.3428125 -44.3125 186.1875 C-44.9725 186.1875 -45.6325 186.1875 -46.3125 186.1875 C-46.3125 187.1775 -46.3125 188.1675 -46.3125 189.1875 C-46.9725 189.1875 -47.6325 189.1875 -48.3125 189.1875 C-48.4038623 189.76709473 -48.49522461 190.34668945 -48.58935547 190.94384766 C-49.49308935 193.74780253 -50.78989996 195.0225528 -52.8828125 197.0859375 C-53.615 197.81296875 -54.3471875 198.54 -55.1015625 199.2890625 C-55.87242187 200.03929687 -56.64328125 200.78953125 -57.4375 201.5625 C-58.55898438 202.67625 -58.55898438 202.67625 -59.703125 203.8125 C-63.09606085 207.15814754 -66.51569735 210.41087472 -70.16796875 213.47265625 C-72.6321465 215.54551464 -74.64232922 217.59696284 -76.5 220.25 C-78.13850977 222.56319026 -79.71796928 224.6368038 -81.625 226.75 C-83.81780647 229.91738712 -84.17099055 232.36674494 -84.3125 236.1875 C-83.6525 237.1775 -82.9925 238.1675 -82.3125 239.1875 C-78.0225 238.8575 -73.7325 238.5275 -69.3125 238.1875 C-69.3125 237.5275 -69.3125 236.8675 -69.3125 236.1875 C-68.63703125 235.93355469 -67.9615625 235.67960938 -67.265625 235.41796875 C-66.37359375 235.07378906 -65.4815625 234.72960937 -64.5625 234.375 C-63.68078125 234.03855469 -62.7990625 233.70210937 -61.890625 233.35546875 C-59.37183399 232.2143801 -57.48899223 230.87120154 -55.3125 229.1875 C-53.69396054 228.52687165 -52.0750418 227.86713638 -50.453125 227.21484375 C-46.63818889 225.38395288 -43.18409092 222.95574609 -39.66796875 220.61328125 C-37.3125 219.1875 -37.3125 219.1875 -35.3125 219.1875 C-35.3125 218.5275 -35.3125 217.8675 -35.3125 217.1875 C-33.75898157 215.9344687 -32.14099077 214.76107053 -30.5 213.625 C-20.28372085 206.53404723 -11.18750662 198.39430886 -2.44848633 189.58422852 C-0.85917227 187.98406422 0.74073618 186.39504279 2.34179688 184.80664062 C3.37303861 183.77407905 4.40366072 182.7408982 5.43359375 181.70703125 C6.80535767 180.33188354 6.80535767 180.33188354 8.20483398 178.92895508 C10.05261019 176.88856969 11.43953645 175.12764102 12.89086914 172.8425293 C13.48375732 171.96636963 14.07664551 171.09020996 14.6875 170.1875 C15.3475 170.1875 16.0075 170.1875 16.6875 170.1875 C16.92726563 169.49269531 17.16703125 168.79789063 17.4140625 168.08203125 C18.90399096 164.69541473 20.90213445 161.85225515 23.0625 158.875 C26.42179608 154.14971095 29.30191954 149.47726536 31.6875 144.1875 C32.3475 144.1875 33.0075 144.1875 33.6875 144.1875 C33.77 143.23875 33.8525 142.29 33.9375 141.3125 C34.52188298 137.09291116 36.08082435 133.41631999 37.75 129.51953125 C39.91787292 124.12694736 39.87083397 119.11995742 39.875 113.375 C39.88724609 112.49779297 39.89949219 111.62058594 39.91210938 110.71679688 C39.92971506 102.87053135 38.93867466 96.38119319 33.6875 90.1875 C27.21446879 85.08878539 20.73256452 84.31813704 12.6875 84.1875 C11.84832031 84.17203125 11.00914062 84.1565625 10.14453125 84.140625 C8.32549931 84.1277469 6.50624125 84.15252421 4.6875 84.1875 C4.6875 84.8475 4.6875 85.5075 4.6875 86.1875 C2.41800898 86.85905349 0.1471039 87.5248963 -2.125 88.1875 C-4.02185547 88.744375 -4.02185547 88.744375 -5.95703125 89.3125 C-9.3125 90.1875 -9.3125 90.1875 -12.3125 90.1875 C-12.3125 90.8475 -12.3125 91.5075 -12.3125 92.1875 C-13.3025 92.1875 -14.2925 92.1875 -15.3125 92.1875 C-15.3125 92.8475 -15.3125 93.5075 -15.3125 94.1875 C-16.9357687 94.8583712 -18.56117578 95.52407029 -20.1875 96.1875 C-21.09242188 96.55875 -21.99734375 96.93 -22.9296875 97.3125 C-25.3125 98.1875 -25.3125 98.1875 -27.3125 98.1875 C-27.3125 98.8475 -27.3125 99.5075 -27.3125 100.1875 C-30.2825 100.6825 -30.2825 100.6825 -33.3125 101.1875 C-33.3125 101.8475 -33.3125 102.5075 -33.3125 103.1875 C-39.0625 106.1875 -39.0625 106.1875 -41.3125 106.1875 C-41.3125 106.8475 -41.3125 107.5075 -41.3125 108.1875 C-42.405625 108.6825 -43.49875 109.1775 -44.625 109.6875 C-49.34197952 112.02932199 -53.37702576 115.09999719 -57.5859375 118.2421875 C-60.62480308 120.41031796 -63.74558814 122.15578691 -67.04296875 123.890625 C-70.60708293 125.92726167 -73.85882226 128.38309546 -77.1484375 130.83203125 C-79.3125 132.1875 -79.3125 132.1875 -82.3125 132.1875 C-82.3125 132.8475 -82.3125 133.5075 -82.3125 134.1875 C-84.2925 134.5175 -86.2725 134.8475 -88.3125 135.1875 C-88.6425 136.1775 -88.9725 137.1675 -89.3125 138.1875 C-90.9625 138.5175 -92.6125 138.8475 -94.3125 139.1875 C-94.3125 139.8475 -94.3125 140.5075 -94.3125 141.1875 C-97.64153932 142.34607429 -100.97638421 143.48697919 -104.3125 144.625 C-105.24707031 144.95048828 -106.18164062 145.27597656 -107.14453125 145.61132812 C-120.11372101 150.00996941 -134.03104602 150.91562743 -147.3125 147.1875 C-147.3125 146.5275 -147.3125 145.8675 -147.3125 145.1875 C-147.993125 145.14625 -148.67375 145.105 -149.375 145.0625 C-153.55506981 143.81737282 -156.49875099 141.5099494 -159.3125 138.1875 C-159.75 135.3125 -159.75 135.3125 -159.3125 133.1875 C-159.9725 133.1875 -160.6325 133.1875 -161.3125 133.1875 C-163.99867179 127.04464926 -164.73088696 122.16707136 -164.5625 115.5 C-164.55734375 114.67177734 -164.5521875 113.84355469 -164.546875 112.99023438 C-164.49498413 108.9395034 -164.31010494 105.13769376 -163.3125 101.1875 C-162.6525 101.1875 -161.9925 101.1875 -161.3125 101.1875 C-161.209375 100.3625 -161.10625 99.5375 -161 98.6875 C-160.19603944 94.59460988 -158.84897842 91.06209775 -157.3125 87.1875 C-156.6525 87.1875 -155.9925 87.1875 -155.3125 87.1875 C-155.085625 86.34960938 -154.85875 85.51171875 -154.625 84.6484375 C-153.05942799 80.5201732 -150.90187512 77.35624481 -148.3125 73.8125 C-147.86132812 73.17183594 -147.41015625 72.53117187 -146.9453125 71.87109375 C-145.79013446 70.26819878 -144.55698754 68.72208767 -143.3125 67.1875 C-142.6525 67.1875 -141.9925 67.1875 -141.3125 67.1875 C-141.05339844 66.60742188 -140.79429687 66.02734375 -140.52734375 65.4296875 C-134.60394323 54.49710904 -121.12817964 47.19933553 -111.3125 40.1875 C-110.27738281 39.43597656 -109.24226563 38.68445313 -108.17578125 37.91015625 C-94.62363239 28.1875 -94.62363239 28.1875 -89.3125 28.1875 C-89.3125 27.5275 -89.3125 26.8675 -89.3125 26.1875 C-69.9369851 15.49337976 -50.43487582 8.09886641 -29 2.5 C-28.11699219 2.26925781 -27.23398437 2.03851563 -26.32421875 1.80078125 C-17.59601173 0.02344208 -8.88275908 0.00456697 0 0 Z " fill="#FEFCFC" transform="translate(363.3125,63.8125)"/>
<path d="M0 0 C17.95607058 -0.65032046 33.28170633 0.35422812 47.3046875 13.09375 C49 15 49 15 49 17 C49.66 17 50.32 17 51 17 C51.62867668 18.37332284 52.25273891 19.74875833 52.875 21.125 C53.22304687 21.89070313 53.57109375 22.65640625 53.9296875 23.4453125 C56.25020935 28.98407634 57.31068297 33.80466448 57.36987305 39.80615234 C57.38462173 40.56471024 57.39937042 41.32326813 57.41456604 42.10481262 C57.4588484 44.59850824 57.4872503 47.09197234 57.51171875 49.5859375 C57.52111795 50.44202229 57.53051716 51.29810707 57.54020119 52.18013382 C57.58765437 56.70860809 57.62138599 61.23696847 57.64526367 65.765625 C57.6730013 70.42910244 57.75223213 75.09024102 57.84280682 79.75285912 C57.90273749 83.35268455 57.92254072 86.95195548 57.93177223 90.55223465 C57.94332026 92.27068711 57.97007668 93.98911064 58.01270103 95.70707321 C58.32327707 109.00933269 58.32327707 109.00933269 55.1078186 113.84649658 C51.30042465 117.41471018 48.19437181 119.25529983 43 120 C43 120.66 43 121.32 43 122 C36.20465004 125.50468837 30.03010882 127.65278169 22.43359375 128.640625 C19.99803325 128.87108738 19.99803325 128.87108738 18 130 C16.02663731 130.09722806 14.04997416 130.13076584 12.07421875 130.1328125 C10.29047852 130.13474609 10.29047852 130.13474609 8.47070312 130.13671875 C7.22224609 130.13285156 5.97378906 130.12898437 4.6875 130.125 C3.45064453 130.12886719 2.21378906 130.13273438 0.93945312 130.13671875 C-0.25357422 130.13542969 -1.44660156 130.13414062 -2.67578125 130.1328125 C-3.76802002 130.13168457 -4.86025879 130.13055664 -5.9855957 130.12939453 C-8.77141506 130.0098121 -11.28990293 129.63312092 -14 129 C-14 128.34 -14 127.68 -14 127 C-14.53625 126.896875 -15.0725 126.79375 -15.625 126.6875 C-26.22050438 123.62038031 -32.13571689 115.79642466 -38 107 C-38 106.01 -38 105.02 -38 104 C-38.66 104 -39.32 104 -40 104 C-42.4536219 98.2313783 -43.55283023 93.50699628 -43.5 87.25 C-43.49500488 86.4657666 -43.49000977 85.6815332 -43.48486328 84.87353516 C-43.17888374 74.58207163 -39.1068984 65.47002459 -32 58 C-28.31748761 54.73391362 -25.02598199 52.45690745 -20 52 C-20 51.34 -20 50.68 -20 50 C-18.71390795 49.5060661 -17.42058372 49.03097231 -16.125 48.5625 C-15.40570313 48.29566406 -14.68640625 48.02882813 -13.9453125 47.75390625 C-5.27797789 45.53534447 3.74332261 45.87314002 12.625 45.9375 C14.41744141 45.94426758 14.41744141 45.94426758 16.24609375 45.95117188 C19.16411647 45.96284397 22.08203037 45.97921674 25 46 C24.88389055 44.074879 24.7551597 42.1505164 24.62109375 40.2265625 C24.55075928 39.15486816 24.4804248 38.08317383 24.40795898 36.97900391 C23.72715766 32.00764677 21.50600432 29.50600432 18 26 C5.73152627 22.71569356 -8.77972441 25.351698 -20 31 C-20.99 31 -21.98 31 -23 31 C-23 31.66 -23 32.32 -23 33 C-23.99 33 -24.98 33 -26 33 C-27.20429601 30.44424962 -28.38840747 27.88208536 -29.5625 25.3125 C-29.90474609 24.59126953 -30.24699219 23.87003906 -30.59960938 23.12695312 C-32.03905717 19.94272012 -33.00977887 17.6542955 -32.95703125 14.125 C-31.75711628 11.46069901 -30.76998938 10.8646656 -28.125 9.6875 C-27.42632812 9.36136719 -26.72765625 9.03523438 -26.0078125 8.69921875 C-24 8 -24 8 -21 8 C-21 7.34 -21 6.68 -21 6 C-14.04931961 3.20919651 -7.45491562 2.36580804 0 2 C0 1.34 0 0.68 0 0 Z " fill="#FEFBFA" transform="translate(118,434)"/>
<path d="M0 0 C1.40765625 -0.01836914 1.40765625 -0.01836914 2.84375 -0.03710938 C15.56344482 -0.06346233 24.65638667 2.35965846 34.1328125 11.0703125 C39.65080216 16.58830216 43.25 22.18546469 43.25 30.1875 C43.91 30.1875 44.57 30.1875 45.25 30.1875 C47.8154894 43.04721732 49.25 54.95188114 49.25 68.1875 C26.81 68.1875 4.37 68.1875 -18.75 68.1875 C-17.82658005 80.2878537 -17.82658005 80.2878537 -15.75 92.1875 C-15.09 92.1875 -14.43 92.1875 -13.75 92.1875 C-13.151875 93.280625 -12.55375 94.37375 -11.9375 95.5 C-9.34306764 100.2381445 -9.34306764 100.2381445 -4.78515625 102.8046875 C-2.78606632 103.31763501 -0.76852023 103.75732356 1.25 104.1875 C1.25 104.8475 1.25 105.5075 1.25 106.1875 C4.29355008 105.93135965 7.33394275 105.65814829 10.375 105.375 C11.2309375 105.30474609 12.086875 105.23449219 12.96875 105.16210938 C18.06354075 104.67222565 21.73378561 103.75593187 26.25 101.1875 C27.77996236 100.65275587 29.32127762 100.14867555 30.875 99.6875 C34.21106043 98.62958822 36.51156772 97.39931068 39.25 95.1875 C40.24 95.1875 41.23 95.1875 42.25 95.1875 C42.49234375 95.99574219 42.7346875 96.80398438 42.984375 97.63671875 C44.75601904 103.28553762 46.22164558 107.72753618 50.25 112.1875 C50.25 113.1775 50.25 114.1675 50.25 115.1875 C43.35181291 120.37618872 35.39942958 123.55522095 27.25 126.1875 C26.198125 126.579375 25.14625 126.97125 24.0625 127.375 C17.57413091 129.24941774 10.95279408 129.34681465 4.25 129.3125 C3.49460937 129.31636719 2.73921875 129.32023438 1.9609375 129.32421875 C-3.02571793 129.31565061 -7.8134292 128.89432718 -12.75 128.1875 C-12.75 127.5275 -12.75 126.8675 -12.75 126.1875 C-13.86375 126.166875 -14.9775 126.14625 -16.125 126.125 C-25.81901877 124.87471136 -33.04105179 116.49249825 -38.75 109.1875 C-42.80015893 103.79647213 -45.69053429 98.59930324 -47.75 92.1875 C-48.12125 91.23875 -48.4925 90.29 -48.875 89.3125 C-54.9966238 67.44955786 -51.56912936 39.95044296 -40.75 20.1875 C-40.09 20.1875 -39.43 20.1875 -38.75 20.1875 C-38.5025 19.630625 -38.255 19.07375 -38 18.5 C-33.59461231 10.35003278 -25.23154929 4.65722471 -16.75 1.1875 C-11.19222431 -0.05431551 -5.66474016 0.00382753 0 0 Z " fill="#FEFBFA" transform="translate(452.75,435.8125)"/>
<path d="M0 0 C3.3 0 6.6 0 10 0 C10 11.22 10 22.44 10 34 C16.93 34 23.86 34 31 34 C31 41.92 31 49.84 31 58 C24.07 58 17.14 58 10 58 C10.063028 66.87580446 10.13853106 75.75126585 10.23571491 84.62676334 C10.28035347 88.74846994 10.31962368 92.87007919 10.34643555 96.99194336 C10.37253391 100.97326569 10.41298178 104.95421207 10.46318626 108.93530083 C10.47981099 110.45060979 10.49135256 111.96598371 10.49761391 113.48137093 C10.50730342 115.61175642 10.53541756 117.74118961 10.56762695 119.87133789 C10.58428154 121.68668785 10.58428154 121.68668785 10.60127258 123.53871155 C11.14448305 128.25423409 12.42691293 132.3399059 15.765625 135.86328125 C20.44207599 138.24238481 25.86479194 138.33242295 31 139 C31 145.6 31 152.2 31 159 C25.89830021 159.72881426 21.46639724 160.13536944 16.375 160.125 C15.10398437 160.12757813 13.83296875 160.13015625 12.5234375 160.1328125 C9.53591973 160.02020097 6.89619112 159.69908062 4 159 C4 158.34 4 157.68 4 157 C3.40832031 156.96261719 2.81664062 156.92523437 2.20703125 156.88671875 C-7.05400332 156.11622485 -12.0387242 151.99353135 -18 145 C-20.63463844 140.82994313 -21.36016382 136.92223886 -21 132 C-21.66 132 -22.32 132 -23 132 C-23 90.09 -23 48.18 -23 5 C-19.62850967 3.31425483 -18.2202855 2.72597908 -14.70703125 2.40234375 C-13.91232422 2.32306641 -13.11761719 2.24378906 -12.29882812 2.16210938 C-11.47833984 2.08798828 -10.65785156 2.01386719 -9.8125 1.9375 C-4.48037113 1.90607242 -4.48037113 1.90607242 0 0 Z " fill="#FEFCFB" transform="translate(360,403)"/>
<path d="M0 0 C0.00331015 0.67052997 0.00662029 1.34105993 0.01003075 2.03190899 C0.09125684 18.34860883 0.183348 34.6652075 0.28752708 50.98177624 C0.33764543 58.8723526 0.38408843 66.76291861 0.421875 74.65356445 C0.45481971 81.53117955 0.49466464 88.40871416 0.54279006 95.2862404 C0.56803043 98.92771797 0.58981895 102.56914232 0.60334396 106.21068382 C0.61857309 110.27623431 0.64920734 114.34152891 0.68115234 118.40698242 C0.68331253 119.61395279 0.68547272 120.82092316 0.68769836 122.06446838 C0.69886185 123.17359589 0.71002533 124.28272339 0.7215271 125.42546082 C0.72705786 126.3868909 0.73258862 127.34832098 0.73828697 128.33888531 C1.02395292 131.24355485 1.69633544 133.39396512 3 136 C3.66 136.33 4.32 136.66 5 137 C5 137.66 5 138.32 5 139 C9.95 139.33 14.9 139.66 20 140 C20 146.6 20 153.2 20 160 C10.83549529 163.66580189 -1.09344566 163.15634867 -10.50390625 160.10546875 C-18.04813739 156.76428344 -23.87320578 152.15310998 -28 145 C-28 144.01 -28 143.02 -28 142 C-28.66 142 -29.32 142 -30 142 C-32.65872496 133.92938073 -33.42076591 126.6503346 -33.34057617 118.18481445 C-33.34101425 116.95425827 -33.34145233 115.72370209 -33.34190369 114.45585632 C-33.34018526 111.1175465 -33.32525474 107.77980963 -33.30418181 104.44160104 C-33.28528771 100.9396158 -33.28365463 97.437621 -33.28010559 93.93559265 C-33.27082219 87.32018406 -33.24625928 80.70492615 -33.21605712 74.08958358 C-33.18239692 66.55140378 -33.16599805 59.01321637 -33.15097082 51.47498 C-33.11970587 35.98323307 -33.06701846 20.49163605 -33 5 C-31.67731613 4.79825668 -31.67731613 4.79825668 -30.32791138 4.59243774 C-29.16540863 4.41449677 -28.00290588 4.23655579 -26.80517578 4.05322266 C-25.08030441 3.78960434 -25.08030441 3.78960434 -23.32058716 3.5206604 C-18.42207987 2.75258577 -13.54767809 1.86783426 -8.671875 0.96875 C-5.73467416 0.4376694 -2.99209723 0 0 0 Z " fill="#FEF9F9" transform="translate(553,402)"/>
<path d="M0 0 C1.13905625 4.611983 0.50576582 7.48270255 -1 12 C-1.66 12 -2.32 12 -3 12 C-3.33 14.31 -3.66 16.62 -4 19 C-4.66 19 -5.32 19 -6 19 C-6 19.99 -6 20.98 -6 22 C-6.55872803 21.99476318 -7.11745605 21.98952637 -7.69311523 21.98413086 C-10.27456494 21.96308281 -12.85599649 21.95025266 -15.4375 21.9375 C-16.75524414 21.92493164 -16.75524414 21.92493164 -18.09960938 21.91210938 C-22.41698328 21.89617811 -26.72707343 21.95783885 -31.03515625 22.25390625 C-31.75195557 22.29974854 -32.46875488 22.34559082 -33.20727539 22.39282227 C-35.19405745 22.84113858 -35.19405745 22.84113858 -36.06030273 24.92163086 C-36.37040283 25.60749268 -36.68050293 26.29335449 -37 27 C-37.99 27.66 -38.98 28.32 -40 29 C-40.31583505 32.10744169 -40.43733601 35.01946381 -40.43237305 38.13134766 C-40.4425647 39.07773605 -40.45275635 40.02412445 -40.46325684 40.99919128 C-40.4935299 44.13754079 -40.50267461 47.27558582 -40.51171875 50.4140625 C-40.52855482 52.58597845 -40.54670359 54.7578846 -40.56611633 56.92977905 C-40.61373879 62.65410294 -40.64346887 68.37838709 -40.66955566 74.10284424 C-40.69929953 79.94103855 -40.74585095 85.77909572 -40.79101562 91.6171875 C-40.87718813 103.07806928 -40.94291859 114.53893636 -41 126 C-51.89 126 -62.78 126 -74 126 C-74.04515072 112.63955334 -74.08185844 99.27915721 -74.10362434 85.91865158 C-74.11406987 79.71510742 -74.12824319 73.51161808 -74.15087891 67.30810547 C-74.17257973 61.32348338 -74.18456283 55.33891407 -74.18975449 49.35425568 C-74.1934552 47.06886209 -74.20068157 44.78347145 -74.21146011 42.49810028 C-74.22593821 39.30172946 -74.22797947 36.10557792 -74.22705078 32.90917969 C-74.23424133 31.96043472 -74.24143188 31.01168976 -74.24884033 30.03419495 C-74.24471634 28.72596016 -74.24471634 28.72596016 -74.24050903 27.39129639 C-74.24235262 26.63542614 -74.24419621 25.87955589 -74.24609566 25.10078049 C-73.64317891 19.95401864 -70.63680537 17.57561745 -66.75 14.4375 C-65.35007812 13.29087891 -65.35007812 13.29087891 -63.921875 12.12109375 C-60.09333013 9.34181586 -56.81560194 7 -52 7 C-52 6.34 -52 5.68 -52 5 C-48.27034861 2.96564469 -46.33094958 2 -42 2 C-42 1.34 -42 0.68 -42 0 C-27.95905272 -2.49221251 -13.97408125 -3.38033931 0 0 Z " fill="#FEF7F7" transform="translate(328,437)"/>
<path d="M0 0 C3.63 0 7.26 0 11 0 C11 41.25 11 82.5 11 125 C0.44 125 -10.12 125 -21 125 C-21 85.4 -21 45.8 -21 5 C-7.5 1.625 -7.5 1.625 0 2 C0 1.34 0 0.68 0 0 Z " fill="#FEF8F8" transform="translate(219,437)"/>
<path d="M0 0 C3.5 1.625 3.5 1.625 6 4 C6.53109375 4.47050781 7.0621875 4.94101562 7.609375 5.42578125 C11.55663836 9.06290249 13.65145936 12.2157277 14.3359375 17.68359375 C14.42423777 23.90876298 13.97382888 27.18323773 10 32 C9.67 32.99 9.34 33.98 9 35 C7.2578125 36.16796875 7.2578125 36.16796875 5.125 37.1875 C4.42632812 37.53167969 3.72765625 37.87585938 3.0078125 38.23046875 C1 39 1 39 -2 39 C-2 39.66 -2 40.32 -2 41 C-13.71098035 41.55375914 -13.71098035 41.55375914 -18 38 C-19.03125 37.2575 -20.0625 36.515 -21.125 35.75 C-25.42142406 31.64037699 -26.83234933 28.57064356 -27.2109375 22.765625 C-27.30913978 13.92741935 -27.30913978 13.92741935 -26 10 C-25.34 10 -24.68 10 -24 10 C-23.773125 9.4225 -23.54625 8.845 -23.3125 8.25 C-18.07572209 -0.72733355 -9.30328894 -0.85843497 0 0 Z " fill="#FEF8F8" transform="translate(221,387)"/>
<path d="M0 0 C3.361875 0.061875 6.72375 0.12375 10.1875 0.1875 C10.1875 12.0675 10.1875 23.9475 10.1875 36.1875 C0.02868439 39.57377187 0.02868439 39.57377187 -4.625 39.4375 C-5.51832031 39.42203125 -6.41164063 39.4065625 -7.33203125 39.390625 C-9.60580782 39.20442597 -11.62555837 38.81962299 -13.8125 38.1875 C-13.8125 37.5275 -13.8125 36.8675 -13.8125 36.1875 C-14.67875 35.9090625 -14.67875 35.9090625 -15.5625 35.625 C-19.39798809 33.17454927 -20.8072826 29.1979348 -22.8125 25.1875 C-23.31912747 18.67928558 -23.68878402 12.7250486 -19.8125 7.1875 C-13.89710023 0.28620027 -8.6584955 -0.22504255 0 0 Z " fill="#EC1E26" transform="translate(131.8125,502.8125)"/>
<path d="M0 0 C0.639375 0.33 1.27875 0.66 1.9375 1 C1.9375 1.66 1.9375 2.32 1.9375 3 C2.5975 3 3.2575 3 3.9375 3 C8.22429838 8.53711457 8.9375 15.20697425 8.9375 22 C-1.9525 22 -12.8425 22 -24.0625 22 C-24.0625 14.71727851 -23.60378244 7.71714748 -18.33203125 2.18359375 C-12.53714383 -1.87629743 -6.61527348 -2.1600893 0 0 Z " fill="#EC1D26" transform="translate(460.0625,461)"/>
<path d="M0 0 C-1.35167857 0.34328345 -2.70654275 0.67402697 -4.0625 1 C-4.81660156 1.185625 -5.57070313 1.37125 -6.34765625 1.5625 C-9.58964851 2.09726161 -12.71904883 2.02690683 -16 2 C-15.96263856 17.72648851 -15.90249557 33.45272014 -15.81609726 49.17900658 C-15.77648691 56.48294765 -15.74400393 63.78678379 -15.72900391 71.09082031 C-15.71589302 77.46578601 -15.68869229 83.84051906 -15.64538693 90.21535361 C-15.62298066 93.58296214 -15.60918085 96.9500384 -15.60811615 100.31776047 C-15.59878043 115.05313202 -15.13953769 128.79163256 -11 143 C-14.33023315 139.87863165 -15.50683777 138.37008239 -15.75 133.75 C-15.83507812 132.41195312 -15.83507812 132.41195312 -15.921875 131.046875 C-15.94765625 130.37140625 -15.9734375 129.6959375 -16 129 C-16.66 129 -17.32 129 -18 129 C-18 87.09 -18 45.18 -18 2 C-14.47422439 0.23711219 -12.75578663 -0.33825765 -9 -0.6875 C-8.154375 -0.77386719 -7.30875 -0.86023438 -6.4375 -0.94921875 C-4.07091802 -0.99852254 -2.25100125 -0.69301659 0 0 Z " fill="#FCAEB1" transform="translate(355,406)"/>
<path d="M0 0 C0.33 43.89 0.66 87.78 1 133 C0.34 133 -0.32 133 -1 133 C-2.00741488 129.97775535 -2.12337292 127.97677299 -2.12025452 124.81782532 C-2.12162918 123.74510376 -2.12300385 122.6723822 -2.12442017 121.56715393 C-2.12082489 120.39039597 -2.11722961 119.213638 -2.11352539 118.0012207 C-2.11367142 116.76207916 -2.11381744 115.52293762 -2.1139679 114.24624634 C-2.11339015 110.84774828 -2.10837098 107.44931079 -2.10139394 104.05082345 C-2.09514741 100.49939416 -2.09455557 96.94796409 -2.09336853 93.39653015 C-2.09025905 86.67113007 -2.08205082 79.94574623 -2.07201904 73.22035331 C-2.06084601 65.56384157 -2.05534445 57.90732907 -2.05032361 50.25081122 C-2.0398679 34.50053141 -2.02227586 18.7502678 -2 3 C-2.99 3.33 -3.98 3.66 -5 4 C-7.57265818 4.07029121 -10.11641431 4.09370832 -12.6875 4.0625 C-13.38939453 4.05798828 -14.09128906 4.05347656 -14.81445312 4.04882812 C-16.54300538 4.03706927 -18.27151365 4.01913454 -20 4 C-20 3.67 -20 3.34 -20 3 C-17.22970414 2.49685437 -14.4588348 1.99736162 -11.6875 1.5 C-10.90181641 1.35691406 -10.11613281 1.21382813 -9.30664062 1.06640625 C-8.54931641 0.93105469 -7.79199219 0.79570312 -7.01171875 0.65625 C-6.31522217 0.53056641 -5.61872559 0.40488281 -4.90112305 0.27539062 C-3 0 -3 0 0 0 Z " fill="#FECFD1" transform="translate(553,402)"/>
<path d="M0 0 C0.99 0 1.98 0 3 0 C2.67 34.98 2.34 69.96 2 106 C1.34 106 0.68 106 0 106 C0 71.02 0 36.04 0 0 Z " fill="#E44048" transform="translate(252,458)"/>
<path d="M0 0 C0.33 0 0.66 0 1 0 C1.34181553 2.60329148 1.67351967 5.20727523 2 7.8125 C2.09539062 8.53115234 2.19078125 9.24980469 2.2890625 9.99023438 C3.04629906 16.1292593 3 21.68461377 3 28 C-19.44 28 -41.88 28 -65 28 C-64.67 27.34 -64.34 26.68 -64 26 C-42.55 26 -21.1 26 1 26 C0.505 18.575 0.505 18.575 0 11 C-0.03569348 7.32357175 -0.06870545 3.67192461 0 0 Z " fill="#FED8D8" transform="translate(499,476)"/>
<path d="M0 0 C0.33 0 0.66 0 1 0 C1.125 7.625 1.125 7.625 0 11 C-0.09341214 12.65550989 -0.13069733 14.31451442 -0.1328125 15.97265625 C-0.13410156 16.95556641 -0.13539063 17.93847656 -0.13671875 18.95117188 C-0.13285156 19.97791016 -0.12898438 21.00464844 -0.125 22.0625 C-0.12886719 23.06216797 -0.13273437 24.06183594 -0.13671875 25.09179688 C-0.12578791 33.50307632 0.47488372 41.72079736 2 50 C-0.95618828 47.56074082 -1.52604802 45.61028236 -2.125 41.875 C-2.43722922 38.63785413 -2.43722922 38.63785413 -4 36 C-4.09967573 34.19361244 -4.13080538 32.38335314 -4.1328125 30.57421875 C-4.13410156 29.46755859 -4.13539063 28.36089844 -4.13671875 27.22070312 C-4.13285156 26.05474609 -4.12898438 24.88878906 -4.125 23.6875 C-4.12886719 22.53314453 -4.13273437 21.37878906 -4.13671875 20.18945312 C-4.13542969 19.07892578 -4.13414062 17.96839844 -4.1328125 16.82421875 C-4.13168457 15.80416748 -4.13055664 14.78411621 -4.12939453 13.7331543 C-4.01523537 11.32181133 -3.6919201 9.30216316 -3 7 C-2.01 7 -1.02 7 0 7 C0 4.69 0 2.38 0 0 Z " fill="#E74D54" transform="translate(403,478)"/>
<path d="M0 0 C1.14601685 0.00749268 1.14601685 0.00749268 2.31518555 0.01513672 C3.76211792 0.04244873 3.76211792 0.04244873 5.23828125 0.0703125 C8.31140625 0.1115625 11.38453125 0.1528125 14.55078125 0.1953125 C14.55078125 12.4053125 14.55078125 24.6153125 14.55078125 37.1953125 C13.56078125 37.6903125 13.56078125 37.6903125 12.55078125 38.1953125 C12.55078125 26.3153125 12.55078125 14.4353125 12.55078125 2.1953125 C5.95078125 2.1953125 -0.64921875 2.1953125 -7.44921875 2.1953125 C-4.2960709 0.09321393 -3.58818794 -0.0481636 0 0 Z " fill="#F8B2B4" transform="translate(129.44921875,500.8046875)"/>
<path d="M0 0 C1 2 1 2 0.3125 4.4375 C-1.14376529 7.28068461 -2.45834986 8.15152717 -5 10 C-6.01866229 11.65532623 -7.01810813 13.32260138 -8 15 C-10.0625 17.3125 -10.0625 17.3125 -12 19 C-12.66 19 -13.32 19 -14 19 C-14.433125 19.8971875 -14.433125 19.8971875 -14.875 20.8125 C-17.44827586 25.81609195 -17.44827586 25.81609195 -21 27 C-22.38576923 28.62332967 -23.72641268 30.28724465 -25 32 C-26.32 31.67 -27.64 31.34 -29 31 C-28.42967041 30.43490723 -27.85934082 29.86981445 -27.27172852 29.28759766 C-24.69939325 26.73599645 -22.13090663 24.18055542 -19.5625 21.625 C-18.66466797 20.73554688 -17.76683594 19.84609375 -16.84179688 18.9296875 C-15.98779297 18.07890625 -15.13378906 17.228125 -14.25390625 16.3515625 C-13.46314697 15.56604004 -12.6723877 14.78051758 -11.85766602 13.97119141 C-9.94628982 12.13255698 -9.94628982 12.13255698 -9 10 C-8.34 10 -7.68 10 -7 10 C-6.773125 9.46375 -6.54625 8.9275 -6.3125 8.375 C-4.56617944 5.21499137 -2.3597151 2.7323017 0 0 Z " fill="#E53F47" transform="translate(418,230)"/>
<path d="M0 0 C0.66 0 1.32 0 2 0 C2 6.93 2 13.86 2 21 C0.35 21 -1.3 21 -3 21 C-3 21.66 -3 22.32 -3 23 C-6.02138567 23.08149592 -9.04053905 23.14073421 -12.0625 23.1875 C-12.91005859 23.21263672 -13.75761719 23.23777344 -14.63085938 23.26367188 C-20.25858299 23.32885786 -23.98372831 22.55932229 -29 20 C-30.6642135 19.32723284 -32.32986582 18.65793165 -34 18 C-31.3333581 16.66667905 -29.83319697 17.32897967 -27 18 C-27 18.66 -27 19.32 -27 20 C-18.09 20 -9.18 20 0 20 C0 13.4 0 6.8 0 0 Z " fill="#E96065" transform="translate(391,542)"/>
<path d="M0 0 C22.11 0 44.22 0 67 0 C67 0.66 67 1.32 67 2 C34.33 1.505 34.33 1.505 1 1 C1.66 1.66 2.32 2.32 3 3 C3.22705078 5.06298828 3.22705078 5.06298828 3.1953125 7.5703125 C3.18886719 8.46621094 3.18242187 9.36210938 3.17578125 10.28515625 C3.15902344 11.22230469 3.14226562 12.15945313 3.125 13.125 C3.11597656 14.06988281 3.10695313 15.01476562 3.09765625 15.98828125 C3.07404522 18.32577292 3.04111516 20.66276123 3 23 C2.67 23 2.34 23 2 23 C1.66114962 20.47980028 1.32879665 17.95901484 1 15.4375 C0.90460938 14.73302734 0.80921875 14.02855469 0.7109375 13.30273438 C0.62070312 12.60341797 0.53046875 11.90410156 0.4375 11.18359375 C0.35371094 10.54993896 0.26992188 9.91628418 0.18359375 9.26342773 C-0.06609731 6.18512211 0 3.08841563 0 0 Z " fill="#DC222A" transform="translate(435,505)"/>
<path d="M0 0 C0.66 0.33 1.32 0.66 2 1 C2.13905896 11.21379111 2.24565072 21.42735681 2.31087303 31.64190197 C2.34217788 36.38506203 2.38463465 41.12757418 2.45263672 45.87036133 C2.51786039 50.44805065 2.55371241 55.0251171 2.56926346 59.60323524 C2.58034451 61.34921386 2.60198408 63.09515861 2.63438034 64.84087181 C2.67798683 67.2881352 2.68393282 69.73283014 2.68115234 72.18041992 C2.702724 72.90115189 2.72429565 73.62188385 2.746521 74.36445618 C2.71131476 77.23112093 2.53491033 79.38295217 0.61845779 81.59368324 C-1.04257202 82.98872375 -1.04257202 82.98872375 -4 85 C-4 84.01 -4 83.02 -4 82 C-3.34 82 -2.68 82 -2 82 C-1.67 81.01 -1.34 80.02 -1 79 C-0.34 79 0.32 79 1 79 C0.67 52.93 0.34 26.86 0 0 Z " fill="#FED9DC" transform="translate(173,465)"/>
<path d="M0 0 C28.25725682 -1.02340166 28.25725682 -1.02340166 35.87109375 5.63671875 C36.24363281 6.08660156 36.61617187 6.53648437 37 7 C35.02 6.67 33.04 6.34 31 6 C31 5.34 31 4.68 31 4 C23.4097226 2.99164263 16.07521709 3.00625083 8.4375 3.375 C7.36564453 3.41882813 6.29378906 3.46265625 5.18945312 3.5078125 C-0.91393547 3.77658558 -6.93705407 4.24928896 -13 5 C-12.67 4.34 -12.34 3.68 -12 3 C-9.27734375 2.5859375 -9.27734375 2.5859375 -5.9375 2.375 C-4.83277344 2.30023438 -3.72804688 2.22546875 -2.58984375 2.1484375 C-1.73519531 2.09945313 -0.88054687 2.05046875 0 2 C0 1.34 0 0.68 0 0 Z " fill="#FABBBA" transform="translate(118,434)"/>
<path d="M0 0 C3.361875 0.061875 6.72375 0.12375 10.1875 0.1875 C10.1875 12.0675 10.1875 23.9475 10.1875 36.1875 C8.2075 36.6825 8.2075 36.6825 6.1875 37.1875 C5.5275 36.5275 4.8675 35.8675 4.1875 35.1875 C5.8375 35.1875 7.4875 35.1875 9.1875 35.1875 C9.1875 23.9675 9.1875 12.7475 9.1875 1.1875 C6.279375 1.290625 3.37125 1.39375 0.375 1.5 C-0.53741455 1.52489502 -1.4498291 1.54979004 -2.38989258 1.57543945 C-3.47500122 1.62510864 -3.47500122 1.62510864 -4.58203125 1.67578125 C-5.32042236 1.70196533 -6.05881348 1.72814941 -6.81958008 1.75512695 C-9.28416391 2.28982963 -10.21302324 3.28715347 -11.8125 5.1875 C-11.1525 5.1875 -10.4925 5.1875 -9.8125 5.1875 C-10.1425 6.1775 -10.4725 7.1675 -10.8125 8.1875 C-11.4725 7.8575 -12.1325 7.5275 -12.8125 7.1875 C-12.8125 6.5275 -12.8125 5.8675 -12.8125 5.1875 C-13.8025 5.8475 -14.7925 6.5075 -15.8125 7.1875 C-16.8025 6.8575 -17.7925 6.5275 -18.8125 6.1875 C-13.15275722 -0.06800518 -8.0152951 -0.20832516 0 0 Z " fill="#D62B33" transform="translate(131.8125,502.8125)"/>
<path d="M0 0 C0.66 0.33 1.32 0.66 2 1 C1.67 1.66 1.34 2.32 1 3 C0.34 3 -0.32 3 -1 3 C-1.1546875 4.5159375 -1.1546875 4.5159375 -1.3125 6.0625 C-2.03704767 10.21218208 -3.22269266 13.21356263 -5 17 C-5.66 17 -6.32 17 -7 17 C-7.05821935 20.89577024 -7.0936703 24.79142802 -7.125 28.6875 C-7.14175781 29.79029297 -7.15851563 30.89308594 -7.17578125 32.02929688 C-7.18222656 33.09599609 -7.18867188 34.16269531 -7.1953125 35.26171875 C-7.20578613 36.24100342 -7.21625977 37.22028809 -7.22705078 38.22924805 C-6.98509629 41.1818734 -6.14943901 43.29003986 -5 46 C-5 46.99 -5 47.98 -5 49 C-4.34 49 -3.68 49 -3 49 C-3.33 49.99 -3.66 50.98 -4 52 C-4 51.34 -4 50.68 -4 50 C-4.66 50 -5.32 50 -6 50 C-10.65698842 38.32754834 -10.71667705 28.28410493 -8 16 C-7.34 16 -6.68 16 -6 16 C-5.90203125 15.09636719 -5.8040625 14.19273437 -5.703125 13.26171875 C-5.55359375 12.08222656 -5.4040625 10.90273437 -5.25 9.6875 C-5.11078125 8.51574219 -4.9715625 7.34398437 -4.828125 6.13671875 C-4 3 -4 3 -1.921875 1.08203125 C-1.28765625 0.72496094 -0.6534375 0.36789063 0 0 Z " fill="#EC7075" transform="translate(207,148)"/>
<path d="M0 0 C0.33 0 0.66 0 1 0 C0.67 2.97 0.34 5.94 0 9 C9.9 9 19.8 9 30 9 C30 8.01 30 7.02 30 6 C30.66 6 31.32 6 32 6 C32 7.65 32 9.3 32 11 C21.11 11 10.22 11 -1 11 C-1 3.125 -1 3.125 0 0 Z " fill="#DC4147" transform="translate(437,472)"/>
<path d="M0 0 C0 1.65 0 3.3 0 5 C-0.928125 5.12375 -0.928125 5.12375 -1.875 5.25 C-2.57625 5.4975 -3.2775 5.745 -4 6 C-4.26554687 6.55945313 -4.53109375 7.11890625 -4.8046875 7.6953125 C-6.43576537 10.8402012 -8.77363977 13.14200073 -11.25 15.625 C-11.71535156 16.11484375 -12.18070312 16.6046875 -12.66015625 17.109375 C-15.86193014 20.33760984 -18.6026801 21.89416511 -23 23 C-18.47783954 17.58052896 -13.69081573 12.53850008 -8.6875 7.5625 C-7.95982422 6.83095703 -7.23214844 6.09941406 -6.48242188 5.34570312 C-5.79083984 4.65541016 -5.09925781 3.96511719 -4.38671875 3.25390625 C-3.75983154 2.62814697 -3.13294434 2.0023877 -2.48706055 1.35766602 C-1 0 -1 0 0 0 Z " fill="#FBCCCB" transform="translate(374,241)"/>
<path d="M0 0 C0 0.66 0 1.32 0 2 C-1.65 2 -3.3 2 -5 2 C-5 2.66 -5 3.32 -5 4 C-5.66 4 -6.32 4 -7 4 C-7.33 4.66 -7.66 5.32 -8 6 C-8.78375 5.95875 -9.5675 5.9175 -10.375 5.875 C-13.16116119 5.71271266 -13.16116119 5.71271266 -15 8 C-17.8203125 8.1953125 -17.8203125 8.1953125 -21.125 8.125 C-22.22070312 8.10695312 -23.31640625 8.08890625 -24.4453125 8.0703125 C-25.28835937 8.04710937 -26.13140625 8.02390625 -27 8 C-27 8.66 -27 9.32 -27 10 C-32.28 10 -37.56 10 -43 10 C-43 9.34 -43 8.68 -43 8 C-42.0570105 7.94054199 -42.0570105 7.94054199 -41.0949707 7.87988281 C-28.08638947 7.01843465 -16.41721323 5.9080078 -4.2890625 0.875 C-2 0 -2 0 0 0 Z " fill="#E34047" transform="translate(268,205)"/>
<path d="M0 0 C2.42204038 3.63306058 2.23302891 5.31819023 2.1953125 9.63671875 C2.18886719 10.93544922 2.18242187 12.23417969 2.17578125 13.57226562 C2.1590706 14.94401307 2.14214071 16.31575786 2.125 17.6875 C2.11496674 19.07095718 2.10584149 20.45442127 2.09765625 21.83789062 C2.07404967 25.22543452 2.04112037 28.61263072 2 32 C1.67 32 1.34 32 1 32 C0.86722656 30.79601562 0.73445313 29.59203125 0.59765625 28.3515625 C0.4194698 26.77601915 0.2410735 25.20049953 0.0625 23.625 C-0.02451172 22.8309375 -0.11152344 22.036875 -0.20117188 21.21875 C-0.6038935 16.97744999 -0.6038935 16.97744999 -2 13 C-2.13415472 10.3276379 -2.04318541 7.67749512 -2 5 C-2.66 5 -3.32 5 -4 5 C-3.67 3.68 -3.34 2.36 -3 1 C-3 1.99 -3 2.98 -3 4 C-2.34 4 -1.68 4 -1 4 C-0.67 2.68 -0.34 1.36 0 0 Z " fill="#E9555A" transform="translate(500,461)"/>
<path d="M0 0 C0.66 0 1.32 0 2 0 C1.67 1.65 1.34 3.3 1 5 C-2.22095476 6.07365159 -4.12442721 5.73254016 -7.4140625 5.26171875 C-14.53082516 4.54144217 -22.01411288 4.34233187 -29 6 C-29 5.34 -29 4.68 -29 4 C-19.26120889 1.40298904 -9.92624067 1.47288605 0 3 C0 2.01 0 1.02 0 0 Z " fill="#E3434B" transform="translate(322,456)"/>
<path d="M0 0 C0 0.33 0 0.66 0 1 C-0.76554199 1.07516846 -1.53108398 1.15033691 -2.31982422 1.2277832 C-5.83931411 1.57920095 -9.35707655 1.94574553 -12.875 2.3125 C-14.68097656 2.48942383 -14.68097656 2.48942383 -16.5234375 2.66992188 C-23.00406071 3.35672705 -28.95812432 4.32488726 -35.11376953 6.50073242 C-37 7 -37 7 -39 6 C-35.91190305 4.23537317 -34.76687864 4 -31 4 C-31 3.34 -31 2.68 -31 2 C-20.55092369 0.14533035 -10.57699095 -0.23049133 0 0 Z " fill="#FED2D5" transform="translate(317,435)"/>
<path d="M0 0 C0.66 0 1.32 0 2 0 C2.33 0.99 2.66 1.98 3 3 C3.99 3.33 4.98 3.66 6 4 C6.69937532 5.31647119 7.36729133 6.65022151 8 8 C8.66 8.33 9.32 8.66 10 9 C10 9.66 10 10.32 10 11 C13.60993172 12.13480527 16.9842327 12.10015767 20.75 12.0625 C21.92046875 12.05347656 23.0909375 12.04445313 24.296875 12.03515625 C25.18890625 12.02355469 26.0809375 12.01195312 27 12 C23.72708382 13.95294291 21.28659202 14.24471499 17.5 14.1875 C16.09234375 14.17783203 16.09234375 14.17783203 14.65625 14.16796875 C12.29379415 14.01857816 10.26283335 13.66710889 8 13 C8 12.34 8 11.68 8 11 C7.4225 10.814375 6.845 10.62875 6.25 10.4375 C2.85537664 8.26871285 1.79502687 5.59005374 0 2 C0 1.34 0 0.68 0 0 Z " fill="#E1424D" transform="translate(110,528)"/>
<path d="M0 0 C1.875 2.125 1.875 2.125 3 4 C2.01 4.495 2.01 4.495 1 5 C0.67 4.34 0.34 3.68 0 3 C-0.99 2.67 -1.98 2.34 -3 2 C-3 1.34 -3 0.68 -3 0 C-3.99966797 0.09087891 -3.99966797 0.09087891 -5.01953125 0.18359375 C-6.95547507 0.35958864 -8.89169535 0.53255866 -10.828125 0.703125 C-12.92411059 0.89930099 -15.01814999 1.11767563 -17.109375 1.359375 C-18.08390625 1.46765625 -19.0584375 1.5759375 -20.0625 1.6875 C-20.96097656 1.79449219 -21.85945313 1.90148437 -22.78515625 2.01171875 C-25 2 -25 2 -27 0 C-18.22230639 -2.75378623 -8.65059025 -3.55469657 0 0 Z " fill="#DD363E" transform="translate(137,460)"/>
<path d="M0 0 C0 0.99 0 1.98 0 3 C-1.96498322 4.38442 -3.97048465 5.71203834 -6 7 C-6.7425 7.7425 -7.485 8.485 -8.25 9.25 C-8.8275 9.8275 -9.405 10.405 -10 11 C-10.66 11 -11.32 11 -12 11 C-12.061875 11.5775 -12.12375 12.155 -12.1875 12.75 C-13.32027301 15.88690987 -15.34197595 17.09167504 -18 19 C-17.67 17.35 -17.34 15.7 -17 14 C-16.34 14 -15.68 14 -15 14 C-14.7525 13.443125 -14.505 12.88625 -14.25 12.3125 C-11.62229851 7.45125224 -6.1646212 0 0 0 Z " fill="#FCCDCC" transform="translate(429,442)"/>
<path d="M0 0 C3.375 0.3125 3.375 0.3125 7 1 C7.66 1.99 8.32 2.98 9 4 C15.99172295 7.50418496 22.78444753 7.53912399 30.5 7.6875 C31.70398438 7.72166016 32.90796875 7.75582031 34.1484375 7.79101562 C37.09886516 7.87297195 40.04901516 7.94229384 43 8 C43 8.33 43 8.66 43 9 C38.6041806 9.02907584 34.20838601 9.0468244 29.8125 9.0625 C28.56662109 9.07087891 27.32074219 9.07925781 26.03710938 9.08789062 C24.2340332 9.09272461 24.2340332 9.09272461 22.39453125 9.09765625 C20.73707886 9.10551147 20.73707886 9.10551147 19.04614258 9.11352539 C16.24200621 9.00901923 13.72582671 8.64097959 11 8 C11 7.34 11 6.68 11 6 C10.46375 5.896875 9.9275 5.79375 9.375 5.6875 C6.34987072 4.81180468 3.7495511 3.52752839 1 2 C0.67 1.34 0.34 0.68 0 0 Z " fill="#FCBEBF" transform="translate(93,555)"/>
<path d="M0 0 C1.65 0 3.3 0 5 0 C3.625 2.5 3.625 2.5 2 5 C1.34 5 0.68 5 0 5 C-0.0825 5.66 -0.165 6.32 -0.25 7 C-0.91056105 9.6422442 -1.66702359 11.38851968 -2.9375 13.75 C-5.17754185 18.01829792 -6.16901081 22.27648251 -7 27 C-7.33 27 -7.66 27 -8 27 C-7.44336476 17.46042367 -7.44336476 17.46042367 -5.4375 13.25 C-3.93605865 9.85543694 -3.73203184 7.66223146 -4 4 C-2.33333333 4 -0.66666667 4 1 4 C0.67 2.68 0.34 1.36 0 0 Z " fill="#E12A34" transform="translate(412,451)"/>
<path d="M0 0 C0.66 0 1.32 0 2 0 C3.66557886 4.99673659 4.17104995 11.08070013 2.17578125 16.0546875 C1.125 17.6875 1.125 17.6875 -1 20 C-1.66 20 -2.32 20 -3 20 C-3 20.99 -3 21.98 -3 23 C-4.32 22.67 -5.64 22.34 -7 22 C-6.525625 21.566875 -6.05125 21.13375 -5.5625 20.6875 C-3.76313043 18.97690387 -3.76313043 18.97690387 -3 16 C-2.34 16 -1.68 16 -1 16 C-1 15.01 -1 14.02 -1 13 C-0.34 13 0.32 13 1 13 C0.67 8.71 0.34 4.42 0 0 Z " fill="#DD373F" transform="translate(318,237)"/>
<path d="M0 0 C0.33 0.66 0.66 1.32 1 2 C-0.98 2 -2.96 2 -5 2 C-5 2.66 -5 3.32 -5 4 C-13.02332397 4.90041311 -20.92970447 5.11547323 -29 5 C-29.33 4.34 -29.66 3.68 -30 3 C-29.44650879 2.98018066 -28.89301758 2.96036133 -28.32275391 2.93994141 C-14.04213829 2.45852994 -14.04213829 2.45852994 0 0 Z " fill="#EB5F64" transform="translate(146,561)"/>
<path d="M0 0 C0.33 0.66 0.66 1.32 1 2 C0.67 2.99 0.34 3.98 0 5 C-0.66 5 -1.32 5 -2 5 C-2 5.99 -2 6.98 -2 8 C-2.66 8 -3.32 8 -4 8 C-4.33 11.3 -4.66 14.6 -5 18 C-5.66 18 -6.32 18 -7 18 C-7 24.93 -7 31.86 -7 39 C-7.33 39 -7.66 39 -8 39 C-8 31.74 -8 24.48 -8 17 C-7.34 17 -6.68 17 -6 17 C-6 13.7 -6 10.4 -6 7 C-5.01 6.67 -4.02 6.34 -3 6 C-3 5.34 -3 4.68 -3 4 C-2.34 4 -1.68 4 -1 4 C-0.67 2.68 -0.34 1.36 0 0 Z " fill="#DE3B41" transform="translate(249,262)"/>
<path d="M0 0 C0.33 0 0.66 0 1 0 C1.06058594 1.02738281 1.12117188 2.05476562 1.18359375 3.11328125 C1.66282871 11.08960238 2.20809418 19.04724363 3 27 C2.33333333 25.66666667 1.66666667 24.33333333 1 23 C0.65155029 22.38213623 0.30310059 21.76427246 -0.0559082 21.12768555 C-1.09120698 18.79444819 -1.24481645 17.24488636 -1.23046875 14.70703125 C-1.22853516 13.91232422 -1.22660156 13.11761719 -1.22460938 12.29882812 C-1.21236328 11.47833984 -1.20011719 10.65785156 -1.1875 9.8125 C-1.18685547 8.98041016 -1.18621094 8.14832031 -1.18554688 7.29101562 C-1.14043257 1.14043257 -1.14043257 1.14043257 0 0 Z " fill="#FAB6B8" transform="translate(76,511)"/>
<path d="M0 0 C0.33 0 0.66 0 1 0 C1.26264712 25.41840457 1.26264712 25.41840457 -4 31 C-4.70885894 32.31138904 -5.39456452 33.63777017 -6 35 C-7 33 -7 33 -6.0390625 30.1015625 C-5.57242187 28.95429688 -5.10578125 27.80703125 -4.625 26.625 C-1.99026752 20.1044051 -0.81577594 14.76980916 -0.4375 7.75 C-0.37272461 6.63238281 -0.37272461 6.63238281 -0.30664062 5.4921875 C-0.20103275 3.661651 -0.10005799 1.83084824 0 0 Z " fill="#F7B3B4" transform="translate(404,171)"/>
<path d="M0 0 C0.66 0.33 1.32 0.66 2 1 C-1.12927312 5.25581144 -4.70277393 8.9199685 -9 12 C-9.66 12 -10.32 12 -11 12 C-11.33 12.66 -11.66 13.32 -12 14 C-13.65 14 -15.3 14 -17 14 C-15.625 12.5 -15.625 12.5 -14 11 C-13.34 11 -12.68 11 -12 11 C-12 10.34 -12 9.68 -12 9 C-10.23810568 7.58061562 -8.41435143 6.23733457 -6.5625 4.9375 C-3.13481849 2.64887381 -3.13481849 2.64887381 0 0 Z " fill="#FED7D8" transform="translate(340,272)"/>
<path d="M0 0 C1.98 0 3.96 0 6 0 C5.34 0.66 4.68 1.32 4 2 C3.01 2 2.02 2 1 2 C1 2.66 1 3.32 1 4 C-2.41084768 5.20469568 -5.82943733 6.38570092 -9.25 7.5625 C-10.70212891 8.07586914 -10.70212891 8.07586914 -12.18359375 8.59960938 C-13.11816406 8.91865234 -14.05273438 9.23769531 -15.015625 9.56640625 C-16.30388184 10.01415405 -16.30388184 10.01415405 -17.61816406 10.47094727 C-20.16586928 11.03684284 -21.56315454 10.85092276 -24 10 C-18.75117306 6.82307843 -13.98511371 6.34302035 -8 6 C-8 5.34 -8 4.68 -8 4 C-5.36 3.67 -2.72 3.34 0 3 C0 2.01 0 1.02 0 0 Z " fill="#FCBEBE" transform="translate(268,201)"/>
<path d="M0 0 C0.66 0.99 1.32 1.98 2 3 C1.67 3.99 1.34 4.98 1 6 C-2.7960081 7.89800405 -6.91817126 8.87949799 -11 10 C-7.69984002 5.86062408 -4.82675589 2.41337795 0 0 Z " fill="#E72A32" transform="translate(310,262)"/>
<path d="M0 0 C3.62493334 -0.05787784 7.24974857 -0.0935542 10.875 -0.125 C11.90753906 -0.14175781 12.94007813 -0.15851563 14.00390625 -0.17578125 C14.99003906 -0.18222656 15.97617188 -0.18867188 16.9921875 -0.1953125 C18.35899658 -0.21102295 18.35899658 -0.21102295 19.75341797 -0.22705078 C22 0 22 0 24 2 C16.41 1.67 8.82 1.34 1 1 C1 1.66 1 2.32 1 3 C-0.91595482 3.33740085 -2.83279722 3.66976412 -4.75 4 C-6.35101563 4.2784375 -6.35101563 4.2784375 -7.984375 4.5625 C-11 5 -11 5 -15 5 C-12.22957891 2.22957891 -10.23466195 2.60203894 -6.375 2.375 C-5.18648437 2.30023438 -3.99796875 2.22546875 -2.7734375 2.1484375 C-1.40058594 2.07496094 -1.40058594 2.07496094 0 2 C0 1.34 0 0.68 0 0 Z " fill="#DE343E" transform="translate(117,433)"/>
<path d="M0 0 C1.98 0.66 3.96 1.32 6 2 C3.37801226 4.15377564 1.35595828 5.40072174 -2 6 C-2 6.66 -2 7.32 -2 8 C-7.75 11 -7.75 11 -10 11 C-10.33 10.01 -10.66 9.02 -11 8 C-8.36 7.67 -5.72 7.34 -3 7 C-2.87625 6.21625 -2.7525 5.4325 -2.625 4.625 C-2 2 -2 2 0 0 Z " fill="#E2282F" transform="translate(276,84)"/>
<path d="M0 0 C0 0.66 0 1.32 0 2 C-0.804375 2.474375 -1.60875 2.94875 -2.4375 3.4375 C-5.2918076 4.79983672 -5.2918076 4.79983672 -6 8 C-7.32 8.33 -8.64 8.66 -10 9 C-10 14.94 -10 20.88 -10 27 C-12.38981361 23.41527958 -12.24010257 21.74646235 -12.1875 17.5 C-12.18105469 16.3553125 -12.17460937 15.210625 -12.16796875 14.03125 C-12 11 -12 11 -11 8 C-10.34 8 -9.68 8 -9 8 C-8.773125 7.4225 -8.54625 6.845 -8.3125 6.25 C-6.47530093 3.10051589 -3.84497849 0 0 0 Z " fill="#FEC7C8" transform="translate(206,389)"/>
<path d="M0 0 C0.66 0.33 1.32 0.66 2 1 C1.01 2.485 1.01 2.485 0 4 C-0.99 4 -1.98 4 -3 4 C-3 4.66 -3 5.32 -3 6 C-3.99 6 -4.98 6 -6 6 C-6 6.66 -6 7.32 -6 8 C-6.99 8 -7.98 8 -9 8 C-9.66 9.32 -10.32 10.64 -11 12 C-12.98 12 -14.96 12 -17 12 C-16.67 11.01 -16.34 10.02 -16 9 C-14.02 8.67 -12.04 8.34 -10 8 C-10 7.34 -10 6.68 -10 6 C-9.44570313 5.73445312 -8.89140625 5.46890625 -8.3203125 5.1953125 C-7.59585937 4.84210938 -6.87140625 4.48890625 -6.125 4.125 C-5.40570313 3.77695313 -4.68640625 3.42890625 -3.9453125 3.0703125 C-1.84864981 2.03442457 -1.84864981 2.03442457 0 0 Z " fill="#E85D64" transform="translate(291,190)"/>
<path d="M0 0 C0 0.33 0 0.66 0 1 C-9.31177062 2.73572278 -18.53007103 4.4068511 -28 5 C-28 4.34 -28 3.68 -28 3 C-25.03 3 -22.06 3 -19 3 C-19 2.34 -19 1.68 -19 1 C-12.61773055 0.17648136 -6.43255401 -0.12086218 0 0 Z " fill="#DE4248" transform="translate(550,402)"/>
<path d="M0 0 C-2.71070308 3.09202523 -4.80023111 3.54064426 -8.90625 3.8828125 C-15.9344418 4.14903189 -22.96841743 4.06826779 -30 4 C-30 3.67 -30 3.34 -30 3 C-28.88882812 2.96261719 -27.77765625 2.92523438 -26.6328125 2.88671875 C-19.0452731 2.57106892 -12.0635472 2.25061549 -4.8828125 -0.4765625 C-3 -1 -3 -1 0 0 Z " fill="#DE484E" transform="translate(297,320)"/>
<path d="M0 0 C1.71466036 3.42932071 1.05404056 7.21716065 1 11 C6.94 10.505 6.94 10.505 13 10 C13 10.33 13 10.66 13 11 C8.71 11.66 4.42 12.32 0 13 C-3 9 -3 9 -2.8125 5.375 C-2 2 -2 2 0 0 Z " fill="#E2595D" transform="translate(281,291)"/>
<path d="M0 0 C0.639375 0.33 1.27875 0.66 1.9375 1 C1.9375 1.66 1.9375 2.32 1.9375 3 C2.5975 3 3.2575 3 3.9375 3 C4.2675 3.99 4.5975 4.98 4.9375 6 C3.9475 6.495 3.9475 6.495 2.9375 7 C2.9375 6.01 2.9375 5.02 2.9375 4 C1.6175 4 0.2975 4 -1.0625 4 C-1.0625 3.01 -1.0625 2.02 -1.0625 1 C-2.97947937 1.14166357 -4.89607723 1.28849584 -6.8125 1.4375 C-8.41351563 1.55931641 -8.41351563 1.55931641 -10.046875 1.68359375 C-12.49929962 1.94090773 -14.70171291 2.31812218 -17.0625 3 C-12.23356348 -2.04843363 -6.52904845 -2.13193419 0 0 Z " fill="#E1414B" transform="translate(460.0625,461)"/>
<path d="M0 0 C1 3 1 3 0.2578125 4.69921875 C-0.11601563 5.35535156 -0.48984375 6.01148438 -0.875 6.6875 C-4.1026298 13.38761427 -3.82088488 20.70105887 -4 28 C-4.33 28 -4.66 28 -5 28 C-5.38297872 9.65957447 -5.38297872 9.65957447 -3 1 C-2.01 1.33 -1.02 1.66 0 2 C0 1.34 0 0.68 0 0 Z " fill="#DD303A" transform="translate(79,500)"/>
<path d="M0 0 C2 2 2 2 2 6 C2.66 6 3.32 6 4 6 C4.31453125 6.59167969 4.6290625 7.18335938 4.953125 7.79296875 C7.33264624 12.18648236 9.70038047 16.21154795 13 20 C10.625 19.6875 10.625 19.6875 8 19 C7.34 18.01 6.68 17.02 6 16 C5.67 16 5.34 16 5 16 C4.34 13.36 3.68 10.72 3 8 C2.34 8 1.68 8 1 8 C0.67 5.36 0.34 2.72 0 0 Z " fill="#E14C54" transform="translate(76,532)"/>
<path d="M0 0 C0.99 0.33 1.98 0.66 3 1 C6.64666585 1.27028229 10.29293716 1.4455706 13.9453125 1.62109375 C14.95335937 1.74613281 15.96140625 1.87117188 17 2 C17.33 2.66 17.66 3.32 18 4 C11.4 4 4.8 4 -2 4 C-1.34 2.68 -0.68 1.36 0 0 Z " fill="#E22831" transform="translate(373,432)"/>
<path d="M0 0 C9.81015193 0.98101519 15.0207546 5.47052819 22 12 C21.67 12.66 21.34 13.32 21 14 C19.53515625 12.73046875 18.0703125 11.4609375 16.60546875 10.19140625 C14.89287029 8.79128769 14.89287029 8.79128769 12 8 C11.3125 5.9375 11.3125 5.9375 11 4 C10.29875 3.87625 9.5975 3.7525 8.875 3.625 C5.82343613 2.96161655 2.94659062 2.02788045 0 1 C0 0.67 0 0.34 0 0 Z " fill="#FAAFB1" transform="translate(467,437)"/>
<path d="M0 0 C4.455 0.99 4.455 0.99 9 2 C9 2.66 9 3.32 9 4 C17.415 3.505 17.415 3.505 26 3 C26 3.66 26 4.32 26 5 C19.4 5 12.8 5 6 5 C6 4.34 6 3.68 6 3 C3.03 2.505 3.03 2.505 0 2 C0 1.34 0 0.68 0 0 Z " fill="#FBCECE" transform="translate(445,538)"/>
<path d="M0 0 C0.33 0.66 0.66 1.32 1 2 C2.65 2 4.3 2 6 2 C6.33 3.32 6.66 4.64 7 6 C8.2065625 6.185625 8.2065625 6.185625 9.4375 6.375 C10.7059375 6.684375 10.7059375 6.684375 12 7 C12.33 7.66 12.66 8.32 13 9 C10.03 8.67 7.06 8.34 4 8 C4 7.34 4 6.68 4 6 C3.01 5.67 2.02 5.34 1 5 C0.67 3.35 0.34 1.7 0 0 Z " fill="#E8545C" transform="translate(554,533)"/>
<path d="M0 0 C2.1793144 1.75864246 2.93686419 2.69396 3.51171875 5.48046875 C3.56972656 6.37378906 3.62773437 7.26710938 3.6875 8.1875 C3.75324219 9.08855469 3.81898438 9.98960937 3.88671875 10.91796875 C3.92410156 11.60503906 3.96148437 12.29210937 4 13 C4.66 13 5.32 13 6 13 C6.33 15.64 6.66 18.28 7 21 C4.12868336 18.12868336 3.3220913 14.78245371 2 11 C1.4121875 9.4221875 1.4121875 9.4221875 0.8125 7.8125 C0.0140644 5.04868445 -0.16808903 2.85751349 0 0 Z " fill="#FEC3C6" transform="translate(403,517)"/>
<path d="M0 0 C5.75 1.75 5.75 1.75 8 4 C10.19704511 4.67651207 10.19704511 4.67651207 12.625 5.125 C13.44226563 5.29257812 14.25953125 5.46015625 15.1015625 5.6328125 C15.72804688 5.75398437 16.35453125 5.87515625 17 6 C17 6.33 17 6.66 17 7 C12.71 7 8.42 7 4 7 C4.66 6.67 5.32 6.34 6 6 C6 5.34 6 4.68 6 4 C4.35 3.67 2.7 3.34 1 3 C0.67 2.01 0.34 1.02 0 0 Z " fill="#E3434B" transform="translate(532,556)"/>
<path d="M0 0 C0.66 0 1.32 0 2 0 C1.625 1.9375 1.625 1.9375 1 4 C0.01 4.495 0.01 4.495 -1 5 C-1.309375 5.78375 -1.61875 6.5675 -1.9375 7.375 C-3.01272488 10.03143794 -3.97971028 11.06388902 -6 13 C-7.17574711 15.09989652 -7.17574711 15.09989652 -8 17 C-8.33 16.34 -8.66 15.68 -9 15 C-7.05055093 9.49343931 -3.59722846 4.54386753 0 0 Z " fill="#FCC7C8" transform="translate(86,492)"/>
<path d="M0 0 C0 0.66 0 1.32 0 2 C-2.64 2.33 -5.28 2.66 -8 3 C-8 3.66 -8 4.32 -8 5 C-8.99 5 -9.98 5 -11 5 C-11 5.66 -11 6.32 -11 7 C-14.22791555 9.1519437 -15.28400809 9.20086443 -19 9 C-17.75 7.5 -17.75 7.5 -16 6 C-14.68 6 -13.36 6 -12 6 C-12 5.34 -12 4.68 -12 4 C-11.01 4 -10.02 4 -9 4 C-9 3.34 -9 2.68 -9 2 C-2.25 0 -2.25 0 0 0 Z " fill="#E1434E" transform="translate(360,152)"/>
<path d="M0 0 C1.32 0.33 2.64 0.66 4 1 C2.35 1.66 0.7 2.32 -1 3 C-1 3.66 -1 4.32 -1 5 C-6.445 7.475 -6.445 7.475 -12 10 C-12 9.34 -12 8.68 -12 8 C-11.34 8 -10.68 8 -10 8 C-10 7.34 -10 6.68 -10 6 C-7.35261084 4.5393715 -6.10551666 4 -3 4 C-3 3.34 -3 2.68 -3 2 C-2.01 2 -1.02 2 0 2 C0 1.34 0 0.68 0 0 Z " fill="#FEDFDC" transform="translate(339,295)"/>
<path d="M0 0 C0 0.99 0 1.98 0 3 C-1.50390625 4.24609375 -1.50390625 4.24609375 -3.5625 5.4375 C-4.65111328 6.07365234 -4.65111328 6.07365234 -5.76171875 6.72265625 C-6.50035156 7.14417969 -7.23898437 7.56570313 -8 8 C-8.99966797 8.61681641 -8.99966797 8.61681641 -10.01953125 9.24609375 C-11.64018325 10.23213254 -13.31690848 11.12479241 -15 12 C-15.66 11.67 -16.32 11.34 -17 11 C-13.71195019 8.08772731 -11.40114397 6.50298788 -7 6 C-7 5.34 -7 4.68 -7 4 C-4.69 2.68 -2.38 1.36 0 0 Z " fill="#E86C70" transform="translate(357,286)"/>
<path d="M0 0 C0.66 0.33 1.32 0.66 2 1 C1.2884375 2.175625 1.2884375 2.175625 0.5625 3.375 C-0.33898023 4.88948678 -1.21179485 6.4235897 -2 8 C-2.66 8 -3.32 8 -4 8 C-4.268125 8.61875 -4.53625 9.2375 -4.8125 9.875 C-6 12 -6 12 -9 14 C-8.125 9.25 -8.125 9.25 -7 7 C-5.68 7 -4.36 7 -3 7 C-2.814375 5.5459375 -2.814375 5.5459375 -2.625 4.0625 C-2.41875 3.051875 -2.2125 2.04125 -2 1 C-1.34 0.67 -0.68 0.34 0 0 Z " fill="#FBC7C5" transform="translate(426,217)"/>
<path d="M0 0 C0.66 2.31 1.32 4.62 2 7 C1.484375 6.67 0.96875 6.34 0.4375 6 C-2.78026512 4.67989123 -5.5570528 4.86757895 -9 5 C-4.16129032 0 -4.16129032 0 0 0 Z " fill="#FCC4C3" transform="translate(495,531)"/>
<path d="M0 0 C0 2 0 2 -1.5 3.625 C-1.995 4.07875 -2.49 4.5325 -3 5 C-2.34 5 -1.68 5 -1 5 C-1.33 5.99 -1.66 6.98 -2 8 C-2.66 7.67 -3.32 7.34 -4 7 C-4 6.34 -4 5.68 -4 5 C-4.99 5.66 -5.98 6.32 -7 7 C-7.99 6.67 -8.98 6.34 -10 6 C-7.35570758 3.077361 -4.105808 0 0 0 Z " fill="#E03C43" transform="translate(123,503)"/>
<path d="M0 0 C1.98 0 3.96 0 6 0 C3.94125541 2.05874459 2.1141926 3.12568937 -0.4375 4.5 C-3.05873674 5.91641787 -5.51571196 7.34380797 -8 9 C-8.33 7.68 -8.66 6.36 -9 5 C-7.68 5 -6.36 5 -5 5 C-5 4.34 -5 3.68 -5 3 C-4.360625 2.87625 -3.72125 2.7525 -3.0625 2.625 C-2.0415625 2.315625 -2.0415625 2.315625 -1 2 C-0.67 1.34 -0.34 0.68 0 0 Z " fill="#DE353E" transform="translate(429,438)"/>
<path d="M0 0 C0.66 0.33 1.32 0.66 2 1 C1.01 2.485 1.01 2.485 0 4 C-1.32 4 -2.64 4 -4 4 C-4.33 4.99 -4.66 5.98 -5 7 C-7.31 7 -9.62 7 -12 7 C-10.01388388 5.01388388 -8.55856751 4.08545288 -6 3 C-5.01 3 -4.02 3 -3 3 C-3 2.34 -3 1.68 -3 1 C-2.01 0.67 -1.02 0.34 0 0 Z " fill="#E54B54" transform="translate(164,553)"/>
<path d="M0 0 C0.33 0 0.66 0 1 0 C1.04898438 0.89203125 1.09796875 1.7840625 1.1484375 2.703125 C1.22320312 3.87359375 1.29796875 5.0440625 1.375 6.25 C1.44460937 7.41015625 1.51421875 8.5703125 1.5859375 9.765625 C1.96915074 12.75902653 2.58933643 14.40804905 4 17 C4 17.99 4 18.98 4 20 C3.01 20 2.02 20 1 20 C0.09761253 17.29283758 -0.11851302 15.76223232 -0.09765625 12.98828125 C-0.09443359 12.23095703 -0.09121094 11.47363281 -0.08789062 10.69335938 C-0.07951172 9.90767578 -0.07113281 9.12199219 -0.0625 8.3125 C-0.05798828 7.51521484 -0.05347656 6.71792969 -0.04882812 5.89648438 C-0.0370585 3.93095743 -0.01912348 1.96546915 0 0 Z " fill="#E3464D" transform="translate(193,400)"/>
<path d="M0 0 C1.40907283 2.81814566 0.50872691 4.17277204 -0.4375 7.125 C-0.72496094 8.03507813 -1.01242187 8.94515625 -1.30859375 9.8828125 C-1.65083984 10.93082031 -1.65083984 10.93082031 -2 12 C-2.99 12 -3.98 12 -5 12 C-5.33 13.32 -5.66 14.64 -6 16 C-6.33 15.34 -6.66 14.68 -7 14 C-5.92481882 11.55667274 -4.80191434 9.23245477 -3.5625 6.875 C-3.22412109 6.21628906 -2.88574219 5.55757812 -2.53710938 4.87890625 C-1.69850074 3.24893453 -0.85015189 1.62398091 0 0 Z " fill="#EA636A" transform="translate(438,196)"/>
<path d="M0 0 C0.6875 1.6875 0.6875 1.6875 1 4 C-0.89320076 8.10193497 -3.74330835 10.91934573 -7 14 C-6.67 12.35 -6.34 10.7 -6 9 C-5.34 9 -4.68 9 -4 9 C-3.71125 8.071875 -3.4225 7.14375 -3.125 6.1875 C-2 3 -2 3 0 0 Z " fill="#FBC3C3" transform="translate(212,142)"/>
<path d="M0 0 C0.99 0.33 1.98 0.66 3 1 C-0.43361902 4.63559661 -3.7973607 7.36113346 -8 10 C-7.75 8.125 -7.75 8.125 -7 6 C-4.9375 4.75 -4.9375 4.75 -3 4 C-3.33 3.01 -3.66 2.02 -4 1 C-2.68 1.33 -1.36 1.66 0 2 C0 1.34 0 0.68 0 0 Z " fill="#E0393F" transform="translate(246,105)"/>
<path d="M0 0 C6.57315478 -0.36517527 11.79485526 0.86380263 18 3 C18 3.33 18 3.66 18 4 C15.93690624 3.88521587 13.87451646 3.75773802 11.8125 3.625 C10.66394531 3.55539063 9.51539063 3.48578125 8.33203125 3.4140625 C5.20040883 3.02490426 2.84714191 2.3190149 0 1 C0 0.67 0 0.34 0 0 Z " fill="#F7A2A5" transform="translate(378,65)"/>
<path d="M0 0 C0.66 0.33 1.32 0.66 2 1 C2 4.96 2 8.92 2 13 C1.34 13 0.68 13 0 13 C-0.33 13.99 -0.66 14.98 -1 16 C-0.67 10.72 -0.34 5.44 0 0 Z " fill="#FEC5C4" transform="translate(317,237)"/>
<path d="M0 0 C1 2 1 2 0.5 4.875 C-1.56078712 9.1683065 -3.76756155 9.96215926 -8 12 C-7 10 -6 8 -5 6 C-4.34 6 -3.68 6 -3 6 C-2.690625 5.195625 -2.38125 4.39125 -2.0625 3.5625 C-1 1 -1 1 0 0 Z " fill="#FBC9C9" transform="translate(383,228)"/>
<path d="M0 0 C-5.98410537 2.32655091 -11.58008874 4.42934122 -18 5 C-17.67 4.34 -17.34 3.68 -17 3 C-14.67843403 2.59270772 -12.3431213 2.25561323 -10 2 C-10 1.34 -10 0.68 -10 0 C-3.375 -1.125 -3.375 -1.125 0 0 Z " fill="#FCB3B6" transform="translate(296,437)"/>
<path d="M0 0 C3 1 6 2 9 3 C9 3.99 9 4.98 9 6 C9.66 6.66 10.32 7.32 11 8 C7.24026115 8 6.54322371 7.03457593 3.8125 4.5625 C3.09707031 3.92441406 2.38164062 3.28632813 1.64453125 2.62890625 C1.10183594 2.09136719 0.55914062 1.55382812 0 1 C0 0.67 0 0.34 0 0 Z " fill="#E1313B" transform="translate(479,440)"/>
<path d="M0 0 C0.33 0.99 0.66 1.98 1 3 C0.01 4.485 0.01 4.485 -1 6 C-1.38499891 7.65549531 -1.72793135 9.3222433 -2 11 C-3.32 11.33 -4.64 11.66 -6 12 C-5.57405412 10.55903414 -5.13373367 9.12231288 -4.6875 7.6875 C-4.44386719 6.88699219 -4.20023437 6.08648437 -3.94921875 5.26171875 C-2.95817977 2.90035427 -1.91925057 1.66120007 0 0 Z " fill="#DF2F36" transform="translate(287,283)"/>
<path d="M0 0 C-3.58394851 3.58394851 -8.4478149 5.81495115 -13 8 C-13 7.01 -13 6.02 -13 5 C-11.68 4.67 -10.36 4.34 -9 4 C-9 3.34 -9 2.68 -9 2 C-5.86501708 0.14223235 -3.62528568 -0.20140476 0 0 Z " fill="#FDD9D5" transform="translate(322,171)"/>
<path d="M0 0 C1.76462683 3.08809695 2 4.23312136 2 8 C2.66 8 3.32 8 4 8 C4.33 9.65 4.66 11.3 5 13 C3.68 13 2.36 13 1 13 C-0.10228696 8.59085217 -0.07654536 4.51617599 0 0 Z " fill="#E13B45" transform="translate(521,536)"/>
<path d="M0 0 C-0.66 0.66 -1.32 1.32 -2 2 C-3.32 2 -4.64 2 -6 2 C-6 2.66 -6 3.32 -6 4 C-8.31 4 -10.62 4 -13 4 C-12 2 -12 2 -9.78515625 1.11328125 C-8.88667969 0.84902344 -7.98820312 0.58476563 -7.0625 0.3125 C-6.16660156 0.04050781 -5.27070313 -0.23148438 -4.34765625 -0.51171875 C-2 -1 -2 -1 0 0 Z " fill="#FCC1C3" transform="translate(486,537)"/>
<path d="M0 0 C0.80179688 0.00451172 1.60359375 0.00902344 2.4296875 0.01367188 C4.41149006 0.02546832 6.39325433 0.04340395 8.375 0.0625 C8.375 0.3925 8.375 0.7225 8.375 1.0625 C7.16263672 1.13597656 7.16263672 1.13597656 5.92578125 1.2109375 C4.85714844 1.28570312 3.78851563 1.36046875 2.6875 1.4375 C1.10388672 1.54191406 1.10388672 1.54191406 -0.51171875 1.6484375 C-3.53177269 2.05010089 -5.86578054 2.80319019 -8.625 4.0625 C-8.625 3.4025 -8.625 2.7425 -8.625 2.0625 C-9.285 1.7325 -9.945 1.4025 -10.625 1.0625 C-7.31505287 -0.59247356 -3.63377 -0.03834335 0 0 Z " fill="#D62833" transform="translate(210.625,385.9375)"/>
<path d="M0 0 C0.66 1.32 1.32 2.64 2 4 C-0.31 5.65 -2.62 7.3 -5 9 C-4.67 7.02 -4.34 5.04 -4 3 C-2.68 2.67 -1.36 2.34 0 2 C0 1.34 0 0.68 0 0 Z " fill="#E72F39" transform="translate(346,263)"/>
<path d="M0 0 C1 2 1 2 0.3125 4.4375 C-1.12247568 7.23911919 -2.31587267 8.4062994 -5 10 C-5.66 10 -6.32 10 -7 10 C-5.33248852 6.05860922 -2.77289351 3.2107188 0 0 Z " fill="#E5464E" transform="translate(418,230)"/>
<path d="M0 0 C1.12793443 3.33081308 0.87365459 5.21699392 -0.3125 8.5 C-0.57675781 9.2528125 -0.84101563 10.005625 -1.11328125 10.78125 C-1.96902773 12.9225011 -2.93588816 14.9554183 -4 17 C-3.63223832 10.69732561 -2.83374078 5.66748157 0 0 Z " fill="#DE4247" transform="translate(408,461)"/>
<path d="M0 0 C0 0.33 0 0.66 0 1 C-1.01320313 1.18175781 -1.01320313 1.18175781 -2.046875 1.3671875 C-3.38492187 1.61855469 -3.38492187 1.61855469 -4.75 1.875 C-6.07257813 2.11863281 -6.07257813 2.11863281 -7.421875 2.3671875 C-9.86947744 2.96796264 -11.80599857 3.77997117 -14 5 C-14 3.68 -14 2.36 -14 1 C-9.22426677 -1.61895048 -5.15565119 -0.83119431 0 0 Z " fill="#FBD1CF" transform="translate(456,459)"/>
<path d="M0 0 C2 1 2 1 3.1171875 3.19921875 C4.07590795 6.24082303 4.20159443 8.63383118 4.125 11.8125 C4.10695312 12.78832031 4.08890625 13.76414062 4.0703125 14.76953125 C4.03550781 15.87361328 4.03550781 15.87361328 4 17 C3.34 17.33 2.68 17.66 2 18 C2.02320313 17.34773438 2.04640625 16.69546875 2.0703125 16.0234375 C2.17648935 10.88144415 1.93789896 6.84474741 0 2 C0 1.34 0 0.68 0 0 Z " fill="#F78B90" transform="translate(231,396)"/>
<path d="M0 0 C0.8125 1.6875 0.8125 1.6875 1 4 C-1.3125 6.75 -1.3125 6.75 -4 9 C-4.66 9 -5.32 9 -6 9 C-4.68775452 5.06326356 -3.08089673 2.77280706 0 0 Z " fill="#FBCCCB" transform="translate(261,245)"/>
<path d="M0 0 C0.66 0.33 1.32 0.66 2 1 C1.67 3.31 1.34 5.62 1 8 C-0.32 8.33 -1.64 8.66 -3 9 C-3 9.99 -3 10.98 -3 12 C-3.66 11.67 -4.32 11.34 -5 11 C-4.319375 9.948125 -4.319375 9.948125 -3.625 8.875 C-1.98313057 5.97015409 -0.96322901 3.1860652 0 0 Z " fill="#E44A51" transform="translate(429,212)"/>
<path d="M0 0 C1.32 0.33 2.64 0.66 4 1 C4 1.66 4 2.32 4 3 C6.97 3.33 9.94 3.66 13 4 C13 4.33 13 4.66 13 5 C9.37 5 5.74 5 2 5 C1.34 3.35 0.68 1.7 0 0 Z " fill="#DB3640" transform="translate(212,208)"/>
<path d="M0 0 C-3.00950123 1.61725534 -5.97103608 2.67582623 -9.25 3.625 C-10.14203125 3.88539062 -11.0340625 4.14578125 -11.953125 4.4140625 C-12.62859375 4.60742188 -13.3040625 4.80078125 -14 5 C-14.33 4.34 -14.66 3.68 -15 3 C-11.36041667 -0.63958333 -4.96749719 -0.15523429 0 0 Z " fill="#E8545C" transform="translate(328,68)"/>
<path d="M0 0 C0.66 0.33 1.32 0.66 2 1 C1.45276317 4.37462715 0.9451 6.08235 -1 9 C-1.99 8.34 -2.98 7.68 -4 7 C-2.92598892 4.08482708 -2.22189824 2.22189824 0 0 Z " fill="#E73137" transform="translate(168,550)"/>
<path d="M0 0 C0.66 0 1.32 0 2 0 C2.125 2.875 2.125 2.875 2 6 C0 8 0 8 -3.125 8.125 C-4.548125 8.063125 -4.548125 8.063125 -6 8 C-5 6 -5 6 -1.9375 4.875 C-0.4834375 4.441875 -0.4834375 4.441875 1 4 C0.67 2.68 0.34 1.36 0 0 Z " fill="#DE303B" transform="translate(502,547)"/>
<path d="M0 0 C0 3 0 3 -2.1875 5.625 C-5.00654002 8.00552268 -6.39755548 8.69121904 -10 9 C-5.375 4.125 -5.375 4.125 -2 3 C-2 2.34 -2 1.68 -2 1 C-1.34 0.67 -0.68 0.34 0 0 Z " fill="#E2424D" transform="translate(380,269)"/>
<path d="M0 0 C0.66 0.33 1.32 0.66 2 1 C-3 7.57142857 -3 7.57142857 -8 9 C-7.67 8.01 -7.34 7.02 -7 6 C-6.34 6 -5.68 6 -5 6 C-4.67 5.01 -4.34 4.02 -4 3 C-1.9375 1.3125 -1.9375 1.3125 0 0 Z " fill="#FAC0C3" transform="translate(272,234)"/>
<path d="M0 0 C0.33 0 0.66 0 1 0 C1 1.65 1 3.3 1 5 C0.01 5.33 -0.98 5.66 -2 6 C-2 6.66 -2 7.32 -2 8 C-3.98 8.99 -3.98 8.99 -6 10 C-4.63201951 6.0100569 -2.79608023 3.15686477 0 0 Z " fill="#FBC6C6" transform="translate(390,218)"/>
<path d="M0 0 C-1.78174788 2.30142435 -3.16304165 3.80034391 -6.046875 4.48828125 C-8.0246611 4.72323102 -10.01271872 4.86751458 -12 5 C-10.66272409 2.32544817 -9.26711677 2.01118615 -6.5625 0.8125 C-5.75941406 0.44769531 -4.95632813 0.08289063 -4.12890625 -0.29296875 C-2 -1 -2 -1 0 0 Z " fill="#FECDCB" transform="translate(296,81)"/>
<path d="M0 0 C0.33 0.99 0.66 1.98 1 3 C0.34 3.66 -0.32 4.32 -1 5 C-1 5.33 -1 5.66 -1 6 C-2.98 6 -4.96 6 -7 6 C-7.33 5.34 -7.66 4.68 -8 4 C-5.09399739 2.74335022 -3.20395416 2 0 2 C0 1.34 0 0.68 0 0 Z " fill="#E1232E" transform="translate(574,536)"/>
<path d="M0 0 C2.475 0.495 2.475 0.495 5 1 C5 1.66 5 2.32 5 3 C5.66 3.66 6.32 4.32 7 5 C4.69 5 2.38 5 0 5 C0 3.35 0 1.7 0 0 Z " fill="#E71A1E" transform="translate(124,536)"/>
<path d="M0 0 C1.98 0 3.96 0 6 0 C5.67 2.64 5.34 5.28 5 8 C4.34 7.34 3.68 6.68 3 6 C3 5.01 3 4.02 3 3 C2.34 3 1.68 3 1 3 C0.67 2.01 0.34 1.02 0 0 Z " fill="#E33339" transform="translate(166,448)"/>
<path d="M0 0 C0.66 0 1.32 0 2 0 C0.34784004 3.57967992 -1.73124352 6.77982952 -4 10 C-4.33 10 -4.66 10 -5 10 C-5 8.02 -5 6.04 -5 4 C-4.34 4 -3.68 4 -3 4 C-2.67 3.34 -2.34 2.68 -2 2 C-1.34 2 -0.68 2 0 2 C0 1.34 0 0.68 0 0 Z " fill="#E02E38" transform="translate(215,135)"/>
<path d="M0 0 C0.66 0.33 1.32 0.66 2 1 C-2.75 5 -2.75 5 -5 5 C-5.33 5.99 -5.66 6.98 -6 8 C-7.32 7.67 -8.64 7.34 -10 7 C-6.7 4.69 -3.4 2.38 0 0 Z " fill="#E0545B" transform="translate(314,175)"/>
<path d="M0 0 C0 2 0 2 -1.0625 3.5625 C-3.86337489 5.64056847 -6.58791584 5.67810527 -10 6 C-4.15384615 0 -4.15384615 0 0 0 Z " fill="#DF2834" transform="translate(341,161)"/>
<path d="M0 0 C2.97 0 5.94 0 9 0 C6.44008376 2.01136276 3.95409701 3.62845496 1 5 C0.67 3.35 0.34 1.7 0 0 Z " fill="#DF262E" transform="translate(251,99)"/>
<path d="M0 0 C2.31 0.66 4.62 1.32 7 2 C7 2.66 7 3.32 7 4 C8.65 4 10.3 4 12 4 C12.33 4.66 12.66 5.32 13 6 C7.57689095 5.56615128 4.29855944 4.35497322 0 1 C0 0.67 0 0.34 0 0 Z " fill="#FAC4C5" transform="translate(426,556)"/>
<path d="M0 0 C2.55803184 3.83704776 4.34505724 7.75712791 3.625 12.4375 C3.41875 12.953125 3.2125 13.46875 3 14 C0.81005752 10.71508627 0.64722661 9.16904361 0.375 5.3125 C0.30023438 4.31863281 0.22546875 3.32476563 0.1484375 2.30078125 C0.09945313 1.54152344 0.05046875 0.78226563 0 0 Z " fill="#E0484C" transform="translate(401,514)"/>
<path d="M0 0 C0.33 1.32 0.66 2.64 1 4 C-1.97 6.475 -1.97 6.475 -5 9 C-4.67 7.35 -4.34 5.7 -4 4 C-3.34 4 -2.68 4 -2 4 C-1.34 2.68 -0.68 1.36 0 0 Z " fill="#FBC0C3" transform="translate(416,452)"/>
<path d="M0 0 C0 0.66 0 1.32 0 2 C-0.66 2 -1.32 2 -2 2 C-2.33 3.32 -2.66 4.64 -3 6 C-4.65 5.67 -6.3 5.34 -8 5 C-3.16129032 0 -3.16129032 0 0 0 Z " fill="#E4404A" transform="translate(332,303)"/>
<path d="M0 0 C0.87011719 0.10828125 0.87011719 0.10828125 1.7578125 0.21875 C6.20087574 0.7466387 10.51631578 1.11496626 15 1 C15 1.33 15 1.66 15 2 C10.71 2.66 6.42 3.32 2 4 C1.34 2.68 0.68 1.36 0 0 Z " fill="#F5A0A5" transform="translate(279,300)"/>
<path d="M0 0 C0.33 0.66 0.66 1.32 1 2 C-0.25 4.5625 -0.25 4.5625 -2 7 C-2.99 7.33 -3.98 7.66 -5 8 C-4.45773019 4.20411134 -2.79872437 2.52788007 0 0 Z " fill="#E24C50" transform="translate(404,246)"/>
<path d="M0 0 C-0.66 1.32 -1.32 2.64 -2 4 C-3.98 4 -5.96 4 -8 4 C-7.67 3.01 -7.34 2.02 -7 1 C-4 0 -4 0 0 0 Z " fill="#EA525A" transform="translate(282,198)"/>
<path d="M0 0 C0.33 0.99 0.66 1.98 1 3 C-0.65 4.65 -2.3 6.3 -4 8 C-4.99 7.67 -5.98 7.34 -7 7 C-4.69 4.69 -2.38 2.38 0 0 Z " fill="#FCCDCE" transform="translate(231,120)"/>
<path d="M0 0 C0.99 0.33 1.98 0.66 3 1 C3.73046875 3.06640625 3.73046875 3.06640625 4.1875 5.5625 C4.34605469 6.38878906 4.50460937 7.21507812 4.66796875 8.06640625 C4.77753906 8.70449219 4.88710938 9.34257813 5 10 C1.32769295 6.92000054 0.43197635 4.7517398 0 0 Z " fill="#F49FA4" transform="translate(339,539)"/>
<path d="M0 0 C6.4 0.36923077 6.4 0.36923077 9.4375 3.5625 C9.953125 4.366875 10.46875 5.17125 11 6 C10.01 6.495 10.01 6.495 9 7 C8.67 6.34 8.34 5.68 8 5 C7.01 4.67 6.02 4.34 5 4 C5 3.34 5 2.68 5 2 C3.35 1.67 1.7 1.34 0 1 C0 0.67 0 0.34 0 0 Z " fill="#DF484F" transform="translate(129,458)"/>
<path d="M0 0 C2.97 0.495 2.97 0.495 6 1 C6 3.31 6 5.62 6 8 C3.87961365 5.38485683 1.86908256 2.80362384 0 0 Z " fill="#E1343E" transform="translate(228,392)"/>
<path d="M0 0 C0.66 0.33 1.32 0.66 2 1 C2 1.99 2 2.98 2 4 C0.03533587 5.06775224 -1.96855359 6.06553465 -4 7 C-4.66 6.67 -5.32 6.34 -6 6 C-5.38125 5.7525 -4.7625 5.505 -4.125 5.25 C-1.64931313 3.79371361 -1.04874998 2.62187494 0 0 Z " fill="#E6585D" transform="translate(295,274)"/>
<path d="M0 0 C-2.51699845 2.51699845 -4.57554146 3.10964078 -8 4 C-10.375 3.625 -10.375 3.625 -12 3 C-7.77050005 0.58314288 -4.87664009 -0.34833144 0 0 Z " fill="#FDCCCC" transform="translate(256,208)"/>
<path d="M0 0 C2.48862878 3.23521742 4.75421558 6.59260295 7 10 C4.625 9.8125 4.625 9.8125 2 9 C0.13992075 5.72271751 0 3.8340246 0 0 Z " fill="#FBBBBC" transform="translate(438,528)"/>
<path d="M0 0 C0.66 0 1.32 0 2 0 C2.33 0.99 2.66 1.98 3 3 C3.99 3.33 4.98 3.66 6 4 C5.67 4.99 5.34 5.98 5 7 C3.0625 6.3125 3.0625 6.3125 1 5 C0.25 2.375 0.25 2.375 0 0 Z " fill="#E3323E" transform="translate(110,528)"/>
<path d="M0 0 C0.33 1.32 0.66 2.64 1 4 C0.01 4.33 -0.98 4.66 -2 5 C-2 5.99 -2 6.98 -2 8 C-2.66 8 -3.32 8 -4 8 C-3.40138258 5.64828869 -2.73075648 3.3140622 -2 1 C-1.34 0.67 -0.68 0.34 0 0 Z " fill="#E15459" transform="translate(442,464)"/>
<path d="M0 0 C0.33 0.66 0.66 1.32 1 2 C1.99 2.33 2.98 2.66 4 3 C3.34 3.66 2.68 4.32 2 5 C-0.97 4.01 -3.94 3.02 -7 2 C-7 1.67 -7 1.34 -7 1 C-3.535 0.505 -3.535 0.505 0 0 Z " fill="#DD2633" transform="translate(474,435)"/>
<path d="M0 0 C0.33 0 0.66 0 1 0 C1.39253254 4.44870215 0.15305957 7.14243493 -2 11 C-2.66 10.67 -3.32 10.34 -4 10 C-2.8905928 6.51329166 -1.73662334 3.22515763 0 0 Z " fill="#FDD2D4" transform="translate(232,411)"/>
<path d="M0 0 C0.99 0.33 1.98 0.66 3 1 C3 1.66 3 2.32 3 3 C1.03533587 4.06775224 -0.96855359 5.06553465 -3 6 C-3.66 5.67 -4.32 5.34 -5 5 C-3.35 3.35 -1.7 1.7 0 0 Z " fill="#DD3F45" transform="translate(304,266)"/>
<path d="M0 0 C1.32 0 2.64 0 4 0 C2.62845496 2.95409701 1.01136276 5.44008376 -1 8 C-1.08226668 4.95613276 -0.97608217 2.92824652 0 0 Z " fill="#DF2B35" transform="translate(380,226)"/>
<path d="M0 0 C0.66 0.33 1.32 0.66 2 1 C-0.97 3.475 -0.97 3.475 -4 6 C-4.66 5.34 -5.32 4.68 -6 4 C-3.94766315 1.7522025 -2.99332739 0.9977758 0 0 Z " fill="#FABBBC" transform="translate(266,95)"/>
<path d="M0 0 C1.9375 0.5625 1.9375 0.5625 4 2 C4.75 5.625 4.75 5.625 5 9 C1.7457985 6.16569547 0.4793247 4.31392226 0 0 Z " fill="#E7686F" transform="translate(497,538)"/>
<path d="M0 0 C0.66 0.33 1.32 0.66 2 1 C0.68 2.65 -0.64 4.3 -2 6 C-3.32 5.67 -4.64 5.34 -6 5 C-4.02 3.35 -2.04 1.7 0 0 Z " fill="#FAC4C2" transform="translate(340,272)"/>
<path d="M0 0 C0.66 1.32 1.32 2.64 2 4 C1.525625 4.433125 1.05125 4.86625 0.5625 5.3125 C-1.23686957 7.02309613 -1.23686957 7.02309613 -2 10 C-2.66 10 -3.32 10 -4 10 C-2.66666667 6.66666667 -1.33333333 3.33333333 0 0 Z " fill="#FECFCB" transform="translate(395,208)"/>
<path d="M0 0 C0.66 0.33 1.32 0.66 2 1 C1.4375 2.9375 1.4375 2.9375 0 5 C-3.625 5.75 -3.625 5.75 -7 6 C-4.83312509 3.72478134 -2.54379491 1.84205838 0 0 Z " fill="#E86166" transform="translate(300,184)"/>
<path d="M0 0 C-0.99 0.33 -1.98 0.66 -3 1 C-3 1.66 -3 2.32 -3 3 C-4.98 3.33 -6.96 3.66 -9 4 C-8.67 3.01 -8.34 2.02 -8 1 C-5.29120665 -0.35439668 -2.99066732 -0.06501451 0 0 Z " fill="#FCC9C7" transform="translate(351,155)"/>
<path d="M0 0 C3.2542015 2.83430453 4.5206753 4.68607774 5 9 C4.01 9.495 4.01 9.495 3 10 C3 8.68 3 7.36 3 6 C2.34 6 1.68 6 1 6 C0.67 4.02 0.34 2.04 0 0 Z " fill="#FABFC0" transform="translate(440,106)"/>
<path d="M0 0 C2.31 0.66 4.62 1.32 7 2 C6.67 3.32 6.34 4.64 6 6 C3.97945196 4.35830472 1.97956942 2.69088222 0 1 C0 0.67 0 0.34 0 0 Z " fill="#DF3E45" transform="translate(427,88)"/>
<path d="M0 0 C1.5 1.125 1.5 1.125 3 3 C3.1875 6.1875 3.1875 6.1875 3 9 C0.90250005 6.64031256 0.03094296 5.45383006 -0.1875 2.25 C-0.125625 1.5075 -0.06375 0.765 0 0 Z " fill="#FFD8D5" transform="translate(403,517)"/>
<path d="M0 0 C1.65 0 3.3 0 5 0 C3.69593116 2.01920337 2.36176581 4.01924973 1 6 C0.67 6 0.34 6 0 6 C0 4.02 0 2.04 0 0 Z " fill="#E0353D" transform="translate(81,493)"/>
<path d="M0 0 C0.99 0.33 1.98 0.66 3 1 C-0.465 3.97 -0.465 3.97 -4 7 C-3.67 5.68 -3.34 4.36 -3 3 C-2.34 3 -1.68 3 -1 3 C-0.67 2.01 -0.34 1.02 0 0 Z " fill="#FEDCDB" transform="translate(300,267)"/>
<path d="M0 0 C1 2 1 2 0.25 4.5625 C-1 7 -1 7 -4 8 C-2.87548273 5.0280615 -1.77706209 2.66559313 0 0 Z " fill="#FABDBC" transform="translate(254,254)"/>
<path d="M0 0 C0.66 0 1.32 0 2 0 C2.33 0.99 2.66 1.98 3 3 C1.35 4.65 -0.3 6.3 -2 8 C-2 6.68 -2 5.36 -2 4 C-1.34 4 -0.68 4 0 4 C0 2.68 0 1.36 0 0 Z " fill="#E2303B" transform="translate(375,233)"/>
<path d="M0 0 C-2.66559313 1.77706209 -5.0280615 2.87548273 -8 4 C-8.33 3.01 -8.66 2.02 -9 1 C-5.8035914 -0.06546953 -3.34252724 -0.07427838 0 0 Z " fill="#DE3845" transform="translate(274,91)"/>
<path d="M0 0 C3.375 0.6875 3.375 0.6875 7 2 C8.2265625 4.58203125 8.2265625 4.58203125 9 7 C7.4972763 6.02501855 5.99788037 5.04490611 4.5 4.0625 C3.6646875 3.51722656 2.829375 2.97195312 1.96875 2.41015625 C1.3190625 1.94480469 0.669375 1.47945313 0 1 C0 0.67 0 0.34 0 0 Z " fill="#E3454B" transform="translate(416,79)"/>
</svg>
