<?xml version="1.0" encoding="UTF-8"?>
<svg version="1.1" xmlns="http://www.w3.org/2000/svg" width="497" height="502">
<path d="M0 0 C2.49485632 2.18535826 4.83534763 4.44455735 7.14453125 6.82421875 C8.11326172 7.77941406 8.11326172 7.77941406 9.1015625 8.75390625 C21.04755073 21.29849519 22.65956624 35.73569995 22.38671875 52.19140625 C22.16905339 58.74076287 21.26322379 64.6108899 19.14453125 70.82421875 C18.9134668 71.50790527 18.68240234 72.1915918 18.44433594 72.89599609 C12.28564838 90.76393678 2.65831024 106.51113945 -10.85546875 119.82421875 C-11.76966892 120.91322722 -12.6700278 122.0143661 -13.54296875 123.13671875 C-14.30609375 124.02359375 -15.06921875 124.91046875 -15.85546875 125.82421875 C-16.51546875 125.82421875 -17.17546875 125.82421875 -17.85546875 125.82421875 C-17.85546875 126.48421875 -17.85546875 127.14421875 -17.85546875 127.82421875 C-19.97265625 129.76953125 -19.97265625 129.76953125 -22.73046875 131.94921875 C-23.63539063 132.67367187 -24.5403125 133.398125 -25.47265625 134.14453125 C-27.85546875 135.82421875 -27.85546875 135.82421875 -29.85546875 135.82421875 C-30.18546875 136.81421875 -30.51546875 137.80421875 -30.85546875 138.82421875 C-32.4140625 140.2109375 -32.4140625 140.2109375 -34.29296875 141.51171875 C-34.91042969 141.94871094 -35.52789062 142.38570312 -36.1640625 142.8359375 C-37.85546875 143.82421875 -37.85546875 143.82421875 -39.85546875 143.82421875 C-39.85546875 144.48421875 -39.85546875 145.14421875 -39.85546875 145.82421875 C-41.95565889 147.29730986 -44.03314604 148.6373151 -46.23046875 149.94921875 C-46.83375 150.32175781 -47.43703125 150.69429687 -48.05859375 151.078125 C-52.58512191 153.82421875 -52.58512191 153.82421875 -54.85546875 153.82421875 C-54.85546875 154.48421875 -54.85546875 155.14421875 -54.85546875 155.82421875 C-58.50144295 157.86349245 -62.17382102 159.85012257 -65.85546875 161.82421875 C-66.77102539 162.32163574 -66.77102539 162.32163574 -67.70507812 162.82910156 C-82.36389314 170.74127542 -97.4219873 176.50693957 -114.3984375 173.3515625 C-120.61599448 171.40347241 -123.39280653 167.19474028 -126.66796875 161.88671875 C-129.74100678 153.98462097 -128.80587785 143.33163703 -126.04296875 135.44140625 C-118.98779209 119.89216821 -118.98779209 119.89216821 -113.85546875 115.82421875 C-113.19546875 115.82421875 -112.53546875 115.82421875 -111.85546875 115.82421875 C-111.58734375 115.18484375 -111.31921875 114.54546875 -111.04296875 113.88671875 C-109.85546875 111.82421875 -109.85546875 111.82421875 -106.85546875 110.82421875 C-106.85546875 110.16421875 -106.85546875 109.50421875 -106.85546875 108.82421875 C-98.73203561 103.25386459 -91.69214673 101.23003925 -81.85546875 102.82421875 C-77.91693846 104.33448225 -74.95201742 106.08862185 -72.67578125 109.69140625 C-71.73395148 112.14016364 -71.52129506 114.07816977 -71.48046875 116.69921875 C-71.45210938 117.52164063 -71.42375 118.3440625 -71.39453125 119.19140625 C-72.93687124 128.00104312 -82.46029784 134.43313249 -88.58984375 140.21679688 C-93.85567739 145.33073146 -97.56860177 149.78762291 -99.85546875 156.82421875 C-87.6948939 156.82421875 -76.79539851 149.1857738 -66.85546875 142.82421875 C-66.19546875 142.82421875 -65.53546875 142.82421875 -64.85546875 142.82421875 C-64.85546875 142.16421875 -64.85546875 141.50421875 -64.85546875 140.82421875 C-63.37843109 139.68189441 -61.84450956 138.61309615 -60.29296875 137.57421875 C-48.66077809 129.30410642 -38.38026195 119.26584547 -29.85546875 107.82421875 C-28.92154297 106.59638672 -28.92154297 106.59638672 -27.96875 105.34375 C-23.47368111 99.2105649 -20.02772337 92.72478412 -16.85546875 85.82421875 C-16.3140625 84.74527344 -15.77265625 83.66632813 -15.21484375 82.5546875 C-13.55255054 77.99293458 -13.34026517 74.13615233 -13.35546875 69.32421875 C-13.32710937 68.50824219 -13.29875 67.69226563 -13.26953125 66.8515625 C-13.25033463 60.87181474 -14.61293257 57.1036867 -18.85546875 52.82421875 C-23.44450631 49.64448255 -28.35215349 49.61938454 -33.73046875 50.38671875 C-44.4068117 52.65342975 -53.27214601 56.9493923 -62.66259766 62.3828125 C-63.40558105 62.81078125 -64.14856445 63.23875 -64.9140625 63.6796875 C-65.57720459 64.06793701 -66.24034668 64.45618652 -66.92358398 64.85620117 C-68.89011771 65.84158045 -70.70820177 66.37611166 -72.85546875 66.82421875 C-72.85546875 67.48421875 -72.85546875 68.14421875 -72.85546875 68.82421875 C-73.35433594 69.08074219 -73.85320312 69.33726562 -74.3671875 69.6015625 C-79.23007438 72.19452014 -83.78907147 75.09093803 -88.29296875 78.26171875 C-102.85806553 88.45581549 -119.86054169 98.02313747 -138.32421875 96.546875 C-146.13491833 94.88019794 -152.75889316 91.36522238 -157.29296875 84.63671875 C-161.06455484 77.02649616 -160.49854973 67.68597876 -157.85546875 59.82421875 C-154.23606595 51.36593782 -149.93831665 42.78980183 -143.85546875 35.82421875 C-143.19546875 35.82421875 -142.53546875 35.82421875 -141.85546875 35.82421875 C-141.61828125 35.251875 -141.38109375 34.67953125 -141.13671875 34.08984375 C-139.57953637 31.33628955 -137.73054078 29.65626241 -135.35546875 27.57421875 C-134.56140625 26.8678125 -133.76734375 26.16140625 -132.94921875 25.43359375 C-130.85546875 23.82421875 -130.85546875 23.82421875 -128.85546875 23.82421875 C-128.85546875 23.16421875 -128.85546875 22.50421875 -128.85546875 21.82421875 C-126.78460544 20.24243826 -124.72380937 18.80431987 -122.54296875 17.38671875 C-121.87362305 16.94859863 -121.20427734 16.51047852 -120.51464844 16.05908203 C-86.63230592 -5.86433016 -37.10287807 -28.27127645 0 0 Z " fill="#EC1D26" transform="translate(321.85546875,67.17578125)"/>
<path d="M0 0 C0.84691406 -0.01611328 1.69382813 -0.03222656 2.56640625 -0.04882812 C11.3192071 -0.05553012 19.69544729 2.08290946 26.125 8.3125 C31.23226207 14.67892576 34.31232248 20.83390723 34.47900391 29.11499023 C34.51750961 30.79219398 34.51750961 30.79219398 34.55679321 32.50328064 C34.57156708 33.69715897 34.58634094 34.89103729 34.6015625 36.12109375 C34.61770599 37.36117691 34.63384949 38.60126007 34.65048218 39.87892151 C34.67809131 42.49710553 34.69956797 45.11536044 34.71533203 47.73364258 C34.73308767 50.41034528 34.77492088 53.08498269 34.83837891 55.76098633 C34.92364752 59.63165743 34.95604758 63.49960076 34.9765625 67.37109375 C35.01157867 68.56294785 35.04659485 69.75480194 35.08267212 70.98277283 C35.0402772 79.1071651 35.0402772 79.1071651 32.38079834 82.60945129 C30.37526271 84.39406013 28.39691616 85.88807155 26.125 87.3125 C25.238125 87.87582031 24.35125 88.43914062 23.4375 89.01953125 C22.674375 89.38433594 21.91125 89.74914062 21.125 90.125 C20.361875 90.50269531 19.59875 90.88039063 18.8125 91.26953125 C11.54900331 94.08835918 4.91118123 94.67692686 -2.8125 94.6875 C-3.75029297 94.71199219 -4.68808594 94.73648438 -5.65429688 94.76171875 C-15.18253921 94.80144735 -23.4104646 91.42095039 -30.43359375 84.85546875 C-36.38612813 78.51698451 -39.06661388 71.54065002 -39.375 62.875 C-39.03496959 54.116641 -37.19891446 47.06139228 -30.75 40.875 C-23.60432386 35.12072615 -15.1789825 32.15570011 -6.01171875 32.21484375 C-4.68237305 32.21967773 -4.68237305 32.21967773 -3.32617188 32.22460938 C-2.41416016 32.23298828 -1.50214844 32.24136719 -0.5625 32.25 C0.36884766 32.25451172 1.30019531 32.25902344 2.25976562 32.26367188 C4.54824373 32.27540766 6.83658808 32.29182637 9.125 32.3125 C8.86837755 30.87239519 8.59409179 29.4354313 8.3125 28 C8.16167969 27.19949219 8.01085937 26.39898437 7.85546875 25.57421875 C7.03794956 23.04296948 6.18513033 21.960992 4.125 20.3125 C-4.50267848 17.76926642 -12.93050375 20.50442165 -20.875 24 C-23.875 25.3125 -23.875 25.3125 -26.875 25.3125 C-27.91301555 23.42601956 -28.92983167 21.52786344 -29.9375 19.625 C-30.79021484 18.04138672 -30.79021484 18.04138672 -31.66015625 16.42578125 C-32.875 13.3125 -32.875 13.3125 -33.00390625 10.6171875 C-31.26983463 7.07704129 -28.27369604 6.35224146 -24.75 5.125 C-23.77160156 4.7547168 -23.77160156 4.7547168 -22.7734375 4.37695312 C-20.81869682 3.64974305 -18.85268049 2.97447986 -16.875 2.3125 C-15.76125 1.9309375 -14.6475 1.549375 -13.5 1.15625 C-8.93762475 0.09431783 -4.66749984 -0.01759992 0 0 Z M-8.625 52.5625 C-12.22876121 56.96709704 -13.29306 59.40845198 -13.12890625 65.28515625 C-12.62672895 69.29484884 -11.03238775 72.25302575 -8.07421875 74.9609375 C-5.46807307 76.56258298 -3.97252183 76.68579397 -0.9375 76.625 C-0.10347656 76.62113281 0.73054688 76.61726563 1.58984375 76.61328125 C4.62121934 76.36477817 4.62121934 76.36477817 9.125 74.3125 C9.125 66.3925 9.125 58.4725 9.125 50.3125 C-0.24472442 49.29312308 -0.24472442 49.29312308 -8.625 52.5625 Z " fill="#EB1E27" transform="translate(113.875,318.6875)"/>
<path d="M0 0 C4.09707447 3.36170213 4.09707447 3.36170213 5.4375 5 C5.4375 5.66 5.4375 6.32 5.4375 7 C6.0975 7 6.7575 7 7.4375 7 C14.66005642 19.90353954 15.90080099 31.51755429 15.4375 46 C13.06359164 47.18695418 11.63505049 47.12075833 8.98779297 47.11352539 C8.06698944 47.11344986 7.14618591 47.11337433 6.19747925 47.11329651 C4.70367233 47.10555458 4.70367233 47.10555458 3.1796875 47.09765625 C2.16149933 47.0962413 1.14331116 47.09482635 0.0942688 47.09336853 C-3.16635035 47.087759 -6.42690151 47.07520488 -9.6875 47.0625 C-11.89453026 47.05748623 -14.10156159 47.05292311 -16.30859375 47.04882812 C-21.72658581 47.03778648 -27.14453805 47.02103905 -32.5625 47 C-32.28552898 49.0703018 -31.99677526 51.13902931 -31.703125 53.20703125 C-31.54360352 54.35921143 -31.38408203 55.5113916 -31.21972656 56.69848633 C-30.32172615 61.20950399 -28.76572167 64.68110644 -25.5625 68 C-19.09153664 71.52961638 -11.65626957 70.44154306 -4.8125 68.5625 C-3.93078125 68.29566406 -3.0490625 68.02882813 -2.140625 67.75390625 C0.37138961 67.01933228 2.86539221 66.47648759 5.4375 66 C5.4375 65.34 5.4375 64.68 5.4375 64 C7.0875 64 8.7375 64 10.4375 64 C11.3084379 65.72078041 12.15864558 67.45206323 13 69.1875 C13.47566406 70.15042969 13.95132813 71.11335938 14.44140625 72.10546875 C15.5790586 75.41135263 15.8395627 76.79377359 14.4375 80 C11.7421875 81.94921875 11.7421875 81.94921875 8.3125 83.6875 C7.19617188 84.26886719 6.07984375 84.85023438 4.9296875 85.44921875 C-5.90236481 90.25942543 -20.46279615 92.20090085 -31.89453125 88.1796875 C-36.45118913 86.26029927 -40.64148539 84.01616509 -44.5625 81 C-44.5625 80.34 -44.5625 79.68 -44.5625 79 C-45.2225 79 -45.8825 79 -46.5625 79 C-46.5625 78.34 -46.5625 77.68 -46.5625 77 C-47.2225 77 -47.8825 77 -48.5625 77 C-49.86854787 74.69467364 -51.15702121 72.38198321 -52.4375 70.0625 C-52.80230469 69.42248047 -53.16710937 68.78246094 -53.54296875 68.12304688 C-58.0970104 59.80157076 -58.88134966 51.8742177 -58.75 42.5 C-58.74935547 41.59507812 -58.74871094 40.69015625 -58.74804688 39.7578125 C-58.70333759 33.14083759 -58.70333759 33.14083759 -57.5625 32 C-57.3378715 30.60669619 -57.1335755 29.21010791 -56.9375 27.8125 C-55.594722 20.58457782 -52.01608103 14.40851668 -48.5625 8 C-47.9025 8 -47.2425 8 -46.5625 8 C-46.18931641 7.10474609 -46.18931641 7.10474609 -45.80859375 6.19140625 C-42.64338822 0.62501033 -35.96657077 -2.12287773 -30.0625 -3.875 C-20.14978845 -6.18475803 -8.80377938 -5.69398666 0 0 Z M-29.5625 20 C-31.31338294 23.41839049 -31.5625 25.06384019 -31.5625 29 C-24.6325 29 -17.7025 29 -10.5625 29 C-11.23581444 21.63002752 -11.23581444 21.63002752 -14.5625 16 C-20.82055501 12.87097249 -25.59884577 14.75398705 -29.5625 20 Z " fill="#EB222B" transform="translate(365.5625,324)"/>
<path d="M0 0 C0 7.92 0 15.84 0 24 C3.4340625 23.9690625 3.4340625 23.9690625 6.9375 23.9375 C9.29166332 23.91629132 11.64686445 23.92728259 14 24 C15 25 15 25 15.11352539 26.76586914 C15.10828857 27.51473389 15.10305176 28.26359863 15.09765625 29.03515625 C15.09443359 29.84404297 15.09121094 30.65292969 15.08789062 31.48632812 C15.07532227 32.7615332 15.07532227 32.7615332 15.0625 34.0625 C15.05798828 34.91650391 15.05347656 35.77050781 15.04882812 36.65039062 C15.03700373 38.76695663 15.01906769 40.88348685 15 43 C10.05 43 5.1 43 0 43 C0.06887538 49.88715756 0.15684333 56.77370795 0.26245117 63.66040039 C0.29568906 66.00277978 0.3237245 68.34523904 0.34643555 70.68774414 C0.38000168 74.05649833 0.43232019 77.42452131 0.48828125 80.79296875 C0.49467117 81.83897751 0.5010611 82.88498627 0.50764465 83.96269226 C0.56257219 91.00932824 0.56257219 91.00932824 4 97 C6.43882304 97.98718272 6.43882304 97.98718272 9.125 98.25 C13.94915254 98.94915254 13.94915254 98.94915254 15 100 C15.07313567 102.53049402 15.09247527 105.03304837 15.0625 107.5625 C15.05798828 108.27341797 15.05347656 108.98433594 15.04882812 109.71679688 C15.03700864 111.47790013 15.01907263 113.23896036 15 115 C5.11980818 118.53770064 -3.43948706 117.06968195 -13.078125 113.15625 C-18.84131031 110.24960002 -21.99738536 105.91533813 -24.05000305 99.9468689 C-25.26889236 95.55154364 -25.2734992 91.31164136 -25.24291992 86.77587891 C-25.24481827 85.87913452 -25.24671661 84.98239014 -25.24867249 84.05847168 C-25.25235732 81.11441114 -25.24171285 78.17060085 -25.23046875 75.2265625 C-25.22927605 73.17630034 -25.22882398 71.12603763 -25.2290802 69.07577515 C-25.22751956 64.79055332 -25.21925855 60.50541554 -25.20581055 56.22021484 C-25.18875687 50.7152463 -25.18499826 45.21036945 -25.18575573 39.70537758 C-25.18548457 35.47792682 -25.18001323 31.25049627 -25.17275429 27.02305222 C-25.16956379 24.99196907 -25.16759933 22.96088364 -25.16686058 20.92979813 C-25.16470469 18.10240979 -25.15597875 15.27512103 -25.14526367 12.44775391 C-25.14571686 11.60207855 -25.14617004 10.7564032 -25.14663696 9.88510132 C-25.11448009 4.11448009 -25.11448009 4.11448009 -24 3 C-21.29326997 2.4284476 -18.59869092 1.91346271 -15.875 1.4375 C-15.12734375 1.29892578 -14.3796875 1.16035156 -13.609375 1.01757812 C-12.86945313 0.88673828 -12.12953125 0.75589844 -11.3671875 0.62109375 C-10.69800293 0.5017749 -10.02881836 0.38245605 -9.33935547 0.25952148 C-6.24402425 -0.08386581 -3.11432019 0 0 0 Z " fill="#EB1D25" transform="translate(287,296)"/>
<path d="M0 0 C0.01030746 1.15844925 0.02061493 2.3168985 0.03123474 3.51045227 C0.1288835 14.4142346 0.23160948 25.31795878 0.33933926 36.22164631 C0.39456343 41.82767571 0.4479827 47.43371033 0.49731445 53.03979492 C0.54496535 58.44739067 0.59730854 63.85492231 0.65294075 69.26244164 C0.67336099 71.32814124 0.69207462 73.39385842 0.70907402 75.459589 C0.73312524 78.34722896 0.76317898 81.2347475 0.79467773 84.12231445 C0.80331093 85.41056374 0.80331093 85.41056374 0.81211853 86.72483826 C0.85360986 90.05912727 0.93850408 92.81551223 2 96 C5.84291379 98.03448377 9.7331142 98.42561153 14 99 C15 100 15 100 15.09765625 103.37890625 C15.09098369 104.77347077 15.07902532 106.16801743 15.0625 107.5625 C15.05798828 108.27341797 15.05347656 108.98433594 15.04882812 109.71679688 C15.03700864 111.47790013 15.01907263 113.23896036 15 115 C9.2877191 118.47162834 1.79053883 117.73736926 -4.5703125 116.5 C-6.81401733 115.81203476 -8.87419746 114.9923101 -11 114 C-12.06541016 113.52433594 -12.06541016 113.52433594 -13.15234375 113.0390625 C-19.18280236 109.87222949 -21.70976071 105.29078602 -24 99 C-25.20018021 94.39562739 -25.14102465 89.90939185 -25.12939453 85.18652344 C-25.13114685 84.30957825 -25.13289917 83.43263306 -25.13470459 82.52911377 C-25.13909553 79.63918055 -25.13619584 76.74930881 -25.1328125 73.859375 C-25.13348609 71.85109444 -25.13445657 69.84281397 -25.13571167 67.83453369 C-25.1371847 63.63154319 -25.13504584 59.42857397 -25.13037109 55.22558594 C-25.12465934 49.82593987 -25.12796443 44.42634334 -25.13394356 39.02669907 C-25.1375473 34.88331729 -25.13641171 30.73994737 -25.13381577 26.59656525 C-25.13314674 24.60455571 -25.13397408 22.6125451 -25.13629532 20.6205368 C-25.13882036 17.84562803 -25.13498404 15.07080107 -25.12939453 12.29589844 C-25.13141876 11.46578247 -25.13344299 10.6356665 -25.13552856 9.78039551 C-25.11426558 4.11426558 -25.11426558 4.11426558 -24 3 C-21.48085152 2.42733138 -18.9751295 1.91316329 -16.4375 1.4375 C-15.74591797 1.29892578 -15.05433594 1.16035156 -14.34179688 1.01757812 C-13.30442383 0.82131836 -13.30442383 0.82131836 -12.24609375 0.62109375 C-11.62404053 0.5017749 -11.0019873 0.38245605 -10.36108398 0.25952148 C-6.90360354 -0.12051178 -3.47807832 -0.01464393 0 0 Z " fill="#EC1C24" transform="translate(417,296)"/>
<path d="M0 0 C-0.47587116 6.02770138 -3.19722957 10.76678289 -6 16 C-6.68964844 15.97679687 -7.37929687 15.95359375 -8.08984375 15.9296875 C-15.50606904 15.78726342 -22.67233885 15.78155923 -29 20 C-29.47256204 22.9828833 -29.47256204 22.9828833 -29.41650391 26.54516602 C-29.42508926 27.21684814 -29.43367462 27.88853027 -29.44252014 28.58056641 C-29.4676548 30.80511854 -29.4719651 33.02922492 -29.4765625 35.25390625 C-29.49086478 36.79566319 -29.50662038 38.33740727 -29.52377319 39.87913513 C-29.5656945 43.94100391 -29.59064716 48.00279307 -29.61126709 52.06481934 C-29.64703884 58.57082708 -29.70792195 65.07663847 -29.76975632 71.58244133 C-29.78891124 73.86091433 -29.80059526 76.13933486 -29.81118774 78.41786194 C-29.82139513 79.80665197 -29.83175265 81.19544091 -29.84228516 82.58422852 C-29.84878082 83.80175308 -29.85527649 85.01927765 -29.86196899 86.2736969 C-30 89 -30 89 -31 90 C-32.76859193 90.09946453 -34.54111451 90.13080217 -36.3125 90.1328125 C-37.38757813 90.13410156 -38.46265625 90.13539063 -39.5703125 90.13671875 C-40.70210937 90.13285156 -41.83390625 90.12898438 -43 90.125 C-44.13179687 90.12886719 -45.26359375 90.13273437 -46.4296875 90.13671875 C-47.50476563 90.13542969 -48.57984375 90.13414062 -49.6875 90.1328125 C-50.68136719 90.13168457 -51.67523438 90.13055664 -52.69921875 90.12939453 C-55 90 -55 90 -56 89 C-56.1208173 86.72658398 -56.17030355 84.44936379 -56.19287109 82.17285156 C-56.20104858 81.45897278 -56.20922607 80.74509399 -56.21765137 80.00958252 C-56.24255274 77.63660532 -56.25903527 75.26368821 -56.2734375 72.890625 C-56.27876118 72.08137321 -56.28408485 71.27212143 -56.28956985 70.43834686 C-56.31632486 66.15324347 -56.33569025 61.86816942 -56.35009766 57.58300781 C-56.36673162 53.15634584 -56.41149131 48.73043043 -56.4624691 44.30405045 C-56.49613401 40.90166371 -56.50767434 37.49945405 -56.51332474 34.0969162 C-56.52004177 32.46541402 -56.53527577 30.83392367 -56.55921555 29.20258331 C-56.59084992 26.91601467 -56.59090747 24.63145674 -56.58349609 22.34472656 C-56.59158295 21.04424377 -56.5996698 19.74376099 -56.60800171 18.40386963 C-55.84249354 14.11820734 -54.36657388 12.67119998 -51 10 C-50.01 9.67 -49.02 9.34 -48 9 C-48 8.34 -48 7.68 -48 7 C-35.3648484 -2.98262541 -14.84038372 -7.57806828 0 0 Z " fill="#EC1C24" transform="translate(258,322)"/>
<path d="M0 0 C0.02312215 11.71726788 0.04091443 23.43453037 0.05181217 35.15181637 C0.05704128 40.59202312 0.06413943 46.03221431 0.07543945 51.47241211 C0.08626735 56.71785702 0.09227662 61.96328692 0.09487724 67.20874214 C0.09673167 69.21470946 0.10035262 71.22067592 0.10573006 73.22663689 C0.11293919 76.02602824 0.113991 78.82535679 0.11352539 81.62475586 C0.11712067 82.46272705 0.12071594 83.30069824 0.12442017 84.1640625 C0.11405216 89.88594784 0.11405216 89.88594784 -1 91 C-2.69558726 91.09932153 -4.39525747 91.13080007 -6.09375 91.1328125 C-7.12371094 91.13410156 -8.15367187 91.13539063 -9.21484375 91.13671875 C-10.84099609 91.13091797 -10.84099609 91.13091797 -12.5 91.125 C-13.58410156 91.12886719 -14.66820312 91.13273437 -15.78515625 91.13671875 C-16.81511719 91.13542969 -17.84507812 91.13414062 -18.90625 91.1328125 C-19.85822266 91.13168457 -20.81019531 91.13055664 -21.79101562 91.12939453 C-24 91 -24 91 -25 90 C-25.09512944 87.32212027 -25.12555279 84.67011131 -25.11352539 81.99194336 C-25.11367142 81.15299026 -25.11381744 80.31403717 -25.1139679 79.44966125 C-25.1132685 76.66302956 -25.10547485 73.87646384 -25.09765625 71.08984375 C-25.09579217 69.16313209 -25.09436822 67.23641995 -25.09336853 65.30970764 C-25.08954259 60.22812603 -25.07971166 55.1465728 -25.06866455 50.06500244 C-25.05845206 44.88383366 -25.05387126 39.70266031 -25.04882812 34.52148438 C-25.03808946 24.34764375 -25.02101213 14.17382423 -25 4 C-23.58167531 3.51294797 -22.16206874 3.02962797 -20.74194336 2.54785156 C-19.55634071 2.14351898 -19.55634071 2.14351898 -18.3467865 1.73101807 C-15.11935155 0.72568023 -11.90837159 0.20442287 -8.5625 -0.25 C-7.36753906 -0.42015625 -6.17257813 -0.5903125 -4.94140625 -0.765625 C-2 -1 -2 -1 0 0 Z " fill="#EA1C25" transform="translate(187,321)"/>
<path d="M0 0 C4.85901474 2.29698879 7.66907123 5.15884024 10 10 C10.90467703 15.58499596 10.59265971 20.74710227 7.39453125 25.52734375 C3.76461514 29.3606165 -0.4830301 30.81691743 -5.625 31.4375 C-10.90985436 30.75242629 -14.340734 28.99899694 -17.8125 25 C-21.07806453 20.52151151 -21.70990754 16.43929158 -21 11 C-19.59922508 7.02980367 -17.47232822 4.44928782 -14.4375 1.5625 C-9.55997025 -0.65455898 -5.27273777 -0.77008689 0 0 Z " fill="#EB1D26" transform="translate(180,285)"/>
<path d="M0 0 C0.495 0.99 0.495 0.99 1 2 C-0.50663783 5.01327566 -3.03166411 5.61056618 -6 7 C-6 7.66 -6 8.32 -6 9 C-4.35 9 -2.7 9 -1 9 C-1 9.66 -1 10.32 -1 11 C-3.90600261 12.25664978 -5.79604584 13 -9 13 C-9 13.66 -9 14.32 -9 15 C-8.34 15 -7.68 15 -7 15 C-7 15.66 -7 16.32 -7 17 C-5.68 16.67 -4.36 16.34 -3 16 C-2.505 17.485 -2.505 17.485 -2 19 C-1.34 19 -0.68 19 0 19 C0 18.34 0 17.68 0 17 C1.65 17 3.3 17 5 17 C3.625 18.5 3.625 18.5 2 20 C1.34 20 0.68 20 0 20 C0 20.66 0 21.32 0 22 C-26.06976744 36.58139535 -26.06976744 36.58139535 -36 38 C-35.01 36.68 -34.02 35.36 -33 34 C-33.66 34 -34.32 34 -35 34 C-36.52100023 32.47899977 -37.72023232 30.72490426 -39 29 C-38.34 29 -37.68 29 -37 29 C-37 27.68 -37 26.36 -37 25 C-38.98 25 -40.96 25 -43 25 C-40.04614619 23.03076412 -37.58623051 22.09522178 -34.25 20.9375 C-27.98194381 18.59667362 -22.49763167 15.5175341 -16.85058594 11.94702148 C-12.17475325 9 -12.17475325 9 -10 9 C-10 8.34 -10 7.68 -10 7 C-7.8125 5.2734375 -7.8125 5.2734375 -5 3.375 C-3.6078125 2.42753906 -3.6078125 2.42753906 -2.1875 1.4609375 C-1.465625 0.97882813 -0.74375 0.49671875 0 0 Z " fill="#E9242C" transform="translate(267,201)"/>
<path d="M0 0 C0 0.66 0 1.32 0 2 C-1.65532623 3.01866229 -3.32260138 4.01810813 -5 5 C-5.33 5.66 -5.66 6.32 -6 7 C-6.99 7 -7.98 7 -9 7 C-9 7.66 -9 8.32 -9 9 C-10.63631892 10.04892238 -12.30485863 11.04906703 -14 12 C-15.89281558 13.89281558 -15.17468256 17.20606717 -15.20532227 19.72290039 C-15.21522186 20.4253035 -15.22512146 21.1277066 -15.23532104 21.85139465 C-15.26702122 24.18344704 -15.29172688 26.51551984 -15.31640625 28.84765625 C-15.33696844 30.46049035 -15.35796471 32.07331896 -15.37937927 33.68614197 C-15.43467592 37.93909275 -15.48405156 42.19209277 -15.53222656 46.44512939 C-15.58238631 50.78182375 -15.63810115 55.11844627 -15.69335938 59.45507812 C-15.80103377 67.9699931 -15.90194488 76.48496881 -16 85 C-9.07 85.33 -2.14 85.66 5 86 C5.94888638 82.20445448 6.15488406 79.19465839 6.20532227 75.30371094 C6.21522186 74.63988403 6.22512146 73.97605713 6.23532104 73.29211426 C6.2668126 71.10623698 6.29164437 68.920338 6.31640625 66.734375 C6.33698645 65.21550951 6.35798321 63.69664962 6.37937927 62.17779541 C6.43448984 58.18628475 6.48394753 54.19472335 6.53222656 50.203125 C6.58252217 46.1275584 6.63816611 42.0520652 6.69335938 37.9765625 C6.80080616 29.98443712 6.90228087 21.99225021 7 14 C9.76264289 13.40267181 12.16032769 13 15 13 C15 13.66 15 14.32 15 15 C13.02 15.99 11.04 16.98 9 18 C8.9845388 19.29332497 8.9845388 19.29332497 8.96876526 20.61277771 C8.87096402 28.72113148 8.76847486 36.82940931 8.66066074 44.93763638 C8.60539364 49.10659016 8.55196774 53.27555091 8.50268555 57.44458008 C8.45509765 61.46463894 8.40275714 65.48460989 8.34705925 69.50456429 C8.32661034 71.04160447 8.30790153 72.57866879 8.29092598 74.11575127 C8.2669378 76.26142006 8.23687617 78.40692129 8.20532227 80.55249023 C8.18977798 81.77604721 8.1742337 82.99960419 8.15821838 84.26023865 C8 87 8 87 7 88 C5.23140807 88.09946453 3.45888549 88.13080217 1.6875 88.1328125 C0.61242187 88.13410156 -0.46265625 88.13539063 -1.5703125 88.13671875 C-2.70210937 88.13285156 -3.83390625 88.12898438 -5 88.125 C-6.13179687 88.12886719 -7.26359375 88.13273437 -8.4296875 88.13671875 C-9.50476563 88.13542969 -10.57984375 88.13414062 -11.6875 88.1328125 C-12.68136719 88.13168457 -13.67523438 88.13055664 -14.69921875 88.12939453 C-17 88 -17 88 -18 87 C-18.1208173 84.72658398 -18.17030355 82.44936379 -18.19287109 80.17285156 C-18.20104858 79.45897278 -18.20922607 78.74509399 -18.21765137 78.00958252 C-18.24255274 75.63660532 -18.25903527 73.26368821 -18.2734375 70.890625 C-18.27876118 70.08137321 -18.28408485 69.27212143 -18.28956985 68.43834686 C-18.31632486 64.15324347 -18.33569025 59.86816942 -18.35009766 55.58300781 C-18.36673162 51.15634584 -18.41149131 46.73043043 -18.4624691 42.30405045 C-18.49613401 38.90166371 -18.50767434 35.49945405 -18.51332474 32.0969162 C-18.52004177 30.46541402 -18.53527577 28.83392367 -18.55921555 27.20258331 C-18.59084992 24.91601467 -18.59090747 22.63145674 -18.58349609 20.34472656 C-18.59158295 19.04424377 -18.5996698 17.74376099 -18.60800171 16.40386963 C-17.84249354 12.11820734 -16.36657388 10.67119998 -13 8 C-12.01 7.67 -11.02 7.34 -10 7 C-10 6.34 -10 5.68 -10 5 C-8.3203125 3.7109375 -8.3203125 3.7109375 -6.125 2.375 C-5.40570313 1.92898438 -4.68640625 1.48296875 -3.9453125 1.0234375 C-2 0 -2 0 0 0 Z " fill="#DC4E50" transform="translate(220,324)"/>
<path d="M0 0 C1.87558594 0.01160156 1.87558594 0.01160156 3.7890625 0.0234375 C3.79936996 1.18188675 3.80967743 2.340336 3.82029724 3.53388977 C3.917946 14.4376721 4.02067198 25.34139628 4.12840176 36.24508381 C4.18362593 41.85111321 4.2370452 47.45714783 4.28637695 53.06323242 C4.33402785 58.47082817 4.38637104 63.87835981 4.44200325 69.28587914 C4.46242349 71.35157874 4.48113712 73.41729592 4.49813652 75.4830265 C4.52218774 78.37066646 4.55224148 81.258185 4.58374023 84.14575195 C4.59237343 85.43400124 4.59237343 85.43400124 4.60118103 86.74827576 C4.64267236 90.08256477 4.72756658 92.83894973 5.7890625 96.0234375 C9.63197629 98.05792127 13.5221767 98.44904903 17.7890625 99.0234375 C18.7890625 100.0234375 18.7890625 100.0234375 18.88671875 103.40234375 C18.88004619 104.79690827 18.86808782 106.19145493 18.8515625 107.5859375 C18.84705078 108.29685547 18.84253906 109.00777344 18.83789062 109.74023438 C18.82607114 111.50133763 18.80813513 113.26239786 18.7890625 115.0234375 C13.10727806 118.49870371 5.51523701 117.66569046 -0.83984375 116.5703125 C-2.64716049 116.11767503 -4.43323316 115.58114867 -6.2109375 115.0234375 C-6.2109375 114.6934375 -6.2109375 114.3634375 -6.2109375 114.0234375 C1.0490625 114.0234375 8.3090625 114.0234375 15.7890625 114.0234375 C15.7890625 109.4034375 15.7890625 104.7834375 15.7890625 100.0234375 C12.8190625 100.5184375 12.8190625 100.5184375 9.7890625 101.0234375 C7.70703125 100.16796875 7.70703125 100.16796875 5.9765625 98.8359375 C5.39261719 98.40925781 4.80867188 97.98257813 4.20703125 97.54296875 C0.69573071 93.7801701 1.65479814 88.04129004 1.67553711 83.21582031 C1.67539108 82.32766129 1.67524506 81.43950226 1.6750946 80.52442932 C1.6757907 77.59178212 1.68356893 74.6591986 1.69140625 71.7265625 C1.69327151 69.6920373 1.6946949 67.65751165 1.69569397 65.62298584 C1.69951066 60.27019001 1.70933374 54.91742134 1.72039795 49.56463623 C1.73063028 44.10168831 1.7351955 38.63873599 1.74023438 33.17578125 C1.75095674 22.4583214 1.76802302 11.74088171 1.7890625 1.0234375 C1.1290625 1.0234375 0.4690625 1.0234375 -0.2109375 1.0234375 C-0.2109375 1.6834375 -0.2109375 2.3434375 -0.2109375 3.0234375 C-4.1709375 3.0234375 -8.1309375 3.0234375 -12.2109375 3.0234375 C-8.83664532 -0.35085468 -4.5648433 -0.02823614 0 0 Z " fill="#CC2C30" transform="translate(413.2109375,295.9765625)"/>
<path d="M0 0 C1.134375 0.020625 2.26875 0.04125 3.4375 0.0625 C3.1075 0.7225 2.7775 1.3825 2.4375 2.0625 C1.1175 2.0625 -0.2025 2.0625 -1.5625 2.0625 C-1.75910714 6.16628388 -1.9432276 10.27053438 -2.125 14.375 C-2.18107422 15.54224609 -2.23714844 16.70949219 -2.29492188 17.91210938 C-2.34326172 19.03037109 -2.39160156 20.14863281 -2.44140625 21.30078125 C-2.4885376 22.33243408 -2.53566895 23.36408691 -2.58422852 24.42700195 C-2.69706255 27.17280537 -2.69706255 27.17280537 -1.5625 30.0625 C-1.45996949 32.1566794 -1.41668266 34.25393186 -1.40478516 36.35058594 C-1.39452301 37.64913513 -1.38426086 38.94768433 -1.37368774 40.2855835 C-1.37024982 40.97960014 -1.3668119 41.67361679 -1.36326981 42.38866425 C-1.35145421 44.56683859 -1.33199314 46.74481702 -1.31015015 48.9229126 C-1.24863488 55.11553364 -1.19457881 61.30813525 -1.16113281 67.50097656 C-1.14011348 71.29122565 -1.10475043 75.08111801 -1.06037521 78.87116241 C-1.04626979 80.31111687 -1.03750516 81.75113446 -1.03432083 83.19115448 C-1.08834589 93.54596575 -1.08834589 93.54596575 2.4375 103.0625 C2.7675 104.0525 3.0975 105.0425 3.4375 106.0625 C2.7775 106.0625 2.1175 106.0625 1.4375 106.0625 C0.61738688 104.50398245 -0.19326213 102.94048284 -1 101.375 C-1.45246094 100.50488281 -1.90492188 99.63476562 -2.37109375 98.73828125 C-4.78319437 93.32094051 -4.70623534 88.07267724 -4.69189453 82.24902344 C-4.69364685 81.37207825 -4.69539917 80.49513306 -4.69720459 79.59161377 C-4.70159553 76.70168055 -4.69869584 73.81180881 -4.6953125 70.921875 C-4.69598609 68.91359444 -4.69695657 66.90531397 -4.69821167 64.89703369 C-4.6996847 60.69404319 -4.69754584 56.49107397 -4.69287109 52.28808594 C-4.68715934 46.88843987 -4.69046443 41.48884334 -4.69644356 36.08919907 C-4.7000473 31.94581729 -4.69891171 27.80244737 -4.69631577 23.65906525 C-4.69564674 21.66705571 -4.69647408 19.6750451 -4.69879532 17.6830368 C-4.70132036 14.90812803 -4.69748404 12.13330107 -4.69189453 9.35839844 C-4.69391876 8.52828247 -4.69594299 7.6981665 -4.69802856 6.84289551 C-4.67265722 0.08197644 -4.67265722 0.08197644 0 0 Z " fill="#DF3E43" transform="translate(396.5625,298.9375)"/>
<path d="M0 0 C0.02312215 11.71726788 0.04091443 23.43453037 0.05181217 35.15181637 C0.05704128 40.59202312 0.06413943 46.03221431 0.07543945 51.47241211 C0.08626735 56.71785702 0.09227662 61.96328692 0.09487724 67.20874214 C0.09673167 69.21470946 0.10035262 71.22067592 0.10573006 73.22663689 C0.11293919 76.02602824 0.113991 78.82535679 0.11352539 81.62475586 C0.11712067 82.46272705 0.12071594 83.30069824 0.12442017 84.1640625 C0.11405216 89.88594784 0.11405216 89.88594784 -1 91 C-2.69558726 91.09932153 -4.39525747 91.13080007 -6.09375 91.1328125 C-7.12371094 91.13410156 -8.15367187 91.13539063 -9.21484375 91.13671875 C-10.84099609 91.13091797 -10.84099609 91.13091797 -12.5 91.125 C-13.58410156 91.12886719 -14.66820312 91.13273437 -15.78515625 91.13671875 C-16.81511719 91.13542969 -17.84507812 91.13414062 -18.90625 91.1328125 C-19.85822266 91.13168457 -20.81019531 91.13055664 -21.79101562 91.12939453 C-24 91 -24 91 -25 90 C-25.09512944 87.32212027 -25.12555279 84.67011131 -25.11352539 81.99194336 C-25.11367142 81.15299026 -25.11381744 80.31403717 -25.1139679 79.44966125 C-25.1132685 76.66302956 -25.10547485 73.87646384 -25.09765625 71.08984375 C-25.09579217 69.16313209 -25.09436822 67.23641995 -25.09336853 65.30970764 C-25.08954259 60.22812603 -25.07971166 55.1465728 -25.06866455 50.06500244 C-25.05845206 44.88383366 -25.05387126 39.70266031 -25.04882812 34.52148438 C-25.03808946 24.34764375 -25.02101213 14.17382423 -25 4 C-24.34 3.67 -23.68 3.34 -23 3 C-23.33 31.05 -23.66 59.1 -24 88 C-16.41 88.33 -8.82 88.66 -1 89 C-1 59.96 -1 30.92 -1 1 C-1.99 1.495 -1.99 1.495 -3 2 C-4.3734635 2.15004973 -5.7528526 2.24838006 -7.1328125 2.31640625 C-7.93847656 2.35830078 -8.74414062 2.40019531 -9.57421875 2.44335938 C-10.41597656 2.48267578 -11.25773438 2.52199219 -12.125 2.5625 C-12.97449219 2.60568359 -13.82398438 2.64886719 -14.69921875 2.69335938 C-16.79928223 2.79954236 -18.89961948 2.90028497 -21 3 C-21 2.67 -21 2.34 -21 2 C-17.87667597 1.46875883 -14.75115646 0.95178867 -11.625 0.4375 C-10.73554688 0.28603516 -9.84609375 0.13457031 -8.9296875 -0.02148438 C-8.07890625 -0.16005859 -7.228125 -0.29863281 -6.3515625 -0.44140625 C-5.56604004 -0.57232666 -4.78051758 -0.70324707 -3.97119141 -0.83813477 C-2 -1 -2 -1 0 0 Z " fill="#DF7376" transform="translate(187,321)"/>
<path d="M0 0 C2.31243792 -0.02685412 4.6249627 -0.04632841 6.9375 -0.0625 C8.22527344 -0.07410156 9.51304687 -0.08570313 10.83984375 -0.09765625 C14 0 14 0 15 1 C15.08631874 2.34267413 15.10706473 3.68974322 15.09765625 5.03515625 C15.09443359 5.84404297 15.09121094 6.65292969 15.08789062 7.48632812 C15.07951172 8.33646484 15.07113281 9.18660156 15.0625 10.0625 C15.05798828 10.91650391 15.05347656 11.77050781 15.04882812 12.65039062 C15.03700373 14.76695663 15.01906769 16.88348685 15 19 C10.05 19 5.1 19 0 19 C0.06887538 25.88715756 0.15684333 32.77370795 0.26245117 39.66040039 C0.29568906 42.00277978 0.3237245 44.34523904 0.34643555 46.68774414 C0.38000168 50.05649833 0.43232019 53.42452131 0.48828125 56.79296875 C0.49467117 57.83897751 0.5010611 58.88498627 0.50764465 59.96269226 C0.56257219 67.00932824 0.56257219 67.00932824 4 73 C6.43882304 73.98718272 6.43882304 73.98718272 9.125 74.25 C13.94915254 74.94915254 13.94915254 74.94915254 15 76 C15.07313567 78.53049402 15.09247527 81.03304837 15.0625 83.5625 C15.05798828 84.27341797 15.05347656 84.98433594 15.04882812 85.71679688 C15.03700864 87.47790013 15.01907263 89.23896036 15 91 C6.55677933 94.04390788 -0.43571 93.26761343 -9 91 C-9 90.67 -9 90.34 -9 90 C-2.07 90 4.86 90 12 90 C13.49084832 85.52745503 13.49084832 81.47254497 12 77 C10.948125 77.103125 9.89625 77.20625 8.8125 77.3125 C5 77 5 77 2.125 74.6875 C-0.81613915 70.96782402 -1.12444759 68.39243501 -1.11352539 63.79418945 C-1.11344986 62.73331619 -1.11337433 61.67244293 -1.11329651 60.579422 C-1.10813522 59.43559555 -1.10297394 58.2917691 -1.09765625 57.11328125 C-1.0962413 55.94113571 -1.09482635 54.76899017 -1.09336853 53.56132507 C-1.08776388 49.81169093 -1.07521056 46.06211615 -1.0625 42.3125 C-1.0574856 39.77278732 -1.05292259 37.2330737 -1.04882812 34.69335938 C-1.03779294 28.46221665 -1.02052515 22.2311184 -1 16 C2.96 16 6.92 16 11 16 C11.33 12.37 11.66 8.74 12 5 C11.21753906 4.80664062 10.43507813 4.61328125 9.62890625 4.4140625 C8.11103516 4.02347656 8.11103516 4.02347656 6.5625 3.625 C5.04849609 3.24214844 5.04849609 3.24214844 3.50390625 2.8515625 C1 2 1 2 0 0 Z " fill="#CF2830" transform="translate(287,320)"/>
<path d="M0 0 C1.65 0 3.3 0 5 0 C5.8709379 1.72078041 6.72114558 3.45206323 7.5625 5.1875 C8.03816406 6.15042969 8.51382813 7.11335938 9.00390625 8.10546875 C10.10119316 11.29405542 10.0301446 12.83075733 9 16 C8.505 16.495 8.505 16.495 8 17 C5.66666667 17 3.33333333 17 1 17 C0.34 17.33 -0.32 17.66 -1 18 C-1 16.02 -1 14.04 -1 12 C-1.66 12 -2.32 12 -3 12 C-3 10.68 -3 9.36 -3 8 C-10.26 8 -17.52 8 -25 8 C-25 7.67 -25 7.34 -25 7 C-23.62328125 6.83564453 -23.62328125 6.83564453 -22.21875 6.66796875 C-15.35509702 5.78117325 -9.38166356 4.64899242 -3 2 C-2.01 2 -1.02 2 0 2 C0 1.34 0 0.68 0 0 Z " fill="#EA1C24" transform="translate(371,388)"/>
<path d="M0 0 C3.83955573 3.83955573 4.25037881 8.64778251 4.2746582 13.88183594 C4.28419022 15.01611023 4.29372223 16.15038452 4.30354309 17.31903076 C4.30263168 18.52859436 4.30172028 19.73815796 4.30078125 20.984375 C4.30506638 22.23631653 4.3093515 23.48825806 4.31376648 24.77813721 C4.31949886 27.41750231 4.32095701 30.05647478 4.31567383 32.69580078 C4.30985107 36.08107078 4.32689088 39.46579862 4.3500185 42.85097885 C4.3682537 46.08294064 4.36457213 49.31487098 4.36328125 52.546875 C4.372491 53.76453552 4.38170074 54.98219604 4.39118958 56.23675537 C4.38496078 57.35842102 4.37873199 58.48008667 4.37231445 59.63574219 C4.37294388 60.62580261 4.3735733 61.61586304 4.3742218 62.63592529 C4.25072861 63.41606995 4.12723541 64.1962146 4 65 C2.515 65.99 2.515 65.99 1 67 C1.00222061 66.35235184 1.00444122 65.70470367 1.00672913 65.03742981 C1.02901464 58.23923296 1.04400272 51.44104665 1.05493164 44.64282227 C1.05993123 42.11254453 1.06673309 39.58226965 1.07543945 37.05200195 C1.08769804 33.39533787 1.09327221 29.73871228 1.09765625 26.08203125 C1.10281754 24.96794388 1.10797882 23.85385651 1.11329651 22.70600891 C1.11382872 15.09507942 0.68460299 7.57943949 0 0 Z " fill="#E25E63" transform="translate(144,334)"/>
<path d="M0 0 C0.45375 0.61875 0.9075 1.2375 1.375 1.875 C4.7442429 4.60248235 7.64138621 4.94528305 11.85546875 5.60546875 C14 6 14 6 15 7 C15.07313567 9.53049402 15.09247527 12.03304837 15.0625 14.5625 C15.05798828 15.27341797 15.05347656 15.98433594 15.04882812 16.71679688 C15.03700864 18.47790013 15.01907263 20.23896036 15 22 C9.31821556 25.47526621 1.72617451 24.64225296 -4.62890625 23.546875 C-6.43622299 23.09423753 -8.22229566 22.55771117 -10 22 C-10 21.67 -10 21.34 -10 21 C-2.74 21 4.52 21 12 21 C12 16.38 12 11.76 12 7 C10.02 7.33 8.04 7.66 6 8 C3.8828125 7.00390625 3.8828125 7.00390625 2.125 5.5625 C1.52945312 5.08941406 0.93390625 4.61632812 0.3203125 4.12890625 C-0.33324219 3.57009766 -0.33324219 3.57009766 -1 3 C-0.67 2.01 -0.34 1.02 0 0 Z " fill="#E45759" transform="translate(417,389)"/>
<path d="M0 0 C0 0.66 0 1.32 0 2 C-1.65532623 3.01866229 -3.32260138 4.01810813 -5 5 C-5.33 5.66 -5.66 6.32 -6 7 C-6.99 7 -7.98 7 -9 7 C-9 7.66 -9 8.32 -9 9 C-10.63631892 10.04892238 -12.30485863 11.04906703 -14 12 C-15.89281558 13.89281558 -15.17468256 17.20606717 -15.20532227 19.72290039 C-15.21522186 20.4253035 -15.22512146 21.1277066 -15.23532104 21.85139465 C-15.26702122 24.18344704 -15.29172688 26.51551984 -15.31640625 28.84765625 C-15.33696844 30.46049035 -15.35796471 32.07331896 -15.37937927 33.68614197 C-15.43467592 37.93909275 -15.48405156 42.19209277 -15.53222656 46.44512939 C-15.58238631 50.78182375 -15.63810115 55.11844627 -15.69335938 59.45507812 C-15.80103375 67.96999141 -15.90245795 76.48496465 -16 85 C-16.33 85 -16.66 85 -17 85 C-17.11591075 75.56843939 -17.2047234 66.13712438 -17.25906086 56.7050066 C-17.28514188 52.32513564 -17.3205118 47.94575238 -17.37719727 43.56616211 C-17.43157163 39.33861698 -17.46143179 35.11154057 -17.47438622 30.88367271 C-17.48361648 29.27169097 -17.50164159 27.65973455 -17.52865028 26.04795265 C-17.56501547 23.78767336 -17.56994264 21.52932415 -17.56762695 19.26879883 C-17.57873001 17.98306473 -17.58983307 16.69733063 -17.60127258 15.37263489 C-16.84488174 11.12991669 -15.33646541 9.63577759 -12 7 C-11.34 7 -10.68 7 -10 7 C-10 6.34 -10 5.68 -10 5 C-8.3203125 3.7109375 -8.3203125 3.7109375 -6.125 2.375 C-5.40570313 1.92898438 -4.68640625 1.48296875 -3.9453125 1.0234375 C-2 0 -2 0 0 0 Z " fill="#E3242B" transform="translate(220,324)"/>
<path d="M0 0 C0.99 0 1.98 0 3 0 C3 0.66 3 1.32 3 2 C4.32 2 5.64 2 7 2 C7 2.99 7 3.98 7 5 C6.34 5 5.68 5 5 5 C5.020625 6.299375 5.04125 7.59875 5.0625 8.9375 C5.08399454 10.29165633 5.07148199 11.64756083 5 13 C3.34687455 14.65312545 1.3576734 14.20633174 -0.91796875 14.28125 C-2.42907227 14.33732422 -2.42907227 14.33732422 -3.97070312 14.39453125 C-5.56301758 14.44673828 -5.56301758 14.44673828 -7.1875 14.5 C-16.14416172 14.73891582 -16.14416172 14.73891582 -25 16 C-25 16.66 -25 17.32 -25 18 C-26.98 18 -28.96 18 -31 18 C-31 18.66 -31 19.32 -31 20 C-32.32 19.67 -33.64 19.34 -35 19 C-33.69693373 18.19289985 -32.38179035 17.40529823 -31.0625 16.625 C-30.33160156 16.18414062 -29.60070312 15.74328125 -28.84765625 15.2890625 C-21.58279326 12.00044139 -14.3044029 11.72493435 -6.4375 11.875 C-5.52419922 11.88402344 -4.61089844 11.89304687 -3.66992188 11.90234375 C-1.44632681 11.92562747 0.77668677 11.9583229 3 12 C2.68950274 10.56206608 2.3765224 9.1246682 2.0625 7.6875 C1.88847656 6.88699219 1.71445313 6.08648437 1.53515625 5.26171875 C1.00113841 2.854599 1.00113841 2.854599 0 0 Z " fill="#C92F35" transform="translate(120,339)"/>
<path d="M0 0 C0.33 0 0.66 0 1 0 C1.47118031 18.85446117 1.26160572 42.75723977 -12 58 C-12.13306769 53.3426308 -11.47141819 49.41425456 -10 45 C-9.01 45 -8.02 45 -7 45 C-6.67 42.03 -6.34 39.06 -6 36 C-5.34 36 -4.68 36 -4 36 C-4.020625 35.195625 -4.04125 34.39125 -4.0625 33.5625 C-4 31 -4 31 -3 30 C-0.42266394 20.17390628 -0.36168975 10.10084791 0 0 Z " fill="#DE585F" transform="translate(343,102)"/>
<path d="M0 0 C0.7417749 0.00128906 1.4835498 0.00257813 2.24780273 0.00390625 C7.56929938 0.09766679 11.70944958 0.86626149 16.5 3.3125 C16.125 6.25 16.125 6.25 15.5 9.3125 C14.84 9.6425 14.18 9.9725 13.5 10.3125 C13.17 8.3325 12.84 6.3525 12.5 4.3125 C10.85 4.6425 9.2 4.9725 7.5 5.3125 C7.5 5.9725 7.5 6.6325 7.5 7.3125 C6.84 7.3125 6.18 7.3125 5.5 7.3125 C5.5 6.6525 5.5 5.9925 5.5 5.3125 C3.85 5.3125 2.2 5.3125 0.5 5.3125 C0.5 4.6525 0.5 3.9925 0.5 3.3125 C-5.94070471 3.20594422 -12.12641289 3.35044912 -18.5 4.3125 C-13.91778177 -0.26971823 -6.15717917 -0.04462229 0 0 Z " fill="#DB3D44" transform="translate(241.5,318.6875)"/>
<path d="M0 0 C0.7425 0.61875 1.485 1.2375 2.25 1.875 C2.25 2.205 2.25 2.535 2.25 2.875 C-1.05 2.875 -4.35 2.875 -7.75 2.875 C-8.08 2.215 -8.41 1.555 -8.75 0.875 C-9.08 0.545 -9.41 0.215 -9.75 -0.125 C-9.75 -0.785 -9.75 -1.445 -9.75 -2.125 C-12.33361518 -2.17907567 -14.91609255 -2.218707 -17.5 -2.25 C-18.22960937 -2.26675781 -18.95921875 -2.28351563 -19.7109375 -2.30078125 C-23.5544624 -2.33572239 -26.49606772 -2.29999684 -29.75 -0.125 C-30.08 -0.455 -30.41 -0.785 -30.75 -1.125 C-33.08944736 -0.83769945 -35.4239143 -0.50563221 -37.75 -0.125 C-28.69556986 -8.78575926 -9.62488385 -6.23455833 0 0 Z M-31.75 -0.125 C-29.75 0.875 -29.75 0.875 -29.75 0.875 Z " fill="#DF585C" transform="translate(365.75,324.125)"/>
<path d="M0 0 C2.68125 0.061875 5.3625 0.12375 8.125 0.1875 C8.125 8.7675 8.125 17.3475 8.125 26.1875 C5.815 26.5175 3.505 26.8475 1.125 27.1875 C4.125 25.1875 4.125 25.1875 6.125 25.1875 C6.125 17.2675 6.125 9.3475 6.125 1.1875 C3.918125 1.27 1.71125 1.3525 -0.5625 1.4375 C-1.80386719 1.48390625 -3.04523438 1.5303125 -4.32421875 1.578125 C-9.25535376 2.42439239 -11.61451908 4.62276506 -14.6875 8.4375 C-15.079375 9.015 -15.47125 9.5925 -15.875 10.1875 C-15.75 6.875 -15.75 6.875 -14.875 3.1875 C-9.98632257 -0.17346573 -5.68379014 -0.18638081 0 0 Z " fill="#DD323A" transform="translate(116.875,367.8125)"/>
<path d="M0 0 C0 0.66 0 1.32 0 2 C-1.98 2.99 -3.96 3.98 -6 5 C-6.33 27.77 -6.66 50.54 -7 74 C-7.33 74 -7.66 74 -8 74 C-8 49.91 -8 25.82 -8 1 C-5.29120665 -0.35439668 -2.99066732 -0.06501451 0 0 Z " fill="#CA4647" transform="translate(235,337)"/>
<path d="M0 0 C0.66 0 1.32 0 2 0 C1.01 3.63 0.02 7.26 -1 11 C5.93 11 12.86 11 20 11 C19.67 8.36 19.34 5.72 19 3 C19.99 3.66 20.98 4.32 22 5 C22 7.64 22 10.28 22 13 C13.75 13 5.5 13 -3 13 C-4.41687119 8.74938644 -3.19320039 6.28148375 -2 2 C-1.34 2 -0.68 2 0 2 C0 1.34 0 0.68 0 0 Z " fill="#DA2D31" transform="translate(335,342)"/>
<path d="M0 0 C0.45375 0.78375 0.9075 1.5675 1.375 2.375 C4.72045469 5.72045469 7.28818879 5.97191637 11.85546875 6.640625 C14 7 14 7 15 8 C15.07313567 10.53049402 15.09247527 13.03304837 15.0625 15.5625 C15.05798828 16.27341797 15.05347656 16.98433594 15.04882812 17.71679688 C15.03700864 19.47790013 15.01907263 21.23896036 15 23 C6.55677933 26.04390788 -0.43571 25.26761343 -9 23 C-9 22.67 -9 22.34 -9 22 C-2.07 22 4.86 22 12 22 C13.49084832 17.52745503 13.49084832 13.47254497 12 9 C10.948125 9.103125 9.89625 9.20625 8.8125 9.3125 C5 9 5 9 2.0625 6.75 C0 4 0 4 0 0 Z " fill="#E06066" transform="translate(287,388)"/>
<path d="M0 0 C3.14565046 -0.08845016 6.29097375 -0.14086835 9.4375 -0.1875 C10.31599609 -0.21263672 11.19449219 -0.23777344 12.09960938 -0.26367188 C18.58429393 -0.33545805 25.73819595 0.01186926 30.75170898 4.60473633 C31.16364502 5.06517334 31.57558105 5.52561035 32 6 C30.02 6 28.04 6 26 6 C26 6.99 26 7.98 26 9 C25.34 9 24.68 9 24 9 C24 8.01 24 7.02 24 6 C23.01 6 22.02 6 21 6 C21 4.68 21 3.36 21 2 C13.74 2 6.48 2 -1 2 C-0.67 1.34 -0.34 0.68 0 0 Z " fill="#D84248" transform="translate(104,319)"/>
<path d="M0 0 C0 0.66 0 1.32 0 2 C-1.051875 2.0825 -2.10375 2.165 -3.1875 2.25 C-7.31626847 3.06221675 -8.84347482 4.36956235 -12 7 C-12.99 6.67 -13.98 6.34 -15 6 C-21.04342131 6 -27.06051933 6.93393937 -33 8 C-30.81220817 5.81220817 -29.8173435 5.50595502 -26.89453125 4.74609375 C-26.07533203 4.53146484 -25.25613281 4.31683594 -24.41210938 4.09570312 C-23.55423828 3.87849609 -22.69636719 3.66128906 -21.8125 3.4375 C-20.97396484 3.21642578 -20.13542969 2.99535156 -19.27148438 2.76757812 C-12.88540739 1.11746768 -6.63425851 -0.20103814 0 0 Z " fill="#DF575C" transform="translate(274,55)"/>
<path d="M0 0 C0 7.92 0 15.84 0 24 C-0.66 24.33 -1.32 24.66 -2 25 C-2.33 17.74 -2.66 10.48 -3 3 C-6.63 3 -10.26 3 -14 3 C-14 2.34 -14 1.68 -14 1 C-9.1706254 0.21153068 -4.96762993 0 0 0 Z " fill="#C32328" transform="translate(287,296)"/>
<path d="M0 0 C1.98 0 3.96 0 6 0 C-0.01351163 6.43263517 -9.61831309 9.13103288 -18 11 C-18.99 10.67 -19.98 10.34 -21 10 C-20.67 9.01 -20.34 8.02 -20 7 C-16.7 6.67 -13.4 6.34 -10 6 C-9.67 5.01 -9.34 4.02 -9 3 C-7.824375 3.0309375 -7.824375 3.0309375 -6.625 3.0625 C-4.01885039 3.18684063 -4.01885039 3.18684063 -2 2 C-1.34 2.33 -0.68 2.66 0 3 C0 2.01 0 1.02 0 0 Z " fill="#DE3B3F" transform="translate(217,151)"/>
<path d="M0 0 C2 1 2 1 4 3 C4 4.65 4 6.3 4 8 C7.96 8.33 11.92 8.66 16 9 C15.01 9.99 14.02 10.98 13 12 C13.66 13.32 14.32 14.64 15 16 C14.34 16.33 13.68 16.66 13 17 C7.40741702 14.4675096 3.83020377 11.50646341 1 6 C0.1875 2.5625 0.1875 2.5625 0 0 Z " fill="#E4343B" transform="translate(263,393)"/>
<path d="M0 0 C0.66 0.99 1.32 1.98 2 3 C0.7260411 5.03833424 -0.61061923 7.03852126 -2 9 C-2.66 9 -3.32 9 -4 9 C-4 9.99 -4 10.98 -4 12 C-4.66 12 -5.32 12 -6 12 C-6.2475 13.27875 -6.495 14.5575 -6.75 15.875 C-7.70496485 19.79173989 -7.70496485 19.79173989 -10.125 21.5 C-11.053125 21.7475 -11.053125 21.7475 -12 22 C-12 21.34 -12 20.68 -12 20 C-11.34 20 -10.68 20 -10 20 C-10 19.34 -10 18.68 -10 18 C-10.66 18 -11.32 18 -12 18 C-11.42906273 14.18510094 -9.73941063 12.32534786 -7.125 9.5625 C-4.27770485 6.54184555 -2.03328715 3.62538936 0 0 Z " fill="#E13B3E" transform="translate(296,169)"/>
<path d="M0 0 C1.65 0 3.3 0 5 0 C5.33 1.65 5.66 3.3 6 5 C5.29875 4.62875 4.5975 4.2575 3.875 3.875 C0.23556349 2.76734541 -1.55700411 3.55874591 -5 5 C-5 5.66 -5 6.32 -5 7 C-7.70716242 7.90238747 -9.23776768 8.11851302 -12.01171875 8.09765625 C-13.14770508 8.09282227 -13.14770508 8.09282227 -14.30664062 8.08789062 C-15.09232422 8.07951172 -15.87800781 8.07113281 -16.6875 8.0625 C-17.48478516 8.05798828 -18.28207031 8.05347656 -19.10351562 8.04882812 C-21.06904257 8.0370585 -23.03453085 8.01912348 -25 8 C-25 7.67 -25 7.34 -25 7 C-23.62328125 6.83564453 -23.62328125 6.83564453 -22.21875 6.66796875 C-15.35509702 5.78117325 -9.38166356 4.64899242 -3 2 C-2.01 2 -1.02 2 0 2 C0 1.34 0 0.68 0 0 Z " fill="#D9454A" transform="translate(371,388)"/>
<path d="M0 0 C1.134375 0.020625 2.26875 0.04125 3.4375 0.0625 C3.1075 0.7225 2.7775 1.3825 2.4375 2.0625 C1.1175 2.0625 -0.2025 2.0625 -1.5625 2.0625 C-2.2225 10.9725 -2.8825 19.8825 -3.5625 29.0625 C-3.8925 29.0625 -4.2225 29.0625 -4.5625 29.0625 C-4.58715881 25.09319011 -4.60534023 21.12390966 -4.61743164 17.15454102 C-4.62247057 15.80329614 -4.62930177 14.45205674 -4.63793945 13.10083008 C-4.65002419 11.16229566 -4.65519828 9.223722 -4.66015625 7.28515625 C-4.66539307 6.11734619 -4.67062988 4.94953613 -4.67602539 3.74633789 C-4.50310279 -0.34170118 -4.2325551 0.07425535 0 0 Z " fill="#D74648" transform="translate(396.5625,298.9375)"/>
<path d="M0 0 C2.97 0 5.94 0 9 0 C6.20234299 1.86510467 4.02853277 2.7568302 0.875 3.8125 C-3.81184266 5.46192006 -7.96825783 7.49269729 -12.22265625 10.046875 C-14 11 -14 11 -16 11 C-16 8 -16 8 -14 6 C-10.3684282 4.57895017 -7.9446398 4 -4 4 C-4 3.34 -4 2.68 -4 2 C-2.68 2 -1.36 2 0 2 C0 1.34 0 0.68 0 0 Z " fill="#E15C64" transform="translate(276,117)"/>
<path d="M0 0 C2.42306346 2.31771288 3.88587818 3.76002249 4.203125 7.20703125 C4.29502506 12.31514293 4.33602297 15.82997129 1 20 C0.34 19.67 -0.32 19.34 -1 19 C-1 18.34 -1 17.68 -1 17 C-0.34 17 0.32 17 1 17 C1.17252864 11.91040514 0.96625771 8.7190185 -1 4 C-0.625 1.6875 -0.625 1.6875 0 0 Z " fill="#DA3F44" transform="translate(246,174)"/>
<path d="M0 0 C1.32 0 2.64 0 4 0 C6.90770954 5.68567876 7.3864851 10.10569223 7.1875 16.4375 C7.17396484 17.26443359 7.16042969 18.09136719 7.14648438 18.94335938 C7.11146992 20.9625264 7.05767562 22.98135318 7 25 C6.34 24.67 5.68 24.34 5 24 C4.96132813 22.28103516 4.96132813 22.28103516 4.921875 20.52734375 C4.86555657 18.9973597 4.8082101 17.46741325 4.75 15.9375 C4.73582031 15.18533203 4.72164063 14.43316406 4.70703125 13.65820312 C4.46429981 8.05110676 3.10573887 4.67724274 0 0 Z " fill="#D94E51" transform="translate(304,120)"/>
<path d="M0 0 C0 0.99 0 1.98 0 3 C-0.99 3.495 -0.99 3.495 -2 4 C-3.11634152 5.65051288 -3.11634152 5.65051288 -4.125 7.5625 C-5.053125 9.2640625 -5.053125 9.2640625 -6 11 C-7.175625 10.9071875 -7.175625 10.9071875 -8.375 10.8125 C-9.674375 10.9053125 -9.674375 10.9053125 -11 11 C-11.99 12.485 -11.99 12.485 -13 14 C-14.32 13.67 -15.64 13.34 -17 13 C-11.25 8 -11.25 8 -9 8 C-9 7.34 -9 6.68 -9 6 C-7.03125 4.4921875 -7.03125 4.4921875 -4.5 2.875 C-3.24703125 2.06675781 -3.24703125 2.06675781 -1.96875 1.2421875 C-1.3190625 0.83226563 -0.669375 0.42234375 0 0 Z " fill="#DD4045" transform="translate(202,83)"/>
<path d="M0 0 C0.33 0.66 0.66 1.32 1 2 C0.0625 4.125 0.0625 4.125 -1 6 C-1.66 6 -2.32 6 -3 6 C-3 8.64 -3 11.28 -3 14 C-3.99 14 -4.98 14 -6 14 C-7.32 17.3 -8.64 20.6 -10 24 C-10.33 24 -10.66 24 -11 24 C-10.4943565 18.46640844 -9.04383132 14.43969425 -6.4375 9.5625 C-6.10814453 8.92634766 -5.77878906 8.29019531 -5.43945312 7.63476562 C-4.63546752 6.08505424 -3.81902334 4.54181678 -3 3 C-2.34 3 -1.68 3 -1 3 C-0.67 2.01 -0.34 1.02 0 0 Z " fill="#DB4A52" transform="translate(320,329)"/>
<path d="M0 0 C2.31243792 -0.02685412 4.6249627 -0.04632841 6.9375 -0.0625 C8.22527344 -0.07410156 9.51304687 -0.08570313 10.83984375 -0.09765625 C14 0 14 0 15 1 C15.08631874 2.34267413 15.10706473 3.68974322 15.09765625 5.03515625 C15.09443359 5.84404297 15.09121094 6.65292969 15.08789062 7.48632812 C15.07951172 8.33646484 15.07113281 9.18660156 15.0625 10.0625 C15.05798828 10.91650391 15.05347656 11.77050781 15.04882812 12.65039062 C15.03700373 14.76695663 15.01906769 16.88348685 15 19 C10.05 19 5.1 19 0 19 C0 18.67 0 18.34 0 18 C4.62 18 9.24 18 14 18 C13.67 12.72 13.34 7.44 13 2 C8.71 1.67 4.42 1.34 0 1 C0 0.67 0 0.34 0 0 Z " fill="#D65154" transform="translate(287,320)"/>
<path d="M0 0 C7.26 0.33 14.52 0.66 22 1 C22 1.66 22 2.32 22 3 C14.41 3 6.82 3 -1 3 C-0.67 2.01 -0.34 1.02 0 0 Z " fill="#E74F59" transform="translate(164,409)"/>
<path d="M0 0 C1.1530054 3.51836206 0.89094212 6.4063027 0.5 10.0625 C-0.0468096 16.18123021 0.20792016 21.91926398 1 28 C-2.95827557 23.41224125 -3.0233104 18.8897615 -3 13 C-2.43737992 8.51140462 -1.42906362 4.28719087 0 0 Z " fill="#D74047" transform="translate(165,124)"/>
<path d="M0 0 C1.32 0 2.64 0 4 0 C7 3.21428571 7 3.21428571 7 6 C11.29 6.33 15.58 6.66 20 7 C16.25816125 9.49455917 14.43756964 9.37606522 10 9 C5.84015981 7.36869012 2.87809629 5.43157635 0 2 C0 1.34 0 0.68 0 0 Z " fill="#DC4C54" transform="translate(161,307)"/>
<path d="M0 0 C0.66 0 1.32 0 2 0 C2.49579633 5.61312271 0.82103449 9.41927771 -1.5 14.375 C-1.83386719 15.11105469 -2.16773438 15.84710938 -2.51171875 16.60546875 C-3.33115204 18.40822198 -4.16421549 20.20476899 -5 22 C-5.33 22 -5.66 22 -6 22 C-6.13306769 17.3426308 -5.47141819 13.41425456 -4 9 C-3.01 9 -2.02 9 -1 9 C-0.67 6.03 -0.34 3.06 0 0 Z " fill="#DD4A51" transform="translate(337,138)"/>
<path d="M0 0 C5.14304211 4.68332885 6.36003141 11.26785596 6.94921875 17.9453125 C7.01033457 20.41815269 6.68930619 22.62572311 6 25 C5.67 25 5.34 25 5 25 C4.80664062 23.90300781 4.61328125 22.80601562 4.4140625 21.67578125 C4.15131825 20.22130418 3.88828199 18.76687983 3.625 17.3125 C3.49867188 16.59126953 3.37234375 15.87003906 3.2421875 15.12695312 C2.51993505 11.17262097 1.50573527 7.73815148 0 4 C0 2.68 0 1.36 0 0 Z " fill="#DE4045" transform="translate(373,333)"/>
<path d="M0 0 C1.32 0.33 2.64 0.66 4 1 C2.19047409 2.83635578 0.37759362 4.66916208 -1.4375 6.5 C-1.95376953 7.02464844 -2.47003906 7.54929688 -3.00195312 8.08984375 C-4.31576787 9.41224552 -5.65593505 10.70835568 -7 12 C-7.33 12 -7.66 12 -8 12 C-8.1875 9.125 -8.1875 9.125 -8 6 C-5 4 -5 4 -2 4 C-2 3.34 -2 2.68 -2 2 C-1.34 2 -0.68 2 0 2 C0 1.34 0 0.68 0 0 Z " fill="#E33A43" transform="translate(236,200)"/>
<path d="M0 0 C0.33 0.66 0.66 1.32 1 2 C-0.50663783 5.01327566 -3.03166411 5.61056618 -6 7 C-6 7.66 -6 8.32 -6 9 C-4.35 9 -2.7 9 -1 9 C-1 9.66 -1 10.32 -1 11 C-2.98 11.66 -4.96 12.32 -7 13 C-10 9.25 -10 9.25 -10 7 C-7.8125 5.2734375 -7.8125 5.2734375 -5 3.375 C-4.071875 2.74335938 -3.14375 2.11171875 -2.1875 1.4609375 C-1.1046875 0.73777344 -1.1046875 0.73777344 0 0 Z " fill="#E5222D" transform="translate(267,201)"/>
<path d="M0 0 C-1.24663331 0.50833591 -2.49749387 1.00631145 -3.75 1.5 C-4.44609375 1.7784375 -5.1421875 2.056875 -5.859375 2.34375 C-8 3 -8 3 -12 3 C-12 3.66 -12 4.32 -12 5 C-13.98 5 -15.96 5 -18 5 C-18 5.66 -18 6.32 -18 7 C-19.32 6.67 -20.64 6.34 -22 6 C-15.3212179 1.86326026 -8.00319626 -2.48189008 0 0 Z " fill="#D94F57" transform="translate(107,352)"/>
<path d="M0 0 C0 0.66 0 1.32 0 2 C-1.65532623 3.01866229 -3.32260138 4.01810813 -5 5 C-5.33 5.66 -5.66 6.32 -6 7 C-6.99 7 -7.98 7 -9 7 C-9 7.66 -9 8.32 -9 9 C-13.38461538 12 -13.38461538 12 -16 12 C-15.67 11.01 -15.34 10.02 -15 9 C-12.4375 7.8125 -12.4375 7.8125 -10 7 C-10 6.34 -10 5.68 -10 5 C-8.3203125 3.7109375 -8.3203125 3.7109375 -6.125 2.375 C-5.40570313 1.92898438 -4.68640625 1.48296875 -3.9453125 1.0234375 C-2 0 -2 0 0 0 Z " fill="#DC5A60" transform="translate(220,324)"/>
<path d="M0 0 C0.73605469 0.01353516 1.47210938 0.02707031 2.23046875 0.04101562 C4.02896743 0.07605131 5.82708422 0.12984712 7.625 0.1875 C7.295 1.1775 6.965 2.1675 6.625 3.1875 C6.625 2.5275 6.625 1.8675 6.625 1.1875 C4.39509273 1.24784932 2.1659464 1.3367275 -0.0625 1.4375 C-1.30386719 1.48390625 -2.54523438 1.5303125 -3.82421875 1.578125 C-8.75535376 2.42439239 -11.11451908 4.62276506 -14.1875 8.4375 C-14.579375 9.015 -14.97125 9.5925 -15.375 10.1875 C-15.25 6.875 -15.25 6.875 -14.375 3.1875 C-9.5984141 -0.0558608 -5.54182635 -0.19541702 0 0 Z " fill="#D64F55" transform="translate(116.375,367.8125)"/>
<path d="M0 0 C0.66 0.33 1.32 0.66 2 1 C2 1.66 2 2.32 2 3 C2.66 3 3.32 3 4 3 C4 2.34 4 1.68 4 1 C5.65 1 7.3 1 9 1 C7.625 2.5 7.625 2.5 6 4 C5.34 4 4.68 4 4 4 C4 4.66 4 5.32 4 6 C2.02 6.66 0.04 7.32 -2 8 C-1.125 1.125 -1.125 1.125 0 0 Z " fill="#DF333B" transform="translate(263,217)"/>
<path d="M0 0 C0.33 0.66 0.66 1.32 1 2 C0.34 2 -0.32 2 -1 2 C-1 2.66 -1 3.32 -1 4 C-1.99 4 -2.98 4 -4 4 C-4.309375 4.639375 -4.61875 5.27875 -4.9375 5.9375 C-6 8 -6 8 -7 9 C-8.99958364 9.04080783 -11.00045254 9.04254356 -13 9 C-13 8.34 -13 7.68 -13 7 C-8.71 4.69 -4.42 2.38 0 0 Z " fill="#DE5155" transform="translate(254,211)"/>
<path d="M0 0 C0 0.66 0 1.32 0 2 C-1.051875 2.0825 -2.10375 2.165 -3.1875 2.25 C-7.27047209 3.05320762 -9.0122727 4.19334709 -12 7 C-12.66 6.67 -13.32 6.34 -14 6 C-14 4.68 -14 3.36 -14 2 C-4.58997722 -0.29612756 -4.58997722 -0.29612756 0 0 Z " fill="#DF3941" transform="translate(274,55)"/>
<path d="M0 0 C2.45973778 2.45973778 2.32301675 3.29299385 2.375 6.6875 C2.29953394 11.88711145 0.94011157 14.77358962 -2 19 C-2.66 19 -3.32 19 -4 19 C-4.33 17.68 -4.66 16.36 -5 15 C-3.68 15 -2.36 15 -1 15 C-1 13.35 -1 11.7 -1 10 C-0.34 10 0.32 10 1 10 C0.67 6.7 0.34 3.4 0 0 Z " fill="#DC4A51" transform="translate(188,293)"/>
<path d="M0 0 C0 2.31 0 4.62 0 7 C-0.33 7 -0.66 7 -1 7 C-1 5.02 -1 3.04 -1 1 C-1.99 1 -2.98 1 -4 1 C-4 1.66 -4 2.32 -4 3 C-7.96 3 -11.92 3 -16 3 C-11.918638 -1.081362 -5.43630843 -0.09372946 0 0 Z " fill="#DC5C5F" transform="translate(417,296)"/>
<path d="M0 0 C0.45375 0.78375 0.9075 1.5675 1.375 2.375 C4.72045469 5.72045469 7.28818879 5.97191637 11.85546875 6.640625 C14 7 14 7 15 8 C15.04063832 9.66617115 15.042721 11.33388095 15 13 C13 12 13 12 12 9 C10.948125 9.103125 9.89625 9.20625 8.8125 9.3125 C5 9 5 9 2.0625 6.75 C0 4 0 4 0 0 Z " fill="#E26F76" transform="translate(287,388)"/>
<path d="M0 0 C-0.62759865 2.92879371 -1.58622659 5.36095629 -3 8 C-5.31 8 -7.62 8 -10 8 C-9.071875 7.1028125 -9.071875 7.1028125 -8.125 6.1875 C-5.86323046 3.99188856 -5.86323046 3.99188856 -4 1 C-2 0 -2 0 0 0 Z " fill="#E7535B" transform="translate(255,330)"/>
<path d="M0 0 C-0.66 0 -1.32 0 -2 0 C-2 0.66 -2 1.32 -2 2 C-6.37149656 5.66641647 -10.60258708 5.31749488 -16 5 C-13.63746991 2.63746991 -11.68772729 1.962152 -8.5625 0.8125 C-7.59441406 0.44769531 -6.62632813 0.08289063 -5.62890625 -0.29296875 C-3 -1 -3 -1 0 0 Z " fill="#DE434B" transform="translate(100,322)"/>
<path d="M0 0 C0.66 0 1.32 0 2 0 C3.125 3.75 3.125 3.75 2 6 C2.66 6 3.32 6 4 6 C4.33 7.65 4.66 9.3 5 11 C5.66 11 6.32 11 7 11 C7.33 12.65 7.66 14.3 8 16 C3.92388228 12.36454366 1.78563754 9.16895076 0 4 C0 2.68 0 1.36 0 0 Z " fill="#DF4B50" transform="translate(194,221)"/>
<path d="M0 0 C0 0.66 0 1.32 0 2 C-1.4540625 2.4021875 -1.4540625 2.4021875 -2.9375 2.8125 C-6.22571815 4.65283789 -6.22571815 4.65283789 -6.62109375 7.6484375 C-6.85441221 10.44107996 -6.99048582 13.19807297 -7 16 C-7.33 16 -7.66 16 -8 16 C-8 11.05 -8 6.1 -8 1 C-5.29120665 -0.35439668 -2.99066732 -0.06501451 0 0 Z " fill="#DC444A" transform="translate(235,337)"/>
<path d="M0 0 C0.99 0.66 1.98 1.32 3 2 C2.67 4.31 2.34 6.62 2 9 C-4.27 9 -10.54 9 -17 9 C-17 8.67 -17 8.34 -17 8 C-11.06 8 -5.12 8 1 8 C0.67 5.36 0.34 2.72 0 0 Z " fill="#D55B5B" transform="translate(354,345)"/>
<path d="M0 0 C-0.33 0.99 -0.66 1.98 -1 3 C-5.29 3 -9.58 3 -14 3 C-14 2.34 -14 1.68 -14 1 C-9.27685687 0.22887459 -4.78478822 -0.09764874 0 0 Z " fill="#DB4F59" transform="translate(287,296)"/>
<path d="M0 0 C0.33 0 0.66 0 1 0 C1.05422947 1.4370809 1.09289723 2.87475462 1.125 4.3125 C1.14820313 5.11300781 1.17140625 5.91351563 1.1953125 6.73828125 C1 9 1 9 -1 12 C-1.99 12 -2.98 12 -4 12 C-3.52494322 10.18641846 -3.04483958 8.37415821 -2.5625 6.5625 C-2.29566406 5.55316406 -2.02882813 4.54382813 -1.75390625 3.50390625 C-1 1 -1 1 0 0 Z " fill="#DF4650" transform="translate(308,146)"/>
<path d="M0 0 C0.33 0.99 0.66 1.98 1 3 C1.99 3.33 2.98 3.66 4 4 C7 8.33333333 7 8.33333333 7 11 C7.66 11 8.32 11 9 11 C8.67 11.99 8.34 12.98 8 14 C0.33257403 5.738041 0.33257403 5.738041 -1 1 C-0.67 0.67 -0.34 0.34 0 0 Z " fill="#DD5155" transform="translate(78,392)"/>
<path d="M0 0 C5.23235533 0.06875631 7.82603558 0.98130104 11.75 4.375 C11.09 5.035 10.43 5.695 9.75 6.375 C9.75 5.715 9.75 5.055 9.75 4.375 C8.43 4.375 7.11 4.375 5.75 4.375 C5.75 3.715 5.75 3.055 5.75 2.375 C1.46 2.375 -2.83 2.375 -7.25 2.375 C-4.68599223 -0.18900777 -3.56217985 0.04866366 0 0 Z " fill="#DB6B6D" transform="translate(174.25,284.625)"/>
<path d="M0 0 C1.98 0 3.96 0 6 0 C3.84658594 2.34917898 1.78332063 3.82443004 -1.0625 5.25 C-1.75472656 5.60578125 -2.44695312 5.9615625 -3.16015625 6.328125 C-3.76730469 6.54984375 -4.37445313 6.7715625 -5 7 C-5.66 6.67 -6.32 6.34 -7 6 C-6.01 4.68 -5.02 3.36 -4 2 C-2.68 2.33 -1.36 2.66 0 3 C0 2.01 0 1.02 0 0 Z " fill="#E15158" transform="translate(217,151)"/>
<path d="M0 0 C1.32 0.33 2.64 0.66 4 1 C2.61133677 1.9893091 1.21370149 2.96603078 -0.1875 3.9375 C-0.96480469 4.48277344 -1.74210938 5.02804687 -2.54296875 5.58984375 C-5.07950299 7.0456289 -7.1218182 7.59613435 -10 8 C-10 7.34 -10 6.68 -10 6 C-8.02 5.67 -6.04 5.34 -4 5 C-4 4.01 -4 3.02 -4 2 C-2.68 2 -1.36 2 0 2 C0 1.34 0 0.68 0 0 Z " fill="#D94750" transform="translate(141,401)"/>
<path d="M0 0 C0.56203125 0.31710937 1.1240625 0.63421875 1.703125 0.9609375 C4.15196317 2.06874525 6.08387855 2.38975399 8.75 2.625 C9.54921875 2.69976562 10.3484375 2.77453125 11.171875 2.8515625 C11.77515625 2.90054687 12.3784375 2.94953125 13 3 C12.67 3.66 12.34 4.32 12 5 C8.7 5 5.4 5 2 5 C2 4.34 2 3.68 2 3 C1.34 3 0.68 3 0 3 C0 2.01 0 1.02 0 0 Z " fill="#D44249" transform="translate(104,392)"/>
<path d="M0 0 C0.33 0.99 0.66 1.98 1 3 C0.01 3.33 -0.98 3.66 -2 4 C-2.33 4.99 -2.66 5.98 -3 7 C-3.66 7 -4.32 7 -5 7 C-5.33 10.3 -5.66 13.6 -6 17 C-6.33 17 -6.66 17 -7 17 C-7.45236462 10.55380413 -6.72205782 7.31722545 -3 2 C-2.01 1.34 -1.02 0.68 0 0 Z " fill="#E0656B" transform="translate(166,287)"/>
<path d="M0 0 C0.66 0.99 1.32 1.98 2 3 C-0.78750235 7.74907807 -1.6452373 8.85809492 -7 11 C-4.69 7.37 -2.38 3.74 0 0 Z " fill="#DD4A50" transform="translate(296,169)"/>
<path d="M0 0 C1.32 0.66 2.64 1.32 4 2 C2.35 4.64 0.7 7.28 -1 10 C-3 7 -3 7 -3 3 C-2.01 3 -1.02 3 0 3 C0 2.01 0 1.02 0 0 Z " fill="#E1343A" transform="translate(327,159)"/>
<path d="M0 0 C1.125 3.75 1.125 3.75 0 6 C-0.66 6 -1.32 6 -2 6 C-2 7.65 -2 9.3 -2 11 C-3.32 11 -4.64 11 -6 11 C-4.54955729 6.89041233 -2.48889248 3.56741255 0 0 Z " fill="#DA474B" transform="translate(175,107)"/>
<path d="M0 0 C1.65 0 3.3 0 5 0 C5.33 1.65 5.66 3.3 6 5 C5.2575 4.62875 4.515 4.2575 3.75 3.875 C1.07804319 2.68648295 1.07804319 2.68648295 -1.0625 3.9375 C-1.701875 4.288125 -2.34125 4.63875 -3 5 C-5.25 4.625 -5.25 4.625 -7 4 C-4.35261084 2.5393715 -3.10551666 2 0 2 C0 1.34 0 0.68 0 0 Z " fill="#D75361" transform="translate(371,388)"/>
<path d="M0 0 C0.99 0 1.98 0 3 0 C3 0.66 3 1.32 3 2 C4.32 2 5.64 2 7 2 C7 2.99 7 3.98 7 5 C6.34 5 5.68 5 5 5 C5 6.98 5 8.96 5 11 C4.67 11 4.34 11 4 11 C4 9.02 4 7.04 4 5 C3.34 5 2.68 5 2 5 C1.34 3.35 0.68 1.7 0 0 Z " fill="#E33036" transform="translate(120,339)"/>
<path d="M0 0 C0.66 1.32 1.32 2.64 2 4 C-2.30769231 7.07692308 -2.30769231 7.07692308 -5.8125 6.6875 C-6.534375 6.460625 -7.25625 6.23375 -8 6 C-5.38485683 3.87961365 -2.80362384 1.86908256 0 0 Z " fill="#DE4349" transform="translate(211,77)"/>
<path d="M0 0 C-0.33 0.99 -0.66 1.98 -1 3 C-1.99 3.33 -2.98 3.66 -4 4 C-4.33 3.67 -4.66 3.34 -5 3 C-7.33944736 3.28730055 -9.6739143 3.61936779 -12 4 C-7.87571444 0.61219401 -5.3248712 0 0 0 Z M-6 4 C-4 5 -4 5 -4 5 Z " fill="#DE3E46" transform="translate(340,320)"/>
<path d="M0 0 C2.31 0.33 4.62 0.66 7 1 C7.33 2.32 7.66 3.64 8 5 C8.66 5 9.32 5 10 5 C10 5.66 10 6.32 10 7 C5.56541027 5.6062718 3.12621626 3.39417765 0 0 Z " fill="#E14B53" transform="translate(167,154)"/>
<path d="M0 0 C2.31 1.98 4.62 3.96 7 6 C6.34 7.65 5.68 9.3 5 11 C2.77343654 8.77343654 2.67769332 7.96490828 2 5 C1.3530635 3.3255761 0.69040574 1.65697379 0 0 Z " fill="#DF353B" transform="translate(327,73)"/>
<path d="M0 0 C2.02855159 2.02855159 3.00835839 3.33019566 4 6 C3.625 8.75 3.625 8.75 3 11 C2.01 11 1.02 11 0 11 C0 7.37 0 3.74 0 0 Z " fill="#D74B50" transform="translate(377,393)"/>
<path d="M0 0 C0.45375 0.61875 0.9075 1.2375 1.375 1.875 C5.18535123 4.95957005 9.23390116 5.30873376 14 6 C14 6.33 14 6.66 14 7 C7.13107822 8.56659619 7.13107822 8.56659619 3.91015625 6.953125 C2.21140989 5.71640986 0.5977265 4.36472472 -1 3 C-0.67 2.01 -0.34 1.02 0 0 Z " fill="#DD5B60" transform="translate(417,389)"/>
<path d="M0 0 C0.33 0 0.66 0 1 0 C1.28875 1.216875 1.5775 2.43375 1.875 3.6875 C2.67835792 6.91814648 3.66265409 9.94320935 5 13 C4.01 13.495 4.01 13.495 3 14 C1.51171875 12.85546875 1.51171875 12.85546875 0 11 C-0.29296875 8.30078125 -0.29296875 8.30078125 -0.1875 5.3125 C-0.16042969 4.31863281 -0.13335937 3.32476562 -0.10546875 2.30078125 C-0.07066406 1.54152344 -0.03585937 0.78226562 0 0 Z " fill="#DD4F5B" transform="translate(333,378)"/>
<path d="M0 0 C3.79379058 1.49041773 5.68343758 3.69062512 8 7 C8 7.66 8 8.32 8 9 C6.68 9 5.36 9 4 9 C4 8.01 4 7.02 4 6 C3.34 6 2.68 6 2 6 C1.34 4.02 0.68 2.04 0 0 Z " fill="#E04C55" transform="translate(136,325)"/>
<path d="M0 0 C0.99 0.33 1.98 0.66 3 1 C3 1.66 3 2.32 3 3 C2.34 3 1.68 3 1 3 C1 3.66 1 4.32 1 5 C-1.31 5.66 -3.62 6.32 -6 7 C-4.02 4.69 -2.04 2.38 0 0 Z " fill="#D7292E" transform="translate(283,186)"/>
<path d="M0 0 C2.97 0 5.94 0 9 0 C4.68630028 2.87579981 1.19265239 4 -4 4 C-4 3.34 -4 2.68 -4 2 C-2.68 2 -1.36 2 0 2 C0 1.34 0 0.68 0 0 Z " fill="#DE4D52" transform="translate(276,117)"/>
<path d="M0 0 C1 2 1 2 0.125 5 C-1 8 -1 8 -2 10 C-2.66 10 -3.32 10 -4 10 C-4 9.34 -4 8.68 -4 8 C-4.66 7.67 -5.32 7.34 -6 7 C-5.34 6.01 -4.68 5.02 -4 4 C-3.34 4 -2.68 4 -2 4 C-1.34 2.68 -0.68 1.36 0 0 Z " fill="#E24654" transform="translate(182,99)"/>
<path d="M0 0 C1.98 0.66 3.96 1.32 6 2 C5.625 4.9375 5.625 4.9375 5 8 C4.01 8.495 4.01 8.495 3 9 C2.87625 8.030625 2.7525 7.06125 2.625 6.0625 C2.41875 5.051875 2.2125 4.04125 2 3 C1.34 2.67 0.68 2.34 0 2 C0 1.34 0 0.68 0 0 Z " fill="#DE4F58" transform="translate(252,320)"/>
<path d="M0 0 C0.33 0.66 0.66 1.32 1 2 C-0.65 3.98 -2.3 5.96 -4 8 C-5.32 7.67 -6.64 7.34 -8 7 C-5.36 4.69 -2.72 2.38 0 0 Z " fill="#D9555D" transform="translate(276,193)"/>
<path d="M0 0 C0.33 0 0.66 0 1 0 C1 1.65 1 3.3 1 5 C0.0409375 5.37125 0.0409375 5.37125 -0.9375 5.75 C-3.18741541 6.81562433 -3.18741541 6.81562433 -3.75 9.125 C-3.8325 9.74375 -3.915 10.3625 -4 11 C-4.66 11 -5.32 11 -6 11 C-4.55007731 6.89188572 -2.54592427 3.53144334 0 0 Z " fill="#DB4E58" transform="translate(206,185)"/>
<path d="M0 0 C1.134375 0.020625 2.26875 0.04125 3.4375 0.0625 C1.81410195 1.77134005 0.14430947 3.43696717 -1.5625 5.0625 C-2.2225 5.0625 -2.8825 5.0625 -3.5625 5.0625 C-4.125 3.125 -4.125 3.125 -4.5625 1.0625 C-3.5625 0.0625 -3.5625 0.0625 0 0 Z " fill="#DF4D52" transform="translate(288.5625,203.9375)"/>
<path d="M0 0 C2 1 2 1 4 3 C4.125 5.625 4.125 5.625 4 8 C4.66 8.33 5.32 8.66 6 9 C5.01 9 4.02 9 3 9 C0 3.375 0 3.375 0 0 Z " fill="#E16063" transform="translate(263,393)"/>
<path d="M0 0 C3.44216672 2.6598561 3.99504674 5.90288286 5 10 C4.34 10.66 3.68 11.32 3 12 C2.49166409 10.75336669 1.99368855 9.50250613 1.5 8.25 C1.2215625 7.55390625 0.943125 6.8578125 0.65625 6.140625 C0 4 0 4 0 0 Z " fill="#DC5055" transform="translate(373,333)"/>
<path d="M0 0 C2.64 0.33 5.28 0.66 8 1 C8 1.99 8 2.98 8 4 C7.34 4 6.68 4 6 4 C5.67 4.66 5.34 5.32 5 6 C3.31237149 4.3545622 1.6459651 2.68711423 0 1 C0 0.67 0 0.34 0 0 Z " fill="#E43740" transform="translate(351,341)"/>
<path d="M0 0 C0.99 0.33 1.98 0.66 3 1 C4.125 3.875 4.125 3.875 5 7 C5.33 7.99 5.66 8.98 6 10 C5.34 10 4.68 10 4 10 C0 3.375 0 3.375 0 0 Z " fill="#D85459" transform="translate(394,395)"/>
<path d="M0 0 C0.33 0.66 0.66 1.32 1 2 C-0.18075019 4.36150039 -1.12464639 4.87241994 -3.375 6.1875 C-3.98085938 6.55230469 -4.58671875 6.91710937 -5.2109375 7.29296875 C-7 8 -7 8 -10 7 C-6.7 4.69 -3.4 2.38 0 0 Z " fill="#DA6267" transform="translate(267,201)"/>
<path d="M0 0 C-0.33 1.32 -0.66 2.64 -1 4 C-3.64 4 -6.28 4 -9 4 C-6.43425105 1.43425105 -3.68548192 0 0 0 Z " fill="#E1444B" transform="translate(236,65)"/>
<path d="M0 0 C1.2077558 3.62326739 0.54311128 4.64146369 -1 8 C-1.66 8 -2.32 8 -3 8 C-3 8.66 -3 9.32 -3 10 C-3.66 9.67 -4.32 9.34 -5 9 C-2.25 2.25 -2.25 2.25 0 0 Z " fill="#DC3A41" transform="translate(84,359)"/>
<path d="M0 0 C0.66 0 1.32 0 2 0 C0.515 5.445 0.515 5.445 -1 11 C-1.33 11 -1.66 11 -2 11 C-2 8.03 -2 5.06 -2 2 C-1.34 2 -0.68 2 0 2 C0 1.34 0 0.68 0 0 Z " fill="#D9414D" transform="translate(335,342)"/>
<path d="M0 0 C0.33 0.66 0.66 1.32 1 2 C0.0625 4.125 0.0625 4.125 -1 6 C-1.66 6 -2.32 6 -3 6 C-3 6.99 -3 7.98 -3 9 C-3.99 8.67 -4.98 8.34 -6 8 C-4.625 5.5 -4.625 5.5 -3 3 C-2.34 3 -1.68 3 -1 3 C-0.67 2.01 -0.34 1.02 0 0 Z " fill="#DA585B" transform="translate(320,329)"/>
<path d="M0 0 C0.66 0.33 1.32 0.66 2 1 C2.36923077 6.53846154 2.36923077 6.53846154 0.5 8.875 C-0.2425 9.431875 -0.2425 9.431875 -1 10 C-1.33 9.01 -1.66 8.02 -2 7 C-1.34 7 -0.68 7 0 7 C0 4.69 0 2.38 0 0 Z " fill="#DE363E" transform="translate(247,184)"/>
<path d="M0 0 C1.32 0.66 2.64 1.32 4 2 C1.86535088 4.45484649 0.29279709 5.68134222 -3 6 C-3.66 5.34 -4.32 4.68 -5 4 C-3.35 4 -1.7 4 0 4 C0 2.68 0 1.36 0 0 Z " fill="#E4464D" transform="translate(226,145)"/>
<path d="M0 0 C1.65 0.33 3.3 0.66 5 1 C3.71034824 2.37562854 2.37310707 3.70766393 1 5 C0.34 5 -0.32 5 -1 5 C-0.67 3.35 -0.34 1.7 0 0 Z " fill="#E0272E" transform="translate(184,97)"/>
<path d="M0 0 C0.66 0.33 1.32 0.66 2 1 C0.625 2.5 0.625 2.5 -1 4 C-1.66 4 -2.32 4 -3 4 C-3 4.66 -3 5.32 -3 6 C-4.65 6 -6.3 6 -8 6 C-5.38485683 3.87961365 -2.80362384 1.86908256 0 0 Z " fill="#DD5255" transform="translate(221,71)"/>
<path d="M0 0 C1.5 1.375 1.5 1.375 3 3 C3 3.66 3 4.32 3 5 C3.66 5.33 4.32 5.66 5 6 C4.01 6.495 4.01 6.495 3 7 C0.96855359 6.06553465 -1.03533587 5.06775224 -3 4 C-2.01 3.34 -1.02 2.68 0 2 C0 1.34 0 0.68 0 0 Z " fill="#E0444B" transform="translate(90,403)"/>
<path d="M0 0 C1.32 0.66 2.64 1.32 4 2 C4 2.66 4 3.32 4 4 C4.66 4.66 5.32 5.32 6 6 C5.01 6.495 5.01 6.495 4 7 C1.9375 6.25 1.9375 6.25 0 5 C-0.33 4.01 -0.66 3.02 -1 2 C-0.67 1.34 -0.34 0.68 0 0 Z " fill="#DD3644" transform="translate(299,113)"/>
<path d="M0 0 C0.33 0 0.66 0 1 0 C1 3.3 1 6.6 1 10 C-0.32 10.33 -1.64 10.66 -3 11 C-2.690625 10.29875 -2.38125 9.5975 -2.0625 8.875 C-0.96697322 5.91063343 -0.43577008 3.12301892 0 0 Z " fill="#D24C53" transform="translate(301,401)"/>
<path d="M0 0 C2.97 0.33 5.94 0.66 9 1 C6.08235 2.9451 4.37462715 3.45276317 1 4 C0.67 2.68 0.34 1.36 0 0 Z " fill="#DB5F66" transform="translate(86,340)"/>
<path d="M0 0 C1.98 0 3.96 0 6 0 C6.33 0.66 6.66 1.32 7 2 C4.36 2.33 1.72 2.66 -1 3 C-0.67 2.01 -0.34 1.02 0 0 Z " fill="#DF4A4F" transform="translate(238,335)"/>
<path d="M0 0 C0.66 0 1.32 0 2 0 C2 0.66 2 1.32 2 2 C1.34 2 0.68 2 0 2 C0 3.98 0 5.96 0 8 C-0.99 8 -1.98 8 -3 8 C-1.125 1.125 -1.125 1.125 0 0 Z " fill="#DC4951" transform="translate(199,197)"/>
<path d="M0 0 C2.31 0 4.62 0 7 0 C1.85714286 4.42857143 1.85714286 4.42857143 -2 5 C-2 4.34 -2 3.68 -2 3 C-1.01 3 -0.02 3 1 3 C0.67 2.01 0.34 1.02 0 0 Z " fill="#E36167" transform="translate(242,135)"/>
<path d="M0 0 C3.465 1.98 3.465 1.98 7 4 C7 4.99 7 5.98 7 7 C6.67 6.34 6.34 5.68 6 5 C4.68 5 3.36 5 2 5 C1.34 3.35 0.68 1.7 0 0 Z " fill="#E05E66" transform="translate(315,63)"/>
<path d="M0 0 C0.99 0.33 1.98 0.66 3 1 C3 3 3 3 2 6 C-0.475 5.01 -0.475 5.01 -3 4 C-2.01 3.67 -1.02 3.34 0 3 C0 2.01 0 1.02 0 0 Z " fill="#EA2F38" transform="translate(324,401)"/>
<path d="M0 0 C1.32 0.33 2.64 0.66 4 1 C1.03 3.475 1.03 3.475 -2 6 C-2 4.68 -2 3.36 -2 2 C-1.34 2 -0.68 2 0 2 C0 1.34 0 0.68 0 0 Z " fill="#D6393F" transform="translate(236,200)"/>
<path d="M0 0 C1.32 0 2.64 0 4 0 C4.33 2.31 4.66 4.62 5 7 C2.65941363 4.87219421 1.29299694 2.88437779 0 0 Z " fill="#E24B5B" transform="translate(304,120)"/>
</svg>
