<?xml version="1.0" encoding="UTF-8"?>
<svg version="1.1" xmlns="http://www.w3.org/2000/svg" width="600" height="600">
<path d="M0 0 C198 0 396 0 600 0 C600 198 600 396 600 600 C402 600 204 600 0 600 C0 402 0 204 0 0 Z " fill="#FEFEFE" transform="translate(0,0)"/>
<path d="M0 0 C0.93457031 0.18175781 1.86914062 0.36351562 2.83203125 0.55078125 C17.93374123 4.23229264 33.3498451 15.04194902 41.51904297 28.25439453 C44.96046376 34.21769879 47.50865386 40.26851297 49 47 C49.51626953 48.87171875 49.51626953 48.87171875 50.04296875 50.78125 C51.58556935 57.81773726 51.43877394 65.01808739 51.4375 72.1875 C51.43889984 72.93822784 51.44029968 73.68895569 51.44174194 74.46243286 C51.41558088 91.56016805 49.12969222 107.72332561 41 123 C40.44828125 124.19109375 39.8965625 125.3821875 39.328125 126.609375 C26.18186458 154.85323933 2.69709701 180.43715828 -22.2890625 198.73779297 C-24.05638875 200.04159958 -25.79439123 201.37859038 -27.53125 202.72265625 C-45.45259679 216.43629857 -65.798473 227.32510604 -87 235 C-88.3543355 235.54124439 -89.70852516 236.08285402 -91.0625 236.625 C-102.14652065 240.6660492 -114.99382003 243.68347322 -126.5625 239.8125 C-133.5011672 236.15393002 -138.1153728 231.75439506 -140.5859375 224.2109375 C-144.01584675 205.89651641 -136.84842664 187.53612256 -126.7265625 172.53515625 C-119.45038675 162.49006038 -111.89588234 155.96529411 -100 152 C-91.00352012 151.28794984 -82.56141137 151.92802908 -74.9375 157.0625 C-72.20100872 159.79899128 -71.74213622 161.65412155 -71.5 165.4375 C-71.63761266 176.06425505 -80.81535092 184.9519845 -88 192 C-92.13184928 195.60315647 -96.37679006 199.05985785 -100.78515625 202.3203125 C-106.89160369 206.97749641 -112.44628082 214.40403956 -114 222 C-114.32936894 225.2936894 -114.42743929 227.21802912 -112.83203125 230.13671875 C-110.34078177 232.67046289 -108.89805287 232.62952571 -105.375 232.6875 C-84.40292061 231.94347945 -65.4591969 215.7673193 -50 203 C-49.4534375 202.55640137 -48.906875 202.11280273 -48.34375 201.65576172 C-32.66808463 188.90541952 -17.64107356 174.58147904 -6 158 C-5.60135742 157.43506836 -5.20271484 156.87013672 -4.79199219 156.28808594 C9.22143353 136.14733237 17.7451677 113.99434009 13.31640625 89.16796875 C11.10111115 82.00732607 7.76500896 75.26320622 1.19921875 71.31640625 C-9.7466185 66.81244147 -22.48182945 70.9027172 -33 75 C-60.32557778 86.41421491 -85.14905584 103.21382546 -108.47851562 121.2644043 C-143.68034051 148.40082251 -143.68034051 148.40082251 -163 151 C-163.96035156 151.13535156 -164.92070312 151.27070313 -165.91015625 151.41015625 C-175.75226948 152.12335286 -183.87403572 147.91985504 -191.5234375 142.0703125 C-196.97559888 137.02351628 -200.46296728 131.5616917 -201.33984375 124.11328125 C-202.03216067 102.48530077 -187.14556771 84.50583264 -173.1875 69.5 C-170.80877349 66.98324981 -168.40873504 64.48801321 -166 62 C-165.43313477 61.4112207 -164.86626953 60.82244141 -164.28222656 60.21582031 C-157.24366004 52.93186507 -150.00175755 46.23484344 -142 40 C-141.05253906 39.22398437 -140.10507813 38.44796875 -139.12890625 37.6484375 C-100.52072129 6.66352473 -49.11340464 -10.36314508 0 0 Z " fill="#ED1D25" transform="translate(231,181)"/>
<path d="M0 0 C1.0725 0.7425 2.145 1.485 3.25 2.25 C9.38215826 8.38215826 10.64134983 14.70612515 10.7421875 23.16015625 C10.76927292 24.58321327 10.76927292 24.58321327 10.79690552 26.03501892 C10.82576523 28.02915962 10.84364773 30.02348657 10.85107422 32.01782227 C10.87498061 35.06003292 10.97351511 38.0942525 11.07421875 41.13476562 C11.30997261 55.24381133 11.30997261 55.24381133 7.89208984 59.82592773 C5.30423063 61.6601373 2.94306579 62.84051212 0 64 C-1.71352224 64.97005757 -3.42255265 65.94813498 -5.125 66.9375 C-13.61408253 70.57395805 -23.98366621 70.49271937 -32.625 67.3125 C-39.74808707 63.85851986 -43.65787088 60.09244782 -46.30859375 52.6171875 C-48.1608339 45.60588298 -47.32329563 39.41505017 -44 33 C-40.02589673 26.59015602 -34.14335496 23.23423115 -27 21 C-20.27149112 20.14289431 -12.50386239 19.95060586 -6 22 C-6.25662245 20.55989519 -6.53090821 19.1229313 -6.8125 17.6875 C-6.96332031 16.88699219 -7.11414063 16.08648437 -7.26953125 15.26171875 C-8.09378833 12.70960726 -8.90725641 11.64683212 -11 10 C-16.21909204 8.26030265 -22.16952163 7.98416763 -27.39453125 9.859375 C-28.73119916 10.54382833 -30.05099005 11.26319115 -31.34375 12.02734375 C-33 13 -33 13 -36 14 C-36.70226141 12.75823305 -37.38629109 11.50614401 -38.0625 10.25 C-38.44535156 9.55390625 -38.82820313 8.8578125 -39.22265625 8.140625 C-40 6 -40 6 -39.9140625 3.90234375 C-38.61038332 1.1891311 -37.00470947 0.58818072 -34.3125 -0.6875 C-33.46300781 -1.10386719 -32.61351562 -1.52023437 -31.73828125 -1.94921875 C-22.03276642 -5.67358892 -8.64562518 -6.29335484 0 0 Z " fill="#ED222A" transform="translate(354,307)"/>
<path d="M0 0 C0.68191406 -0.01611328 1.36382812 -0.03222656 2.06640625 -0.04882812 C8.19608302 -0.05466591 12.47056883 1.73248145 17.75 4.875 C26.80667218 14.17000565 27.125 25.9833212 27.125 38.3125 C13.925 38.3125 0.725 38.3125 -12.875 38.3125 C-11.49353492 49.4001747 -11.49353492 49.4001747 -5.875 57.3125 C-1.00284748 60.4205973 4.56346757 59.90618506 10.125 59.3125 C12.9033773 58.4187824 15.44529194 57.36812117 18.06640625 56.08984375 C20.125 55.3125 20.125 55.3125 23.125 56.3125 C24.29296875 57.8359375 24.29296875 57.8359375 25.3125 59.6875 C25.65667969 60.29335938 26.00085938 60.89921875 26.35546875 61.5234375 C27.125 63.3125 27.125 63.3125 27.125 66.3125 C25.08623051 67.13224263 23.04383925 67.9429807 21 68.75 C19.86304688 69.20246094 18.72609375 69.65492188 17.5546875 70.12109375 C8.82373382 73.15405602 -1.9038736 73.94880613 -10.65234375 70.53515625 C-19.33576174 65.75851331 -25.1482525 58.38871163 -28.875 49.3125 C-31.58474956 39.58732522 -31.47365583 25.34731499 -26.875 16.3125 C-20.45076103 6.02043757 -12.37111048 -0.05780893 0 0 Z " fill="#ED2129" transform="translate(508.875,302.6875)"/>
<path d="M0 0 C0 6.6 0 13.2 0 20 C3.3 20 6.6 20 10 20 C10 23.96 10 27.92 10 32 C6.7 32 3.4 32 0 32 C0.09347175 38.06920432 0.19955179 44.13800674 0.31738281 50.20678711 C0.35569348 52.27182965 0.39054266 54.3369394 0.421875 56.40209961 C0.46748014 59.36857138 0.52548201 62.3345796 0.5859375 65.30078125 C0.59748871 66.2258699 0.60903992 67.15095856 0.62094116 68.1040802 C0.64081085 68.96474594 0.66068054 69.82541168 0.68115234 70.7121582 C0.69447601 71.46938675 0.70779968 72.2266153 0.7215271 73.00679016 C0.89708612 75.31605188 0.89708612 75.31605188 3 78 C4.96361864 78.57748803 4.96361864 78.57748803 7.125 78.6875 C8.40375 78.790625 9.6825 78.89375 11 79 C11 82.96 11 86.92 11 91 C8.62374823 91.10883596 6.25256024 91.18766696 3.875 91.25 C3.20984375 91.28351563 2.5446875 91.31703125 1.859375 91.3515625 C-3.2893893 91.45251866 -6.03820118 90.20800524 -10 87 C-14.54307728 81.82593976 -16.29640714 78.43184561 -16.22705078 71.59106445 C-16.22734283 70.83960144 -16.22763489 70.08813843 -16.22793579 69.31390381 C-16.22654253 66.83024547 -16.21098166 64.34688718 -16.1953125 61.86328125 C-16.19158235 60.14121159 -16.18873539 58.4191398 -16.18673706 56.69706726 C-16.17910073 52.16456238 -16.15945225 47.63218568 -16.1373291 43.09973145 C-16.11687067 38.47470839 -16.10773535 33.84966463 -16.09765625 29.22460938 C-16.07620635 20.14968327 -16.0420704 11.07485229 -16 2 C-10.10468951 -0.00691421 -6.66812445 0 0 0 Z " fill="#ED1E26" transform="translate(464,284)"/>
<path d="M0 0 C0.01030746 0.96022064 0.02061493 1.92044128 0.03123474 2.90975952 C0.12885641 11.94491344 0.2315797 20.97999676 0.33933926 30.01503563 C0.3945786 34.66038996 0.44800022 39.30575057 0.49731445 43.95117188 C0.54494309 48.43158181 0.59728535 52.91191382 0.65294075 57.39223099 C0.67337111 59.10428561 0.69208306 60.81636161 0.70907402 62.52845383 C0.73310298 64.920578 0.7631595 67.3125543 0.79467773 69.70458984 C0.80331093 70.77381432 0.80331093 70.77381432 0.81211853 71.86463928 C0.82056111 75.55649938 0.82056111 75.55649938 2 79 C3.89533342 79.46523063 3.89533342 79.46523063 6.0625 79.625 C8.0115625 79.810625 8.0115625 79.810625 10 80 C10 83.96 10 87.92 10 92 C-4.27280429 92.57949732 -4.27280429 92.57949732 -10 89 C-14.40867046 84.88681684 -16.82019589 80.57813908 -17.24050903 74.55143738 C-17.24626082 73.21683225 -17.24109395 71.88215106 -17.22705078 70.54760742 C-17.22734283 69.8153595 -17.22763489 69.08311157 -17.22793579 68.32867432 C-17.2265482 65.92081641 -17.21101418 63.51327225 -17.1953125 61.10546875 C-17.19158033 59.43109811 -17.18873432 57.75672529 -17.18673706 56.08235168 C-17.17911663 51.68468144 -17.15948184 47.28714421 -17.1373291 42.88952637 C-17.11683638 38.39837442 -17.10772802 33.90720089 -17.09765625 29.41601562 C-17.0762344 20.61061618 -17.04211772 11.80532466 -17 3 C-14.73000175 2.49622232 -12.45896997 1.99709981 -10.1875 1.5 C-8.29064453 1.08234375 -8.29064453 1.08234375 -6.35546875 0.65625 C-3 0 -3 0 0 0 Z " fill="#ED222A" transform="translate(560,283)"/>
<path d="M0 0 C-0.45636536 1.396478 -0.91519488 2.7921508 -1.375 4.1875 C-1.75785156 5.35345703 -1.75785156 5.35345703 -2.1484375 6.54296875 C-3.02206922 9.06367679 -3.99120398 11.53064278 -5 14 C-5.95261719 14.04898437 -6.90523438 14.09796875 -7.88671875 14.1484375 C-9.14097656 14.22320312 -10.39523437 14.29796875 -11.6875 14.375 C-13.54955078 14.47941406 -13.54955078 14.47941406 -15.44921875 14.5859375 C-19.33829368 14.88268057 -19.33829368 14.88268057 -24 17 C-24.33 35.15 -24.66 53.3 -25 72 C-30.28 72 -35.56 72 -41 72 C-41.20398655 64.44587237 -41.36881149 56.89278175 -41.46630955 49.33656311 C-41.51312613 45.82700653 -41.57652353 42.31944397 -41.67895508 38.81103516 C-41.79619735 34.76967175 -41.83924962 30.73037485 -41.87890625 26.6875 C-41.92535782 25.4382373 -41.97180939 24.18897461 -42.01966858 22.90185547 C-42.02458204 14.3682958 -42.02458204 14.3682958 -39.11227417 10.47900391 C-27.42242483 -0.17956192 -15.3845289 -2.86438676 0 0 Z " fill="#ED1F27" transform="translate(442,303)"/>
<path d="M0 0 C0 23.1 0 46.2 0 70 C-5.28 70 -10.56 70 -16 70 C-16 47.56 -16 25.12 -16 2 C-2 0 -2 0 0 0 Z " fill="#ED1D25" transform="translate(390,305)"/>
<path d="M0 0 C2.3925 0.04125 4.785 0.0825 7.25 0.125 C7.25 7.055 7.25 13.985 7.25 21.125 C1.55790888 22.54802278 -6.2871199 24.00745815 -11.67578125 21.078125 C-14.74289877 18.00195993 -15.71266818 15.58044821 -16.0625 11.3125 C-16.02153458 8.08793604 -15.75434223 7.13213366 -14 4.25 C-9.58426514 0.07958374 -5.91724033 -0.14429179 0 0 Z " fill="#FEF6F6" transform="translate(340.75,340.875)"/>
<path d="M0 0 C4.46574948 0.50419752 6.35417024 1.54171712 9.54296875 4.59375 C11.46617368 7.25578145 11.73068017 9.24055719 11.4453125 12.47265625 C10.42436167 15.99004164 8.48057679 17.89396075 5.875 20.4375 C2.73628812 22.00685594 0.33644178 21.78951103 -3.125 21.4375 C-7.27448967 18.00966071 -8.97393898 15.97328707 -9.5 10.625 C-9.48011166 6.97880475 -9.19108692 6.51714321 -6.6875 3.5 C-5.841875 2.819375 -4.99625 2.13875 -4.125 1.4375 C-3.125 0.4375 -3.125 0.4375 0 0 Z " fill="#ED242C" transform="translate(381.125,276.5625)"/>
<path d="M0 0 C4.50518319 1.33825552 6.1064396 4.94432642 8.4296875 8.81640625 C9.1171875 10.62890625 9.1171875 10.62890625 9.1171875 13.62890625 C1.5271875 13.62890625 -6.0628125 13.62890625 -13.8828125 13.62890625 C-12.48734157 5.2560807 -9.32948323 -0.73819143 0 0 Z " fill="#FDF3F3" transform="translate(510.8828125,315.37109375)"/>
<path d="M0 0 C0.66 0.33 1.32 0.66 2 1 C-2.62 5.62 -7.24 10.24 -12 15 C-12 10.39852874 -9.10228152 8.19311408 -6 5 C-4.05341967 3.24193983 -2.06456557 1.62215867 0 0 Z " fill="#FCE0E1" transform="translate(134,379)"/>
</svg>
