<svg width="18" height="20" viewBox="0 0 18 20" fill="none" xmlns="http://www.w3.org/2000/svg">
<path d="M10.73 18C10.5542 18.3031 10.3019 18.5547 9.99825 18.7295C9.69463 18.9044 9.3504 18.9965 9.00002 18.9965C8.64964 18.9965 8.30541 18.9044 8.00179 18.7295C7.69818 18.5547 7.44583 18.3031 7.27002 18M14.3333 7C14.3333 5.4087 13.7714 3.88258 12.7712 2.75736C11.771 1.63214 10.4145 1 9 1C7.58551 1 6.22896 1.63214 5.22876 2.75736C4.22857 3.88258 3.66667 5.4087 3.66667 7C3.66667 14 1 15.5 1 15.5H17C17 15.5 14.3333 14 14.3333 7Z" stroke="#141C25" stroke-width="1.5" stroke-linecap="round" stroke-linejoin="round"/>
</svg>
